G04 DipTrace 2.4.0.2*
%INBottomMask.gbs*%
%MOMM*%
%ADD27C,2.0*%
%ADD29C,2.2*%
%ADD36C,2.2*%
%ADD39C,4.0*%
%ADD40C,1.5*%
%ADD46C,1.9*%
%ADD47O,1.149X1.7*%
%ADD49C,2.4*%
%ADD52C,1.724*%
%ADD54C,1.724*%
%ADD58O,1.14X2.2*%
%ADD60C,2.4*%
%ADD67R,2.0X2.0*%
%ADD71C,1.7*%
%ADD73R,1.7X1.7*%
%FSLAX53Y53*%
G04*
G71*
G90*
G75*
G01*
%LNBotMask*%
%LPD*%
D73*
X64110Y27280D3*
D71*
X60610D3*
D67*
X64427Y33630D3*
D27*
X53377D3*
D67*
X55755Y70043D3*
D27*
Y81092D3*
D67*
X76810Y41885D3*
D27*
Y52935D3*
D39*
X25000Y47500D3*
X70000D3*
D36*
X33600Y17600D3*
Y15060D3*
X13586Y68804D3*
X16126D3*
X18666D3*
D29*
X24005Y35435D3*
X22735Y32895D3*
X21465Y35435D3*
X20195Y32895D3*
X18925Y35435D3*
X17655Y32895D3*
D40*
X25410Y33635D3*
D36*
X66040Y62931D3*
Y60391D3*
X63058Y74805D3*
Y77345D3*
Y79885D3*
X48135Y73853D3*
Y71313D3*
D60*
X51410Y59030D3*
X48870D3*
X46330D3*
X43790D3*
G36*
X48830Y81411D2*
X48527Y81720D1*
X47943D1*
X47640Y81411D1*
Y79829D1*
X47943Y79520D1*
X48527D1*
X48830Y79829D1*
Y81411D1*
G37*
D58*
X46965Y80620D3*
X45695D3*
D54*
X28550Y67285D3*
D52*
Y57125D3*
D54*
X42520Y65380D3*
D52*
X32360D3*
D54*
X18013Y42520D3*
D52*
Y52680D3*
D54*
X53850Y62740D3*
D52*
X61034Y69924D3*
D49*
X72700Y24000D3*
Y29080D3*
Y34160D3*
D39*
X37300Y31700D3*
X72700Y16500D3*
D47*
X67820Y81790D3*
X69090D3*
X70360D3*
X71630D3*
X72900D3*
X74170D3*
X75440D3*
X76710D3*
X77980D3*
X79250D3*
X80520D3*
X81790D3*
D29*
X61470Y55755D3*
X58930D3*
X56390D3*
X53850D3*
X51310D3*
X48770D3*
X46230D3*
X43690D3*
X41150D3*
X38610D3*
X36070D3*
X33530D3*
Y40515D3*
X36070D3*
X38610D3*
X41150D3*
X43690D3*
X46230D3*
X48770D3*
X51310D3*
X53850D3*
X56390D3*
X58930D3*
X61470D3*
D73*
X24640Y64645D3*
D46*
X22100D3*
Y57025D3*
X24640D3*
D36*
X18362Y24151D3*
Y21611D3*
Y19071D3*
Y16531D3*
X20902D3*
Y19071D3*
Y21611D3*
Y24151D3*
M02*
