G04 DipTrace 2.4.0.2*
%INBottom.gbl*%
%MOMM*%
%ADD14C,1.0*%
%ADD15C,0.949*%
%ADD16C,0.5*%
%ADD17C,0.635*%
%ADD18C,0.33*%
%ADD20R,1.5X1.5*%
%ADD21C,1.5*%
%ADD23R,1.8X1.8*%
%ADD24C,1.8*%
%ADD26C,2.0*%
%ADD27C,2.0*%
%ADD29C,2.2*%
%ADD30O,0.94X2.0*%
%ADD32C,1.524*%
%ADD33C,1.524*%
%ADD36C,2.2*%
%ADD37O,0.949X1.5*%
%ADD38C,1.7*%
%FSLAX53Y53*%
G04*
G71*
G90*
G75*
G01*
%LNBottom*%
%LPD*%
X33530Y55755D2*
D14*
Y55320D1*
X36270Y52580D1*
X57225D1*
X67920Y41885D1*
X76810D1*
X64427Y33630D2*
Y27280D1*
X64110D1*
X42520Y65380D2*
X48135Y70995D1*
Y71313D1*
X67820Y81790D2*
D15*
X69090D1*
X66550Y57025D2*
D16*
X70360Y60835D1*
Y81790D1*
X22735Y32895D2*
X24005Y31625D1*
X25910D1*
X27180Y32895D1*
Y36705D1*
X32895Y42420D1*
X46865D1*
X48770Y40515D1*
X24005Y35435D2*
X32260Y43690D1*
X48135D1*
X51310Y40515D1*
X21465Y35435D2*
X23370Y37340D1*
X24005D1*
X31625Y44960D1*
X49405D1*
X53850Y40515D1*
X18013Y42520D2*
X27280D1*
X30990Y46230D1*
X50675D1*
X56390Y40515D1*
X24640Y57025D2*
X25910D1*
X27180Y55755D1*
Y51945D1*
X30990Y48135D1*
Y46230D1*
X28550Y57125D2*
Y52680D1*
X33730Y47500D1*
X51945D1*
X58930Y40515D1*
X61470D2*
X72700Y29285D1*
Y29080D1*
X71630Y81790D2*
Y60200D1*
X67185Y55755D1*
X61470D1*
X58930D2*
X58613D1*
X60518Y53850D1*
X67185D1*
X72900Y59565D1*
Y78615D1*
X74170Y79885D1*
Y81790D1*
X24640Y64645D2*
X25375Y65380D1*
X32360D1*
X48135Y73853D2*
X48235Y73953D1*
Y80620D1*
X36070Y40515D2*
Y39880D1*
X34790Y38600D1*
X31615D1*
X28450Y35435D1*
Y32260D1*
X26645Y30455D1*
X22980D1*
X18454Y25929D1*
Y24151D1*
X18362D1*
X28550Y67285D2*
X35535D1*
X46965Y78715D1*
Y80620D1*
X18013Y52680D2*
X14480Y49147D1*
Y39880D1*
X18925Y35435D1*
X41150Y55755D2*
X43055Y53850D1*
X58295D1*
X59565Y52580D1*
X67820D1*
X74170Y58930D1*
Y77980D1*
X76710Y80520D1*
Y81790D1*
X53850Y62740D2*
X52262Y61153D1*
X43055D1*
X41150Y59248D1*
Y55755D1*
D14*
X66550Y57025D3*
X21465Y38928D3*
X60835Y44325D3*
X53522Y35890D3*
X28968Y26994D3*
X77980Y59565D3*
X11016Y83416D2*
D17*
X83988D1*
X11016Y82784D2*
X66863D1*
X82746D2*
X83988D1*
X11016Y82152D2*
X45085D1*
X48962D2*
X54530D1*
X56979D2*
X66615D1*
X82994D2*
X83988D1*
X11016Y81521D2*
X44549D1*
X49448D2*
X54183D1*
X57336D2*
X62646D1*
X63468D2*
X66605D1*
X83004D2*
X83988D1*
X11016Y80889D2*
X44489D1*
X49468D2*
X54133D1*
X57376D2*
X61654D1*
X64460D2*
X66794D1*
X82816D2*
X83988D1*
X11016Y80257D2*
X44489D1*
X49468D2*
X54362D1*
X57148D2*
X61367D1*
X64748D2*
X69373D1*
X77656D2*
X83988D1*
X11016Y79626D2*
X44589D1*
X49419D2*
X55126D1*
X56384D2*
X61337D1*
X64778D2*
X69373D1*
X77180D2*
X83988D1*
X11016Y78994D2*
X45313D1*
X49220D2*
X61575D1*
X64540D2*
X69373D1*
X76555D2*
X83988D1*
X11016Y78362D2*
X45243D1*
X49220D2*
X61664D1*
X64450D2*
X69373D1*
X75920D2*
X83988D1*
X11016Y77731D2*
X44608D1*
X49220D2*
X61367D1*
X64748D2*
X69373D1*
X75285D2*
X83988D1*
X11016Y77099D2*
X43983D1*
X46720D2*
X47248D1*
X49220D2*
X61337D1*
X64778D2*
X69373D1*
X75156D2*
X83988D1*
X11016Y76467D2*
X43348D1*
X46085D2*
X47248D1*
X49220D2*
X61575D1*
X64549D2*
X69373D1*
X75156D2*
X83988D1*
X11016Y75836D2*
X42713D1*
X45450D2*
X47248D1*
X49220D2*
X61674D1*
X64440D2*
X69373D1*
X75156D2*
X83988D1*
X11016Y75204D2*
X42088D1*
X44825D2*
X47089D1*
X49220D2*
X61367D1*
X64748D2*
X69373D1*
X75156D2*
X83988D1*
X11016Y74572D2*
X41453D1*
X44190D2*
X46563D1*
X49706D2*
X61337D1*
X64778D2*
X69373D1*
X75156D2*
X83988D1*
X11016Y73941D2*
X40818D1*
X43555D2*
X46404D1*
X49865D2*
X61565D1*
X64549D2*
X69373D1*
X75156D2*
X83988D1*
X11016Y73309D2*
X40193D1*
X42930D2*
X46494D1*
X49776D2*
X62250D1*
X63865D2*
X69373D1*
X75156D2*
X83988D1*
X11016Y72677D2*
X39558D1*
X42295D2*
X46881D1*
X49389D2*
X69373D1*
X75156D2*
X83988D1*
X11016Y72046D2*
X38923D1*
X41660D2*
X46563D1*
X49706D2*
X69373D1*
X75156D2*
X83988D1*
X11016Y71414D2*
X38298D1*
X41035D2*
X46404D1*
X49865D2*
X54124D1*
X57396D2*
X69373D1*
X75156D2*
X83988D1*
X11016Y70782D2*
X37663D1*
X40400D2*
X46196D1*
X49786D2*
X54124D1*
X57396D2*
X59819D1*
X62248D2*
X69373D1*
X75156D2*
X83988D1*
X11016Y70151D2*
X12531D1*
X14642D2*
X15071D1*
X17182D2*
X17611D1*
X19722D2*
X37028D1*
X39765D2*
X45571D1*
X49399D2*
X54124D1*
X57396D2*
X59551D1*
X62515D2*
X69373D1*
X75156D2*
X83988D1*
X11016Y69519D2*
X12015D1*
X20238D2*
X36403D1*
X39140D2*
X44936D1*
X48377D2*
X54124D1*
X57396D2*
X59591D1*
X62476D2*
X69373D1*
X75156D2*
X83988D1*
X11016Y68887D2*
X11856D1*
X20397D2*
X35768D1*
X38505D2*
X44301D1*
X47752D2*
X54124D1*
X57396D2*
X59977D1*
X62089D2*
X69373D1*
X75156D2*
X83988D1*
X11016Y68256D2*
X11946D1*
X20308D2*
X27434D1*
X29674D2*
X35133D1*
X37870D2*
X43676D1*
X47117D2*
X69373D1*
X75156D2*
X83988D1*
X11016Y67624D2*
X12333D1*
X19911D2*
X27096D1*
X37244D2*
X43041D1*
X46482D2*
X69373D1*
X75156D2*
X83988D1*
X11016Y66992D2*
X27086D1*
X36609D2*
X42406D1*
X45857D2*
X69373D1*
X75156D2*
X83988D1*
X11016Y66361D2*
X27394D1*
X33474D2*
X41414D1*
X45222D2*
X69373D1*
X75156D2*
X83988D1*
X11016Y65729D2*
X20965D1*
X33812D2*
X41066D1*
X44587D2*
X69373D1*
X75156D2*
X83988D1*
X11016Y65097D2*
X20588D1*
X33831D2*
X41047D1*
X43991D2*
X69373D1*
X75156D2*
X83988D1*
X11016Y64466D2*
X20528D1*
X33534D2*
X41354D1*
X43694D2*
X65315D1*
X66772D2*
X69373D1*
X75156D2*
X83988D1*
X11016Y63834D2*
X20746D1*
X26122D2*
X52863D1*
X54846D2*
X64571D1*
X67516D2*
X69373D1*
X75156D2*
X83988D1*
X11016Y63202D2*
X21550D1*
X22649D2*
X52427D1*
X55273D2*
X64323D1*
X67754D2*
X69373D1*
X75156D2*
X83988D1*
X11016Y62571D2*
X52308D1*
X55342D2*
X64343D1*
X67734D2*
X69373D1*
X75156D2*
X83988D1*
X11016Y61939D2*
X42505D1*
X55104D2*
X64631D1*
X67447D2*
X69373D1*
X75156D2*
X83988D1*
X11016Y61307D2*
X41840D1*
X53993D2*
X64581D1*
X67506D2*
X69373D1*
X75156D2*
X83988D1*
X11016Y60676D2*
X41205D1*
X53149D2*
X64333D1*
X67754D2*
X68828D1*
X75156D2*
X83988D1*
X11016Y60044D2*
X40580D1*
X52931D2*
X64343D1*
X67744D2*
X68203D1*
X75156D2*
X83988D1*
X11016Y59412D2*
X40183D1*
X53209D2*
X64621D1*
X75156D2*
X83988D1*
X11016Y58781D2*
X40163D1*
X53229D2*
X65524D1*
X66554D2*
X66933D1*
X75146D2*
X83988D1*
X11016Y58149D2*
X21014D1*
X23195D2*
X23548D1*
X25735D2*
X27483D1*
X29615D2*
X40163D1*
X53010D2*
X66149D1*
X74759D2*
X83988D1*
X11016Y57517D2*
X20598D1*
X26787D2*
X27106D1*
X29992D2*
X40163D1*
X52395D2*
X65425D1*
X74124D2*
X83988D1*
X11016Y56886D2*
X20518D1*
X30031D2*
X32236D1*
X62764D2*
X65325D1*
X73489D2*
X83988D1*
X11016Y56254D2*
X20727D1*
X29753D2*
X31869D1*
X72864D2*
X83988D1*
X11016Y55622D2*
X21441D1*
X22759D2*
X23981D1*
X25299D2*
X25945D1*
X29535D2*
X31799D1*
X72229D2*
X83988D1*
X11016Y54991D2*
X26193D1*
X29535D2*
X31978D1*
X71604D2*
X83988D1*
X11016Y54359D2*
X26193D1*
X29535D2*
X32543D1*
X70969D2*
X76081D1*
X77537D2*
X83988D1*
X11016Y53727D2*
X16966D1*
X19058D2*
X26193D1*
X29535D2*
X33397D1*
X70334D2*
X75386D1*
X78232D2*
X83988D1*
X11016Y53096D2*
X16579D1*
X19445D2*
X26193D1*
X29535D2*
X34032D1*
X69709D2*
X75178D1*
X78440D2*
X83988D1*
X11016Y52464D2*
X16430D1*
X19494D2*
X26193D1*
X30130D2*
X34667D1*
X69074D2*
X75247D1*
X78371D2*
X83988D1*
X11016Y51832D2*
X15795D1*
X19236D2*
X26203D1*
X30765D2*
X35292D1*
X68429D2*
X75624D1*
X77994D2*
X83988D1*
X11016Y51201D2*
X15170D1*
X17907D2*
X22711D1*
X31400D2*
X56882D1*
X60323D2*
X67707D1*
X72289D2*
X83988D1*
X11016Y50569D2*
X14535D1*
X17272D2*
X21897D1*
X32026D2*
X57517D1*
X60958D2*
X66893D1*
X73102D2*
X83988D1*
X11016Y49937D2*
X13900D1*
X16637D2*
X21371D1*
X32661D2*
X58142D1*
X61593D2*
X66367D1*
X73628D2*
X83988D1*
X11016Y49306D2*
X13503D1*
X16012D2*
X21014D1*
X33296D2*
X58777D1*
X62218D2*
X66010D1*
X73985D2*
X83988D1*
X11016Y48674D2*
X13493D1*
X15466D2*
X20776D1*
X33921D2*
X59412D1*
X62853D2*
X65782D1*
X74223D2*
X83988D1*
X11016Y48042D2*
X13493D1*
X15466D2*
X20647D1*
X52772D2*
X60037D1*
X63488D2*
X65653D1*
X74352D2*
X83988D1*
X11016Y47411D2*
X13493D1*
X15466D2*
X20617D1*
X53407D2*
X60672D1*
X64113D2*
X65613D1*
X74382D2*
X83988D1*
X11016Y46779D2*
X13493D1*
X15466D2*
X20677D1*
X54032D2*
X61307D1*
X64748D2*
X65673D1*
X74323D2*
X83988D1*
X11016Y46147D2*
X13493D1*
X15466D2*
X20836D1*
X54667D2*
X61932D1*
X65383D2*
X65831D1*
X74164D2*
X83988D1*
X11016Y45516D2*
X13493D1*
X15466D2*
X21094D1*
X55302D2*
X62567D1*
X73906D2*
X83988D1*
X11016Y44884D2*
X13493D1*
X15466D2*
X21500D1*
X55927D2*
X63202D1*
X73499D2*
X83988D1*
X11016Y44252D2*
X13493D1*
X15466D2*
X22086D1*
X56562D2*
X63827D1*
X72914D2*
X83988D1*
X11016Y43621D2*
X13493D1*
X15466D2*
X17026D1*
X18998D2*
X23038D1*
X57187D2*
X64462D1*
X71961D2*
X83988D1*
X11016Y42989D2*
X13493D1*
X15466D2*
X16589D1*
X57822D2*
X65097D1*
X78450D2*
X83988D1*
X11016Y42357D2*
X13493D1*
X15466D2*
X16520D1*
X58457D2*
X65722D1*
X78450D2*
X83988D1*
X11016Y41726D2*
X13493D1*
X15466D2*
X16758D1*
X62684D2*
X66357D1*
X78450D2*
X83988D1*
X11016Y41094D2*
X13493D1*
X15466D2*
X17790D1*
X18237D2*
X26392D1*
X63101D2*
X66992D1*
X78450D2*
X83988D1*
X11016Y40462D2*
X13493D1*
X15466D2*
X25757D1*
X63210D2*
X75178D1*
X78450D2*
X83988D1*
X11016Y39831D2*
X13493D1*
X15893D2*
X25132D1*
X63518D2*
X83988D1*
X11016Y39199D2*
X13791D1*
X16528D2*
X24497D1*
X37165D2*
X37518D1*
X39705D2*
X40058D1*
X42245D2*
X42598D1*
X44785D2*
X45138D1*
X47325D2*
X47678D1*
X49865D2*
X50218D1*
X52405D2*
X52758D1*
X54945D2*
X55298D1*
X57485D2*
X57838D1*
X60025D2*
X60378D1*
X64153D2*
X83988D1*
X11016Y38567D2*
X14426D1*
X17163D2*
X23862D1*
X36123D2*
X62051D1*
X64788D2*
X83988D1*
X11016Y37936D2*
X15051D1*
X17788D2*
X22602D1*
X35498D2*
X62676D1*
X65413D2*
X83988D1*
X11016Y37304D2*
X15686D1*
X18423D2*
X21967D1*
X31688D2*
X63311D1*
X66048D2*
X83988D1*
X11016Y36672D2*
X16321D1*
X31053D2*
X63946D1*
X66683D2*
X83988D1*
X11016Y36041D2*
X16946D1*
X30428D2*
X64571D1*
X67308D2*
X83988D1*
X11016Y35409D2*
X17184D1*
X29793D2*
X36324D1*
X38276D2*
X65206D1*
X67943D2*
X71378D1*
X74025D2*
X83988D1*
X11016Y34777D2*
X17323D1*
X29436D2*
X34974D1*
X39626D2*
X52238D1*
X54518D2*
X62795D1*
X68578D2*
X70971D1*
X74422D2*
X83988D1*
X11016Y34146D2*
X16480D1*
X29436D2*
X34300D1*
X40300D2*
X51832D1*
X54925D2*
X62795D1*
X66068D2*
X66466D1*
X69203D2*
X70862D1*
X74541D2*
X83988D1*
X11016Y33514D2*
X16033D1*
X29436D2*
X33873D1*
X40727D2*
X51742D1*
X55005D2*
X62795D1*
X66068D2*
X67101D1*
X69838D2*
X70981D1*
X74412D2*
X83988D1*
X11016Y32882D2*
X15914D1*
X29436D2*
X33605D1*
X40995D2*
X51931D1*
X54826D2*
X62795D1*
X66068D2*
X67736D1*
X70473D2*
X71407D1*
X73995D2*
X83988D1*
X11016Y32251D2*
X16043D1*
X29436D2*
X33456D1*
X41144D2*
X52556D1*
X54201D2*
X62795D1*
X66068D2*
X68361D1*
X71098D2*
X83988D1*
X11016Y31619D2*
X16510D1*
X18800D2*
X19048D1*
X21340D2*
X21588D1*
X29178D2*
X33417D1*
X41183D2*
X63192D1*
X65661D2*
X68996D1*
X71733D2*
X83988D1*
X11016Y30987D2*
X22145D1*
X28543D2*
X33486D1*
X41114D2*
X63192D1*
X65661D2*
X69631D1*
X72368D2*
X83988D1*
X11016Y30356D2*
X21510D1*
X27918D2*
X33665D1*
X40935D2*
X63192D1*
X65661D2*
X70257D1*
X73995D2*
X83988D1*
X11016Y29724D2*
X20885D1*
X27273D2*
X33962D1*
X40638D2*
X63192D1*
X65661D2*
X70892D1*
X74412D2*
X83988D1*
X11016Y29092D2*
X20250D1*
X22987D2*
X34448D1*
X40152D2*
X63192D1*
X65661D2*
X70862D1*
X74541D2*
X83988D1*
X11016Y28461D2*
X19615D1*
X22352D2*
X35212D1*
X39388D2*
X59749D1*
X61464D2*
X62627D1*
X65661D2*
X70971D1*
X74422D2*
X83988D1*
X11016Y27829D2*
X18990D1*
X21727D2*
X59233D1*
X61990D2*
X62627D1*
X65661D2*
X71378D1*
X74015D2*
X83988D1*
X11016Y27197D2*
X18355D1*
X21092D2*
X59124D1*
X62089D2*
X62627D1*
X65661D2*
X83988D1*
X11016Y26566D2*
X17720D1*
X20457D2*
X59313D1*
X61900D2*
X62627D1*
X65591D2*
X83988D1*
X11016Y25934D2*
X17472D1*
X19832D2*
X60087D1*
X61136D2*
X62627D1*
X65591D2*
X83988D1*
X11016Y25302D2*
X17085D1*
X22183D2*
X71437D1*
X73965D2*
X83988D1*
X11016Y24671D2*
X16708D1*
X22560D2*
X71001D1*
X74402D2*
X83988D1*
X11016Y24039D2*
X16629D1*
X22630D2*
X70862D1*
X74531D2*
X83988D1*
X11016Y23407D2*
X16797D1*
X22461D2*
X70961D1*
X74432D2*
X83988D1*
X11016Y22776D2*
X17095D1*
X22163D2*
X71358D1*
X74045D2*
X83988D1*
X11016Y22144D2*
X16718D1*
X22550D2*
X83988D1*
X11016Y21512D2*
X16629D1*
X22639D2*
X83988D1*
X11016Y20881D2*
X16797D1*
X22471D2*
X83988D1*
X11016Y20249D2*
X17115D1*
X22153D2*
X71904D1*
X73499D2*
X83988D1*
X11016Y19617D2*
X16718D1*
X22550D2*
X70425D1*
X74967D2*
X83988D1*
X11016Y18986D2*
X16629D1*
X22639D2*
X32603D1*
X34595D2*
X69731D1*
X75662D2*
X83988D1*
X11016Y18354D2*
X16788D1*
X22481D2*
X32047D1*
X35161D2*
X69294D1*
X76108D2*
X83988D1*
X11016Y17722D2*
X17125D1*
X22143D2*
X31869D1*
X35330D2*
X69016D1*
X76386D2*
X83988D1*
X11016Y17091D2*
X16718D1*
X22540D2*
X31948D1*
X35260D2*
X68858D1*
X76535D2*
X83988D1*
X11016Y16459D2*
X16629D1*
X22639D2*
X32315D1*
X34883D2*
X68818D1*
X76585D2*
X83988D1*
X11016Y15827D2*
X16778D1*
X22481D2*
X32047D1*
X35151D2*
X68877D1*
X76525D2*
X83988D1*
X11016Y15196D2*
X17294D1*
X19435D2*
X19834D1*
X21975D2*
X31869D1*
X35330D2*
X69046D1*
X76357D2*
X83988D1*
X11016Y14564D2*
X31938D1*
X35260D2*
X69344D1*
X76059D2*
X83988D1*
X11016Y13932D2*
X32305D1*
X34903D2*
X69810D1*
X75593D2*
X83988D1*
X11016Y13301D2*
X70544D1*
X74848D2*
X83988D1*
X11016Y12669D2*
X83988D1*
X11016Y12037D2*
X83988D1*
X11016Y11406D2*
X83988D1*
X63005Y28703D2*
X63253D1*
X63255Y32052D1*
X62855Y32057D1*
Y35203D1*
X65484D1*
X61797Y38883D1*
X61558Y38844D1*
X61241Y38858D1*
X60932Y38931D1*
X60643Y39061D1*
X60384Y39243D1*
X60198Y39435D1*
X59905Y39155D1*
X59631Y38996D1*
X59331Y38891D1*
X59018Y38844D1*
X58701Y38858D1*
X58392Y38931D1*
X58103Y39061D1*
X57844Y39243D1*
X57658Y39435D1*
X57365Y39155D1*
X57091Y38996D1*
X56791Y38891D1*
X56478Y38844D1*
X56161Y38858D1*
X55852Y38931D1*
X55563Y39061D1*
X55304Y39243D1*
X55118Y39435D1*
X54825Y39155D1*
X54551Y38996D1*
X54251Y38891D1*
X53938Y38844D1*
X53621Y38858D1*
X53312Y38931D1*
X53023Y39061D1*
X52764Y39243D1*
X52578Y39435D1*
X52285Y39155D1*
X52011Y38996D1*
X51711Y38891D1*
X51398Y38844D1*
X51081Y38858D1*
X50772Y38931D1*
X50483Y39061D1*
X50224Y39243D1*
X50038Y39435D1*
X49745Y39155D1*
X49471Y38996D1*
X49171Y38891D1*
X48858Y38844D1*
X48541Y38858D1*
X48232Y38931D1*
X47943Y39061D1*
X47684Y39243D1*
X47498Y39435D1*
X47205Y39155D1*
X46931Y38996D1*
X46631Y38891D1*
X46318Y38844D1*
X46001Y38858D1*
X45692Y38931D1*
X45403Y39061D1*
X45144Y39243D1*
X44958Y39435D1*
X44665Y39155D1*
X44391Y38996D1*
X44091Y38891D1*
X43778Y38844D1*
X43461Y38858D1*
X43152Y38931D1*
X42863Y39061D1*
X42604Y39243D1*
X42418Y39435D1*
X42273Y39275D1*
X42019Y39085D1*
X41733Y38947D1*
X41427Y38865D1*
X41111Y38843D1*
X40796Y38880D1*
X40494Y38976D1*
X40215Y39128D1*
X39970Y39329D1*
X39880Y39426D1*
X39585Y39155D1*
X39311Y38996D1*
X39011Y38891D1*
X38698Y38844D1*
X38381Y38858D1*
X38072Y38931D1*
X37783Y39061D1*
X37524Y39243D1*
X37338Y39435D1*
X37045Y39155D1*
X36771Y38996D1*
X36364Y38875D1*
X35443Y37947D1*
X35184Y37766D1*
X34832Y37678D1*
X32002Y37677D1*
X29370Y35050D1*
X29373Y32260D1*
X29319Y31949D1*
X29132Y31638D1*
X27298Y29802D1*
X27039Y29621D1*
X26687Y29533D1*
X23361Y29532D1*
X19374Y25544D1*
X19634Y25226D1*
X19744Y25358D1*
X19992Y25554D1*
X20274Y25701D1*
X20577Y25792D1*
X20893Y25823D1*
X21209Y25795D1*
X21513Y25708D1*
X21796Y25565D1*
X22047Y25370D1*
X22256Y25133D1*
X22417Y24860D1*
X22524Y24561D1*
X22572Y24248D1*
X22556Y23898D1*
X22478Y23590D1*
X22344Y23303D1*
X22158Y23046D1*
X21990Y22880D1*
X22293Y22541D1*
X22443Y22262D1*
X22538Y21959D1*
X22575Y21611D1*
X22545Y21295D1*
X22456Y20991D1*
X22311Y20709D1*
X22116Y20459D1*
X21989Y20348D1*
X22293Y20001D1*
X22443Y19722D1*
X22538Y19419D1*
X22575Y19071D1*
X22545Y18755D1*
X22456Y18451D1*
X22311Y18169D1*
X22116Y17919D1*
X21989Y17808D1*
X22293Y17461D1*
X22443Y17182D1*
X22538Y16879D1*
X22575Y16531D1*
X22545Y16215D1*
X22456Y15911D1*
X22311Y15629D1*
X22116Y15379D1*
X21877Y15171D1*
X21603Y15011D1*
X21303Y14906D1*
X20990Y14860D1*
X20673Y14873D1*
X20365Y14946D1*
X20075Y15076D1*
X19816Y15258D1*
X19630Y15450D1*
X19337Y15171D1*
X19063Y15011D1*
X18763Y14906D1*
X18450Y14860D1*
X18133Y14873D1*
X17825Y14946D1*
X17535Y15076D1*
X17276Y15258D1*
X17055Y15486D1*
X16882Y15751D1*
X16761Y16045D1*
X16698Y16355D1*
X16695Y16672D1*
X16752Y16984D1*
X16866Y17280D1*
X17035Y17549D1*
X17274Y17798D1*
X17055Y18026D1*
X16882Y18291D1*
X16761Y18585D1*
X16698Y18895D1*
X16695Y19212D1*
X16752Y19524D1*
X16866Y19820D1*
X17035Y20089D1*
X17274Y20338D1*
X17055Y20566D1*
X16882Y20831D1*
X16761Y21125D1*
X16698Y21435D1*
X16695Y21752D1*
X16752Y22064D1*
X16866Y22360D1*
X17035Y22629D1*
X17274Y22878D1*
X17055Y23106D1*
X16882Y23371D1*
X16761Y23665D1*
X16698Y23975D1*
X16695Y24292D1*
X16752Y24604D1*
X16866Y24900D1*
X17035Y25169D1*
X17250Y25401D1*
X17533Y25601D1*
X17531Y25929D1*
X17585Y26240D1*
X17773Y26551D1*
X22371Y31146D1*
X22197Y31311D1*
X21908Y31441D1*
X21649Y31623D1*
X21463Y31815D1*
X21170Y31535D1*
X20896Y31376D1*
X20596Y31271D1*
X20283Y31224D1*
X19966Y31238D1*
X19657Y31311D1*
X19368Y31441D1*
X19109Y31623D1*
X18923Y31815D1*
X18778Y31655D1*
X18524Y31465D1*
X18238Y31327D1*
X17932Y31245D1*
X17616Y31223D1*
X17301Y31260D1*
X16999Y31356D1*
X16720Y31508D1*
X16475Y31709D1*
X16273Y31953D1*
X16120Y32230D1*
X16022Y32532D1*
X15983Y32846D1*
X16004Y33163D1*
X16084Y33469D1*
X16220Y33756D1*
X16409Y34011D1*
X16641Y34226D1*
X16911Y34393D1*
X17207Y34507D1*
X17501Y34561D1*
X17324Y34949D1*
X17261Y35260D1*
X17258Y35577D1*
X17292Y35762D1*
X13827Y39227D1*
X13646Y39486D1*
X13558Y39838D1*
X13557Y49147D1*
X13611Y49458D1*
X13798Y49769D1*
X16585Y52557D1*
X16601Y52933D1*
X16691Y53237D1*
X16845Y53514D1*
X17057Y53750D1*
X17315Y53934D1*
X17607Y54056D1*
X17919Y54112D1*
X18235Y54098D1*
X18541Y54014D1*
X18821Y53866D1*
X19062Y53660D1*
X19251Y53406D1*
X19380Y53116D1*
X19448Y52680D1*
X19413Y52365D1*
X19310Y52066D1*
X19143Y51796D1*
X18922Y51569D1*
X18656Y51397D1*
X18359Y51287D1*
X18044Y51245D1*
X17897Y51259D1*
X15403Y48765D1*
Y40267D1*
X18591Y37074D1*
X18979Y37107D1*
X19294Y37067D1*
X19595Y36968D1*
X19872Y36814D1*
X20115Y36611D1*
X20197Y36511D1*
X20353Y36685D1*
X20609Y36872D1*
X20896Y37008D1*
X21203Y37087D1*
X21519Y37107D1*
X21804Y37071D1*
X22717Y37993D1*
X22976Y38174D1*
X23328Y38262D1*
X23618Y38263D1*
X26952Y41592D1*
X19114Y41597D1*
X18922Y41409D1*
X18656Y41237D1*
X18359Y41127D1*
X18044Y41085D1*
X17729Y41114D1*
X17427Y41210D1*
X17154Y41371D1*
X16923Y41587D1*
X16745Y41849D1*
X16628Y42144D1*
X16580Y42457D1*
X16601Y42773D1*
X16691Y43077D1*
X16845Y43354D1*
X17057Y43590D1*
X17315Y43774D1*
X17607Y43896D1*
X17919Y43952D1*
X18235Y43938D1*
X18541Y43854D1*
X18821Y43706D1*
X19103Y43444D1*
X23520Y43443D1*
X22979Y43681D1*
X22442Y44018D1*
X21959Y44430D1*
X21543Y44908D1*
X21200Y45443D1*
X20940Y46021D1*
X20767Y46632D1*
X20686Y47261D1*
X20697Y47895D1*
X20802Y48521D1*
X20996Y49125D1*
X21277Y49694D1*
X21639Y50215D1*
X22072Y50678D1*
X22569Y51072D1*
X23119Y51390D1*
X23709Y51623D1*
X24326Y51768D1*
X24959Y51821D1*
X25592Y51780D1*
X26212Y51647D1*
X26316Y51613D1*
X26257Y51945D1*
Y55368D1*
X25693Y55937D1*
X25408Y55710D1*
X25119Y55579D1*
X24809Y55512D1*
X24492Y55509D1*
X24182Y55573D1*
X23891Y55699D1*
X23633Y55883D1*
X23373Y56192D1*
X23214Y55986D1*
X22975Y55778D1*
X22698Y55624D1*
X22395Y55531D1*
X22079Y55502D1*
X21764Y55540D1*
X21464Y55641D1*
X21192Y55803D1*
X20958Y56017D1*
X20774Y56275D1*
X20648Y56566D1*
X20584Y56876D1*
X20586Y57193D1*
X20654Y57503D1*
X20784Y57792D1*
X20971Y58048D1*
X21208Y58259D1*
X21482Y58417D1*
X21784Y58515D1*
X22099Y58548D1*
X22414Y58515D1*
X22716Y58418D1*
X22991Y58260D1*
X23227Y58049D1*
X23369Y57866D1*
X23601Y58138D1*
X23853Y58329D1*
X24140Y58464D1*
X24449Y58536D1*
X24766Y58543D1*
X25077Y58484D1*
X25370Y58362D1*
X25631Y58182D1*
X25854Y57943D1*
X26221Y57894D1*
X26532Y57707D1*
X27117Y57123D1*
X27138Y57378D1*
X27228Y57682D1*
X27382Y57959D1*
X27594Y58195D1*
X27852Y58379D1*
X28144Y58501D1*
X28456Y58557D1*
X28772Y58543D1*
X29078Y58459D1*
X29358Y58311D1*
X29598Y58105D1*
X29788Y57851D1*
X29917Y57561D1*
X29985Y57125D1*
X29950Y56810D1*
X29847Y56511D1*
X29680Y56241D1*
X29479Y56036D1*
X29473Y53067D1*
X34107Y48429D1*
X41033Y48423D1*
X51945D1*
X52256Y48369D1*
X52567Y48182D1*
X58596Y42154D1*
X58984Y42187D1*
X59299Y42147D1*
X59600Y42048D1*
X59877Y41894D1*
X60120Y41691D1*
X60202Y41591D1*
X60358Y41765D1*
X60614Y41952D1*
X60901Y42088D1*
X61208Y42167D1*
X61524Y42187D1*
X61839Y42147D1*
X62140Y42048D1*
X62417Y41894D1*
X62660Y41691D1*
X62861Y41445D1*
X63011Y41166D1*
X63106Y40864D1*
X63143Y40515D1*
X63110Y40190D1*
X65490Y37800D1*
X72457Y30833D1*
X72917Y30840D1*
X73227Y30773D1*
X73520Y30652D1*
X73787Y30480D1*
X74019Y30264D1*
X74209Y30010D1*
X74351Y29727D1*
X74440Y29422D1*
X74473Y29080D1*
X74445Y28764D1*
X74360Y28458D1*
X74223Y28173D1*
X74037Y27916D1*
X73808Y27696D1*
X73544Y27521D1*
X73253Y27396D1*
X72944Y27324D1*
X72627Y27309D1*
X72313Y27350D1*
X72011Y27446D1*
X71731Y27595D1*
X71482Y27792D1*
X71272Y28029D1*
X71108Y28300D1*
X70994Y28596D1*
X70935Y28908D1*
X70933Y29225D1*
X70987Y29538D1*
X71031Y29659D1*
X69129Y31551D1*
X66007Y34673D1*
X66000Y32057D1*
X65600Y32042D1*
Y27280D1*
X65566Y27002D1*
X65533Y26798D1*
Y25857D1*
X62687D1*
Y28703D1*
X63005D1*
X62031Y27217D2*
X61982Y26904D1*
X61865Y26609D1*
X61685Y26348D1*
X61452Y26133D1*
X61178Y25975D1*
X60875Y25882D1*
X60559Y25858D1*
X60246Y25905D1*
X59950Y26019D1*
X59688Y26196D1*
X59471Y26427D1*
X59310Y26701D1*
X59214Y27003D1*
X59188Y27318D1*
X59231Y27632D1*
X59343Y27928D1*
X59518Y28193D1*
X59747Y28412D1*
X60019Y28574D1*
X60320Y28673D1*
X60636Y28703D1*
X60950Y28662D1*
X61247Y28552D1*
X61513Y28380D1*
X61734Y28153D1*
X61899Y27882D1*
X62000Y27582D1*
X62033Y27280D1*
X62031Y27217D1*
X54918Y33315D2*
X54824Y33012D1*
X54671Y32735D1*
X54465Y32494D1*
X54215Y32299D1*
X53931Y32158D1*
X53625Y32077D1*
X53308Y32059D1*
X52995Y32104D1*
X52697Y32212D1*
X52426Y32377D1*
X52194Y32594D1*
X52011Y32852D1*
X51882Y33142D1*
X51815Y33451D1*
X51811Y33768D1*
X51870Y34080D1*
X51991Y34373D1*
X52168Y34636D1*
X52394Y34858D1*
X52660Y35030D1*
X52956Y35145D1*
X53268Y35199D1*
X53585Y35189D1*
X53893Y35116D1*
X54181Y34982D1*
X54435Y34794D1*
X54647Y34558D1*
X54808Y34285D1*
X54910Y33985D1*
X54950Y33630D1*
X54918Y33315D1*
X54500Y71615D2*
X57328D1*
Y68470D1*
X54182D1*
Y71615D1*
X54500D1*
X57296Y80777D2*
X57201Y80475D1*
X57048Y80197D1*
X56842Y79956D1*
X56593Y79761D1*
X56309Y79620D1*
X56002Y79539D1*
X55686Y79521D1*
X55372Y79567D1*
X55074Y79675D1*
X54804Y79840D1*
X54572Y80056D1*
X54388Y80314D1*
X54260Y80604D1*
X54192Y80914D1*
X54188Y81231D1*
X54248Y81542D1*
X54369Y81835D1*
X54546Y82098D1*
X54772Y82320D1*
X55038Y82492D1*
X55333Y82608D1*
X55645Y82662D1*
X55962Y82652D1*
X56271Y82578D1*
X56558Y82445D1*
X56813Y82256D1*
X57025Y82021D1*
X57185Y81747D1*
X57287Y81447D1*
X57328Y81092D1*
X57296Y80777D1*
X75555Y43458D2*
X78383D1*
Y40312D1*
X75237D1*
X75223Y40712D1*
X67920D1*
X67606Y40755D1*
X67237Y40931D1*
X66642Y41505D1*
X56742Y51404D1*
X36270Y51407D1*
X35956Y51450D1*
X35587Y51626D1*
X34992Y52200D1*
X33034Y54157D1*
X32703Y54301D1*
X32444Y54483D1*
X32223Y54710D1*
X32050Y54976D1*
X31929Y55269D1*
X31866Y55580D1*
X31863Y55897D1*
X31920Y56209D1*
X32034Y56504D1*
X32203Y56773D1*
X32418Y57005D1*
X32674Y57192D1*
X32961Y57328D1*
X33268Y57407D1*
X33584Y57427D1*
X33899Y57387D1*
X34200Y57288D1*
X34477Y57134D1*
X34720Y56931D1*
X34802Y56831D1*
X34912Y56962D1*
X35160Y57159D1*
X35441Y57305D1*
X35745Y57396D1*
X36061Y57428D1*
X36376Y57400D1*
X36681Y57312D1*
X36964Y57169D1*
X37215Y56975D1*
X37339Y56844D1*
X37498Y57005D1*
X37754Y57192D1*
X38041Y57328D1*
X38348Y57407D1*
X38664Y57427D1*
X38979Y57387D1*
X39280Y57288D1*
X39557Y57134D1*
X39800Y56931D1*
X39882Y56831D1*
X40038Y57005D1*
X40222Y57140D1*
X40227Y59248D1*
X40281Y59559D1*
X40468Y59870D1*
X42402Y61805D1*
X42661Y61987D1*
X43013Y62074D1*
X51876Y62075D1*
X52417Y62612D1*
X52438Y62993D1*
X52528Y63297D1*
X52682Y63574D1*
X52894Y63810D1*
X53152Y63994D1*
X53444Y64116D1*
X53756Y64172D1*
X54072Y64158D1*
X54378Y64074D1*
X54658Y63926D1*
X54898Y63720D1*
X55088Y63466D1*
X55217Y63176D1*
X55285Y62740D1*
X55250Y62425D1*
X55147Y62126D1*
X54980Y61856D1*
X54759Y61629D1*
X54493Y61457D1*
X54196Y61347D1*
X53881Y61305D1*
X53733Y61319D1*
X52915Y60500D1*
X52647Y60315D1*
X52919Y59960D1*
X53061Y59677D1*
X53150Y59372D1*
X53183Y59030D1*
X53155Y58714D1*
X53070Y58408D1*
X52933Y58123D1*
X52747Y57866D1*
X52518Y57646D1*
X52254Y57471D1*
X51876Y57325D1*
X52257Y57134D1*
X52500Y56931D1*
X52582Y56831D1*
X52738Y57005D1*
X52994Y57192D1*
X53281Y57328D1*
X53588Y57407D1*
X53904Y57427D1*
X54219Y57387D1*
X54520Y57288D1*
X54797Y57134D1*
X55040Y56931D1*
X55122Y56831D1*
X55278Y57005D1*
X55534Y57192D1*
X55821Y57328D1*
X56128Y57407D1*
X56444Y57427D1*
X56759Y57387D1*
X57060Y57288D1*
X57337Y57134D1*
X57580Y56931D1*
X57662Y56831D1*
X57818Y57005D1*
X58074Y57192D1*
X58361Y57328D1*
X58668Y57407D1*
X58984Y57427D1*
X59299Y57387D1*
X59600Y57288D1*
X59877Y57134D1*
X60120Y56931D1*
X60202Y56831D1*
X60358Y57005D1*
X60614Y57192D1*
X60901Y57328D1*
X61208Y57407D1*
X61524Y57427D1*
X61839Y57387D1*
X62140Y57288D1*
X62417Y57134D1*
X62660Y56931D1*
X62865Y56676D1*
X65429Y56678D1*
X65393Y56834D1*
X65384Y57150D1*
X65460Y57457D1*
X65615Y57733D1*
X65838Y57957D1*
X66114Y58114D1*
X66411Y58188D1*
X69440Y61221D1*
X69437Y80431D1*
X69304Y80387D1*
X69051Y80368D1*
X68800Y80404D1*
X68563Y80495D1*
X68444Y80551D1*
X68217Y80438D1*
X67971Y80377D1*
X67718Y80372D1*
X67469Y80422D1*
X67238Y80526D1*
X67035Y80678D1*
X66870Y80870D1*
X66752Y81095D1*
X66686Y81339D1*
X66672Y81642D1*
X66681Y82207D1*
X66740Y82453D1*
X66851Y82681D1*
X67010Y82878D1*
X67208Y83036D1*
X67437Y83147D1*
X67683Y83205D1*
X67937Y83207D1*
X68185Y83153D1*
X68415Y83047D1*
X68456Y83020D1*
X68647Y83124D1*
X68891Y83195D1*
X69144Y83212D1*
X69394Y83172D1*
X69629Y83078D1*
X69726Y83020D1*
X70037Y83166D1*
X70350Y83213D1*
X70664Y83172D1*
X70993Y83016D1*
X71307Y83166D1*
X71620Y83213D1*
X71934Y83172D1*
X72263Y83016D1*
X72577Y83166D1*
X72890Y83213D1*
X73204Y83172D1*
X73533Y83016D1*
X73847Y83166D1*
X74160Y83213D1*
X74474Y83172D1*
X74803Y83016D1*
X75117Y83166D1*
X75430Y83213D1*
X75744Y83172D1*
X76073Y83016D1*
X76387Y83166D1*
X76700Y83213D1*
X77014Y83172D1*
X77343Y83016D1*
X77657Y83167D1*
X77970Y83213D1*
X78284Y83172D1*
X78613Y83016D1*
X78927Y83166D1*
X79240Y83213D1*
X79554Y83172D1*
X79883Y83016D1*
X80197Y83166D1*
X80510Y83213D1*
X80824Y83172D1*
X81153Y83016D1*
X81467Y83166D1*
X81780Y83213D1*
X82094Y83172D1*
X82385Y83047D1*
X82630Y82847D1*
X82812Y82588D1*
X82916Y82289D1*
X82937Y82065D1*
X82928Y81515D1*
X82894Y81201D1*
X82766Y80912D1*
X82564Y80668D1*
X82304Y80488D1*
X82004Y80387D1*
X81688Y80372D1*
X81379Y80443D1*
X81163Y80563D1*
X81034Y80488D1*
X80734Y80387D1*
X80418Y80372D1*
X80109Y80443D1*
X79893Y80563D1*
X79764Y80488D1*
X79464Y80387D1*
X79148Y80372D1*
X78839Y80443D1*
X78623Y80563D1*
X78494Y80489D1*
X78194Y80387D1*
X77878Y80372D1*
X77637Y80428D1*
X77579Y80209D1*
X77392Y79898D1*
X75096Y77601D1*
X75093Y58930D1*
X75039Y58619D1*
X74852Y58308D1*
X68473Y51927D1*
X68214Y51746D1*
X67862Y51658D1*
X59813Y51657D1*
X65014Y46450D1*
X66508Y44955D1*
X66200Y45443D1*
X65940Y46021D1*
X65767Y46632D1*
X65686Y47261D1*
X65697Y47895D1*
X65802Y48521D1*
X65996Y49125D1*
X66277Y49694D1*
X66639Y50215D1*
X67072Y50678D1*
X67569Y51072D1*
X68119Y51390D1*
X68709Y51623D1*
X69326Y51768D1*
X69959Y51821D1*
X70592Y51780D1*
X71212Y51647D1*
X71806Y51425D1*
X72362Y51118D1*
X72866Y50734D1*
X73309Y50279D1*
X73680Y49765D1*
X73972Y49201D1*
X74178Y48601D1*
X74294Y47978D1*
X74321Y47500D1*
X74274Y46867D1*
X74136Y46248D1*
X73908Y45656D1*
X73596Y45104D1*
X73206Y44603D1*
X72747Y44165D1*
X72229Y43799D1*
X71663Y43512D1*
X71061Y43312D1*
X70436Y43201D1*
X69802Y43184D1*
X69172Y43259D1*
X68560Y43426D1*
X67979Y43681D1*
X67450Y44012D1*
X68403Y43061D1*
X75232Y43058D1*
X75237Y43458D1*
X75555D1*
X78351Y52620D2*
X78256Y52317D1*
X78103Y52040D1*
X77897Y51799D1*
X77648Y51604D1*
X77364Y51463D1*
X77057Y51382D1*
X76741Y51364D1*
X76427Y51409D1*
X76129Y51517D1*
X75859Y51682D1*
X75627Y51899D1*
X75443Y52157D1*
X75315Y52447D1*
X75247Y52756D1*
X75243Y53073D1*
X75303Y53385D1*
X75424Y53678D1*
X75601Y53941D1*
X75827Y54163D1*
X76093Y54335D1*
X76388Y54450D1*
X76700Y54504D1*
X77017Y54494D1*
X77326Y54421D1*
X77613Y54287D1*
X77868Y54099D1*
X78080Y53863D1*
X78240Y53590D1*
X78342Y53290D1*
X78383Y52935D1*
X78351Y52620D1*
X35243Y17284D2*
X35154Y16980D1*
X35009Y16698D1*
X34814Y16449D1*
X34687Y16338D1*
X34991Y15990D1*
X35141Y15711D1*
X35236Y15409D1*
X35273Y15060D1*
X35243Y14744D1*
X35154Y14440D1*
X35009Y14158D1*
X34814Y13909D1*
X34575Y13700D1*
X34301Y13541D1*
X34001Y13436D1*
X33688Y13389D1*
X33371Y13403D1*
X33062Y13476D1*
X32773Y13606D1*
X32514Y13788D1*
X32293Y14015D1*
X32120Y14281D1*
X31999Y14574D1*
X31936Y14885D1*
X31933Y15202D1*
X31990Y15514D1*
X32104Y15809D1*
X32273Y16078D1*
X32512Y16328D1*
X32293Y16555D1*
X32120Y16821D1*
X31999Y17114D1*
X31936Y17425D1*
X31933Y17742D1*
X31990Y18054D1*
X32104Y18349D1*
X32273Y18618D1*
X32488Y18850D1*
X32744Y19037D1*
X33031Y19173D1*
X33338Y19252D1*
X33654Y19272D1*
X33969Y19232D1*
X34270Y19133D1*
X34547Y18979D1*
X34790Y18776D1*
X34991Y18530D1*
X35141Y18251D1*
X35236Y17949D1*
X35273Y17600D1*
X35243Y17284D1*
X14855Y67723D2*
X14561Y67444D1*
X14287Y67285D1*
X13987Y67180D1*
X13674Y67133D1*
X13357Y67147D1*
X13048Y67220D1*
X12759Y67350D1*
X12500Y67532D1*
X12279Y67759D1*
X12106Y68025D1*
X11985Y68318D1*
X11922Y68629D1*
X11919Y68946D1*
X11976Y69258D1*
X12090Y69553D1*
X12259Y69822D1*
X12474Y70054D1*
X12730Y70241D1*
X13017Y70377D1*
X13324Y70456D1*
X13640Y70476D1*
X13955Y70436D1*
X14256Y70337D1*
X14533Y70183D1*
X14776Y69980D1*
X14858Y69880D1*
X15014Y70054D1*
X15270Y70241D1*
X15557Y70377D1*
X15864Y70456D1*
X16180Y70476D1*
X16495Y70436D1*
X16796Y70337D1*
X17073Y70183D1*
X17316Y69980D1*
X17398Y69880D1*
X17508Y70011D1*
X17756Y70208D1*
X18037Y70354D1*
X18341Y70445D1*
X18657Y70477D1*
X18972Y70449D1*
X19277Y70361D1*
X19560Y70218D1*
X19811Y70024D1*
X20020Y69786D1*
X20181Y69513D1*
X20288Y69214D1*
X20336Y68901D1*
X20320Y68551D1*
X20242Y68244D1*
X20108Y67956D1*
X19922Y67699D1*
X19691Y67482D1*
X19424Y67313D1*
X19129Y67196D1*
X18817Y67138D1*
X18500Y67139D1*
X18189Y67201D1*
X17895Y67319D1*
X17629Y67491D1*
X17396Y67715D1*
X17101Y67444D1*
X16827Y67285D1*
X16527Y67180D1*
X16214Y67133D1*
X15897Y67147D1*
X15588Y67220D1*
X15299Y67350D1*
X15040Y67532D1*
X14854Y67724D1*
X67683Y62615D2*
X67594Y62311D1*
X67449Y62029D1*
X67254Y61780D1*
X67127Y61669D1*
X67356Y61424D1*
X67527Y61157D1*
X67645Y60863D1*
X67705Y60551D1*
X67702Y60201D1*
X67636Y59891D1*
X67513Y59599D1*
X67337Y59335D1*
X67115Y59109D1*
X66854Y58929D1*
X66563Y58802D1*
X66254Y58732D1*
X65937Y58721D1*
X65624Y58771D1*
X65326Y58878D1*
X65053Y59040D1*
X64816Y59250D1*
X64623Y59502D1*
X64481Y59785D1*
X64394Y60090D1*
X64367Y60406D1*
X64400Y60721D1*
X64492Y61025D1*
X64639Y61305D1*
X64837Y61553D1*
X64951Y61661D1*
X64733Y61886D1*
X64560Y62152D1*
X64439Y62445D1*
X64376Y62756D1*
X64373Y63073D1*
X64430Y63385D1*
X64544Y63680D1*
X64713Y63949D1*
X64928Y64181D1*
X65184Y64368D1*
X65471Y64504D1*
X65778Y64583D1*
X66094Y64603D1*
X66409Y64563D1*
X66710Y64464D1*
X66987Y64310D1*
X67230Y64107D1*
X67431Y63861D1*
X67581Y63582D1*
X67676Y63280D1*
X67713Y62931D1*
X67683Y62615D1*
X64700Y74489D2*
X64611Y74185D1*
X64466Y73903D1*
X64271Y73654D1*
X64032Y73445D1*
X63758Y73286D1*
X63459Y73181D1*
X63145Y73134D1*
X62829Y73148D1*
X62520Y73221D1*
X62231Y73351D1*
X61971Y73533D1*
X61751Y73760D1*
X61577Y74026D1*
X61457Y74319D1*
X61394Y74630D1*
X61391Y74947D1*
X61447Y75259D1*
X61562Y75554D1*
X61730Y75823D1*
X61970Y76073D1*
X61751Y76300D1*
X61577Y76566D1*
X61457Y76859D1*
X61394Y77170D1*
X61391Y77487D1*
X61447Y77799D1*
X61562Y78094D1*
X61730Y78363D1*
X61970Y78613D1*
X61751Y78840D1*
X61577Y79106D1*
X61457Y79399D1*
X61394Y79710D1*
X61391Y80027D1*
X61447Y80339D1*
X61562Y80634D1*
X61730Y80903D1*
X61946Y81135D1*
X62202Y81322D1*
X62488Y81458D1*
X62795Y81537D1*
X63112Y81557D1*
X63426Y81517D1*
X63727Y81418D1*
X64004Y81264D1*
X64248Y81061D1*
X64448Y80815D1*
X64599Y80536D1*
X64694Y80234D1*
X64730Y79885D1*
X64700Y79569D1*
X64611Y79265D1*
X64466Y78983D1*
X64271Y78734D1*
X64146Y78615D1*
X64448Y78275D1*
X64599Y77996D1*
X64694Y77694D1*
X64730Y77345D1*
X64700Y77029D1*
X64611Y76725D1*
X64466Y76443D1*
X64271Y76194D1*
X64144Y76083D1*
X64448Y75735D1*
X64599Y75456D1*
X64694Y75154D1*
X64730Y74805D1*
X64700Y74489D1*
X49778Y73537D2*
X49689Y73233D1*
X49544Y72951D1*
X49349Y72702D1*
X49222Y72591D1*
X49526Y72243D1*
X49676Y71964D1*
X49771Y71662D1*
X49808Y71313D1*
X49778Y70997D1*
X49689Y70693D1*
X49544Y70411D1*
X49349Y70162D1*
X49110Y69953D1*
X48836Y69794D1*
X48487Y69682D1*
X43934Y65135D1*
X43817Y64766D1*
X43650Y64496D1*
X43429Y64269D1*
X43163Y64097D1*
X42866Y63987D1*
X42551Y63945D1*
X42236Y63974D1*
X41934Y64070D1*
X41661Y64231D1*
X41430Y64447D1*
X41251Y64709D1*
X41135Y65004D1*
X41086Y65317D1*
X41108Y65633D1*
X41198Y65937D1*
X41352Y66214D1*
X41564Y66450D1*
X41822Y66634D1*
X42114Y66756D1*
X42260Y66782D1*
X46496Y71015D1*
X46471Y71138D1*
X46468Y71455D1*
X46525Y71767D1*
X46639Y72062D1*
X46808Y72331D1*
X47047Y72581D1*
X46828Y72808D1*
X46655Y73074D1*
X46534Y73367D1*
X46471Y73678D1*
X46468Y73995D1*
X46525Y74307D1*
X46639Y74602D1*
X46808Y74871D1*
X47023Y75103D1*
X47306Y75303D1*
X47312Y77753D1*
X36188Y66632D1*
X35929Y66451D1*
X35577Y66363D1*
X33408Y66360D1*
X33598Y66106D1*
X33727Y65816D1*
X33795Y65380D1*
X33760Y65065D1*
X33657Y64766D1*
X33490Y64496D1*
X33269Y64269D1*
X33003Y64097D1*
X32706Y63987D1*
X32391Y63945D1*
X32076Y63974D1*
X31774Y64070D1*
X31501Y64231D1*
X31264Y64455D1*
X26060Y64457D1*
X26063Y63222D1*
X23217D1*
Y63609D1*
X22868Y63330D1*
X22579Y63199D1*
X22269Y63132D1*
X21952Y63129D1*
X21642Y63193D1*
X21351Y63319D1*
X21093Y63503D1*
X20878Y63736D1*
X20717Y64008D1*
X20615Y64308D1*
X20577Y64623D1*
X20606Y64939D1*
X20699Y65242D1*
X20853Y65519D1*
X21061Y65758D1*
X21313Y65949D1*
X21600Y66084D1*
X21909Y66156D1*
X22226Y66163D1*
X22537Y66104D1*
X22830Y65982D1*
X23091Y65802D1*
X23220Y65665D1*
X23217Y66068D1*
X24755D1*
X24981Y66214D1*
X25333Y66302D1*
X27508Y66303D1*
X27281Y66614D1*
X27165Y66909D1*
X27116Y67222D1*
X27138Y67538D1*
X27228Y67842D1*
X27382Y68119D1*
X27594Y68355D1*
X27852Y68539D1*
X28144Y68661D1*
X28456Y68717D1*
X28772Y68703D1*
X29078Y68619D1*
X29358Y68471D1*
X29640Y68209D1*
X35148Y68208D1*
X45918Y78973D1*
X45712Y78947D1*
X45460Y78972D1*
X45219Y79051D1*
X45002Y79181D1*
X44819Y79357D1*
X44678Y79568D1*
X44588Y79805D1*
X44552Y80090D1*
X44563Y81306D1*
X44625Y81552D1*
X44740Y81778D1*
X44902Y81973D1*
X45103Y82127D1*
X45333Y82234D1*
X45580Y82287D1*
X45834Y82284D1*
X46080Y82226D1*
X46330Y82100D1*
X46663Y82252D1*
X46977Y82293D1*
X47290Y82246D1*
X47551Y82127D1*
X47694Y82227D1*
X47985Y82293D1*
X48485D1*
X48765Y82232D1*
X48965Y82091D1*
X49211Y81841D1*
X49342Y81650D1*
X49403Y81370D1*
Y79870D1*
X49323Y79557D1*
X49211Y79399D1*
X49154Y79341D1*
X49158Y75173D1*
X49325Y75029D1*
X49526Y74783D1*
X49676Y74504D1*
X49771Y74202D1*
X49808Y73853D1*
X49778Y73537D1*
X62434Y69609D2*
X62331Y69310D1*
X62164Y69040D1*
X61943Y68814D1*
X61677Y68641D1*
X61380Y68532D1*
X61066Y68490D1*
X60750Y68518D1*
X60448Y68614D1*
X60175Y68775D1*
X59944Y68991D1*
X59766Y69254D1*
X59649Y69548D1*
X59601Y69861D1*
X59622Y70177D1*
X59712Y70481D1*
X59866Y70758D1*
X60078Y70994D1*
X60336Y71178D1*
X60628Y71300D1*
X60940Y71356D1*
X61256Y71342D1*
X61562Y71258D1*
X61842Y71110D1*
X62083Y70904D1*
X62272Y70650D1*
X62401Y70360D1*
X62469Y69924D1*
X62434Y69609D1*
X74445Y23684D2*
X74360Y23378D1*
X74223Y23093D1*
X74037Y22836D1*
X73808Y22616D1*
X73544Y22441D1*
X73253Y22316D1*
X72944Y22244D1*
X72627Y22229D1*
X72313Y22270D1*
X72011Y22366D1*
X71731Y22515D1*
X71482Y22712D1*
X71272Y22949D1*
X71108Y23220D1*
X70994Y23516D1*
X70935Y23828D1*
X70933Y24145D1*
X70987Y24458D1*
X71096Y24755D1*
X71256Y25029D1*
X71463Y25270D1*
X71709Y25470D1*
X71986Y25623D1*
X72287Y25724D1*
X72600Y25770D1*
X72917Y25760D1*
X73227Y25693D1*
X73520Y25572D1*
X73787Y25400D1*
X74019Y25184D1*
X74209Y24930D1*
X74351Y24647D1*
X74440Y24342D1*
X74473Y24000D1*
X74445Y23684D1*
X74472Y34097D2*
X74432Y33782D1*
X74337Y33479D1*
X74190Y33199D1*
X73995Y32949D1*
X73758Y32737D1*
X73488Y32572D1*
X73192Y32457D1*
X72881Y32396D1*
X72564Y32392D1*
X72251Y32445D1*
X71953Y32552D1*
X71678Y32711D1*
X71437Y32916D1*
X71235Y33161D1*
X71081Y33438D1*
X70978Y33738D1*
X70930Y34051D1*
X70939Y34368D1*
X71005Y34679D1*
X71124Y34972D1*
X71294Y35240D1*
X71509Y35473D1*
X71762Y35664D1*
X72045Y35807D1*
X72349Y35898D1*
X72664Y35933D1*
X72980Y35911D1*
X73288Y35833D1*
X73576Y35701D1*
X73837Y35521D1*
X74061Y35296D1*
X74242Y35036D1*
X74373Y34747D1*
X74451Y34440D1*
X74472Y34097D1*
X41108Y31383D2*
X41003Y30757D1*
X40796Y30158D1*
X40492Y29601D1*
X40101Y29102D1*
X39633Y28674D1*
X39100Y28330D1*
X38518Y28078D1*
X37902Y27927D1*
X37269Y27879D1*
X36638Y27937D1*
X36024Y28098D1*
X35446Y28359D1*
X34919Y28712D1*
X34457Y29147D1*
X34074Y29652D1*
X33780Y30214D1*
X33583Y30817D1*
X33488Y31444D1*
X33498Y32078D1*
X33613Y32702D1*
X33830Y33298D1*
X34142Y33850D1*
X34541Y34343D1*
X35016Y34763D1*
X35554Y35099D1*
X36141Y35341D1*
X36759Y35482D1*
X37392Y35520D1*
X38023Y35452D1*
X38634Y35281D1*
X39208Y35011D1*
X39729Y34649D1*
X40183Y34207D1*
X40558Y33695D1*
X40844Y33129D1*
X41031Y32523D1*
X41116Y31894D1*
X41108Y31383D1*
X76508Y16183D2*
X76403Y15557D1*
X76196Y14958D1*
X75892Y14401D1*
X75501Y13902D1*
X75033Y13474D1*
X74500Y13130D1*
X73918Y12878D1*
X73302Y12727D1*
X72669Y12679D1*
X72038Y12737D1*
X71424Y12898D1*
X70846Y13159D1*
X70319Y13512D1*
X69857Y13947D1*
X69474Y14452D1*
X69180Y15014D1*
X68983Y15617D1*
X68888Y16244D1*
X68898Y16878D1*
X69013Y17502D1*
X69230Y18098D1*
X69542Y18650D1*
X69941Y19143D1*
X70416Y19563D1*
X70954Y19899D1*
X71541Y20141D1*
X72159Y20282D1*
X72792Y20320D1*
X73423Y20252D1*
X74034Y20081D1*
X74608Y19811D1*
X75129Y19449D1*
X75583Y19007D1*
X75958Y18495D1*
X76244Y17929D1*
X76431Y17323D1*
X76516Y16694D1*
X76508Y16183D1*
X10953Y83730D2*
Y10953D1*
X84047D1*
Y84047D1*
X10953D1*
Y83730D1*
X59605Y28285D2*
D18*
X61615Y26275D1*
Y28285D2*
X59605Y26275D1*
X17484Y69986D2*
X19848Y67622D1*
Y69986D2*
X17484Y67622D1*
X16473Y34077D2*
X18837Y31713D1*
X17655Y32895D2*
X16473Y31713D1*
X64858Y61573D2*
X67222Y59209D1*
Y61573D2*
X64858Y59209D1*
X61875Y81067D2*
X64240Y78703D1*
Y81067D2*
X61875Y78703D1*
X45695Y82292D2*
Y78948D1*
X44553Y80620D2*
X45695D1*
X71447Y35413D2*
X73953Y32907D1*
Y35413D2*
X71447Y32907D1*
X67820Y83212D2*
Y80368D1*
X66674Y81790D2*
X67820D1*
X69090Y83212D2*
Y80368D1*
X34888Y56937D2*
X36070Y55755D1*
X37252Y56937D2*
X36070Y55755D1*
X41150Y40515D2*
X42332Y39333D1*
X41150Y40515D2*
X39968Y39333D1*
X21024Y58101D2*
X23176Y55949D1*
Y58101D2*
X21024Y55949D1*
X19720Y25333D2*
X22084Y22968D1*
Y25333D2*
X20902Y24151D1*
D20*
X64110Y27280D3*
D21*
X60610D3*
D23*
X64427Y33630D3*
D24*
X53377D3*
D23*
X55755Y70043D3*
D24*
Y81092D3*
D23*
X76810Y41885D3*
D24*
Y52935D3*
D26*
X33600Y17600D3*
Y15060D3*
X13586Y68804D3*
X16126D3*
X18666D3*
D27*
X24005Y35435D3*
X22735Y32895D3*
X21465Y35435D3*
X20195Y32895D3*
X18925Y35435D3*
X17655Y32895D3*
D26*
X66040Y62931D3*
Y60391D3*
X63058Y74805D3*
Y77345D3*
Y79885D3*
X48135Y73853D3*
Y71313D3*
D29*
X51410Y59030D3*
X48870D3*
X46330D3*
X43790D3*
G36*
X48730Y81370D2*
X48485Y81620D1*
X47985D1*
X47740Y81370D1*
Y79870D1*
X47985Y79620D1*
X48485D1*
X48730Y79870D1*
Y81370D1*
G37*
D30*
X46965Y80620D3*
X45695D3*
D32*
X28550Y67285D3*
D33*
Y57125D3*
D32*
X42520Y65380D3*
D33*
X32360D3*
D32*
X18013Y42520D3*
D33*
Y52680D3*
D32*
X53850Y62740D3*
D33*
X61034Y69924D3*
D36*
X72700Y24000D3*
Y29080D3*
Y34160D3*
D37*
X67820Y81790D3*
X69090D3*
X70360D3*
X71630D3*
X72900D3*
X74170D3*
X75440D3*
X76710D3*
X77980D3*
X79250D3*
X80520D3*
X81790D3*
D27*
X61470Y55755D3*
X58930D3*
X56390D3*
X53850D3*
X51310D3*
X48770D3*
X46230D3*
X43690D3*
X41150D3*
X38610D3*
X36070D3*
X33530D3*
Y40515D3*
X36070D3*
X38610D3*
X41150D3*
X43690D3*
X46230D3*
X48770D3*
X51310D3*
X53850D3*
X56390D3*
X58930D3*
X61470D3*
D20*
X24640Y64645D3*
D38*
X22100D3*
Y57025D3*
X24640D3*
D26*
X18362Y24151D3*
Y21611D3*
Y19071D3*
Y16531D3*
X20902D3*
Y19071D3*
Y21611D3*
Y24151D3*
M02*
