M48
METRIC,0000.00
T01C0.5
T02C0.6
T03C0.8
T04C0.9
T05C0.965
T06C1.0
T07C1.2
T08C1.5
T09C4.0
%
T01
X+002147Y+003893
X+002897Y+002699
X+005352Y+003589
X+006084Y+004432
X+006655Y+005702
X+007798Y+005956
T02
X+004824Y+008062
X+004697Y+008062
X+004570Y+008062
X+006782Y+008179
X+006909Y+008179
X+007036Y+008179
X+007163Y+008179
X+007290Y+008179
X+007417Y+008179
X+007544Y+008179
X+007671Y+008179
X+007798Y+008179
X+007925Y+008179
X+008052Y+008179
X+008179Y+008179
T03
X+002400Y+003544
X+002147Y+003544
X+001893Y+003544
X+002020Y+003290
X+001766Y+003290
X+002274Y+003290
T04
X+006411Y+002728
X+006061Y+002728
X+002464Y+005702
X+002210Y+005702
X+002210Y+006464
X+002464Y+006464
T05
X+002855Y+006729
X+003236Y+006538
X+002855Y+005712
X+001801Y+005268
X+001801Y+004252
X+004252Y+006538
X+005385Y+006274
X+006103Y+006992
T06
X+006147Y+005575
X+005893Y+005575
X+005639Y+005575
X+005385Y+005575
X+005131Y+005575
X+004877Y+005575
X+004623Y+005575
X+004369Y+005575
X+004115Y+005575
X+003861Y+005575
X+003607Y+005575
X+003353Y+005575
X+003353Y+004052
X+003607Y+004052
X+003861Y+004052
X+004115Y+004052
X+004369Y+004052
X+004623Y+004052
X+004877Y+004052
X+005131Y+004052
X+005385Y+004052
X+005639Y+004052
X+005893Y+004052
X+006147Y+004052
X+002090Y+002415
X+001836Y+002415
X+001836Y+002161
X+002090Y+002161
X+002090Y+001907
X+002090Y+001653
X+001836Y+001653
X+001836Y+001907
T07
X+006443Y+003363
X+007270Y+003416
X+007270Y+002908
X+007270Y+002400
X+007681Y+004188
X+007681Y+005294
X+006604Y+006039
X+006604Y+006293
X+006306Y+007480
X+006306Y+007734
X+006306Y+007989
X+005575Y+008109
X+004813Y+007385
X+004813Y+007131
X+005575Y+007004
X+005141Y+005903
X+004887Y+005903
X+004633Y+005903
X+004379Y+005903
X+001867Y+006880
X+001613Y+006880
X+001359Y+006880
X+005338Y+003363
X+003360Y+001760
X+003360Y+001506
T08
X+002541Y+003363
T09
X+002500Y+004750
X+003730Y+003170
X+007000Y+004750
X+007270Y+001650
T00
M30
