G04 DipTrace 2.4.0.2*
%INTop.gtl*%
%MOMM*%
%ADD14C,1.0*%
%ADD16C,0.5*%
%ADD17C,0.635*%
%ADD18C,0.33*%
%ADD20R,1.5X1.5*%
%ADD21C,1.5*%
%ADD22R,2.7X1.6*%
%ADD23R,1.8X1.8*%
%ADD24C,1.8*%
%ADD25R,3.81X3.33*%
%ADD26C,2.0*%
%ADD27C,2.0*%
%ADD28R,3.2X5.4*%
%ADD29C,2.2*%
%ADD30O,0.94X2.0*%
%ADD31R,1.8X1.6*%
%ADD32C,1.524*%
%ADD33C,1.524*%
%ADD35R,1.5X1.0*%
%ADD36C,2.2*%
%ADD37O,0.949X1.5*%
%ADD38C,1.7*%
%FSLAX53Y53*%
G04*
G71*
G90*
G75*
G01*
%LNTop*%
%LPD*%
X66650Y20295D2*
D14*
X63475D1*
X76810Y41885D2*
Y27915D1*
X72895Y24000D1*
X72700D1*
X42520Y65380D2*
Y65309D1*
X39802Y62591D1*
X32172D1*
Y57113D1*
X33530Y55755D1*
X13586Y68804D2*
Y67239D1*
X18233Y62591D1*
X32172D1*
X72700Y24000D2*
X70200D1*
X66920Y27280D1*
X64110D1*
X60090Y20295D2*
X63475D1*
X64110Y27280D2*
Y25610D1*
X60100Y21600D1*
Y20305D1*
X60090Y20295D1*
X48135Y71313D2*
X49405Y70043D1*
X55755D1*
X33600Y15060D2*
D16*
X32640D1*
X31600Y16100D1*
Y18600D1*
X33600Y20600D1*
X38600D1*
X39100D1*
X41970Y23470D1*
X43115D1*
X38600Y18900D2*
Y20600D1*
X66040Y62931D2*
D14*
X66126Y62845D1*
X72900D1*
X43690Y40515D2*
D16*
X45595Y42420D1*
X54485D1*
X66550Y54485D1*
Y57025D1*
X46230Y40515D2*
X43055Y37340D1*
X34165D1*
X27815Y30990D1*
X22100D1*
X20195Y32895D1*
X61470Y40515D2*
X59448Y38493D1*
X52789D1*
X47892Y33596D1*
Y20760D1*
X51533Y17120D1*
X56490D1*
Y17295D1*
X56390Y55755D2*
Y59565D1*
X75440Y78615D1*
Y81790D1*
X53850Y55755D2*
Y58930D1*
X72900Y77980D1*
Y81790D1*
X76810Y52935D2*
D14*
X72900Y56845D1*
Y57025D1*
X16126Y68804D2*
D16*
Y66809D1*
X18290Y64645D1*
X22100D1*
X66650Y17495D2*
D14*
X63475D1*
X60090Y17295D2*
X63275D1*
X63475Y17495D1*
X38600Y16100D2*
X35600D1*
X34100Y17600D1*
X33600D1*
X38600Y16100D2*
X40600Y14100D1*
X58100D1*
X60090Y16090D1*
Y17295D1*
X48235Y80620D2*
D16*
X48708Y81093D1*
X55755D1*
X56490Y20295D2*
Y20914D1*
X55340Y22064D1*
X53315D1*
Y23470D1*
Y33630D1*
X53377D1*
X33530Y40515D2*
X16215D1*
X13884Y38184D1*
Y17816D1*
X17120Y14580D1*
X20295D1*
X20902Y15187D1*
Y16531D1*
X51410Y59030D2*
D14*
Y55755D1*
X51310D1*
X51410Y59030D2*
D16*
X51310D1*
Y62422D1*
X53532Y64645D1*
X55755D1*
X61034Y69924D1*
X63058Y71948D1*
Y74805D1*
X48870Y59030D2*
D14*
Y55755D1*
X48770D1*
X46330Y59030D2*
Y55755D1*
X46230D1*
X43790Y59030D2*
Y55755D1*
X43690D1*
X18013Y52680D2*
D16*
X38075D1*
X41150Y55755D1*
X18362Y16531D2*
X16874D1*
X15115Y18290D1*
Y33530D1*
X17020Y35435D1*
X18925D1*
X53850Y62740D2*
X56072D1*
X65280Y71948D1*
Y76710D1*
X64645Y77345D1*
X63058D1*
D14*
X66550Y57025D3*
X21465Y38928D3*
X60835Y44325D3*
X53522Y35890D3*
X28968Y26994D3*
X77980Y59565D3*
X11016Y83416D2*
D17*
X83988D1*
X11016Y82784D2*
X66863D1*
X82746D2*
X83988D1*
X11016Y82152D2*
X45085D1*
X48962D2*
X54530D1*
X56979D2*
X66615D1*
X82994D2*
X83988D1*
X11016Y81521D2*
X44549D1*
X57336D2*
X62646D1*
X63468D2*
X66605D1*
X83004D2*
X83988D1*
X11016Y80889D2*
X44489D1*
X57376D2*
X61654D1*
X64460D2*
X66794D1*
X82816D2*
X83988D1*
X11016Y80257D2*
X44489D1*
X57148D2*
X61367D1*
X64748D2*
X71913D1*
X76426D2*
X83988D1*
X11016Y79626D2*
X44589D1*
X49419D2*
X55126D1*
X56384D2*
X61337D1*
X64778D2*
X71913D1*
X76426D2*
X83988D1*
X11016Y78994D2*
X45313D1*
X46085D2*
X46583D1*
X47355D2*
X47681D1*
X48794D2*
X61575D1*
X64540D2*
X71913D1*
X76426D2*
X83988D1*
X11016Y78362D2*
X61664D1*
X64450D2*
X71913D1*
X76386D2*
X83988D1*
X11016Y77731D2*
X61367D1*
X65631D2*
X71278D1*
X75920D2*
X83988D1*
X11016Y77099D2*
X61337D1*
X66177D2*
X70653D1*
X75295D2*
X83988D1*
X11016Y76467D2*
X61575D1*
X66266D2*
X70018D1*
X74660D2*
X83988D1*
X11016Y75836D2*
X61674D1*
X66266D2*
X69383D1*
X74025D2*
X83988D1*
X11016Y75204D2*
X47089D1*
X49180D2*
X61367D1*
X66266D2*
X68758D1*
X73400D2*
X83988D1*
X11016Y74572D2*
X46563D1*
X49706D2*
X61337D1*
X66266D2*
X68123D1*
X72765D2*
X83988D1*
X11016Y73941D2*
X46404D1*
X49865D2*
X61565D1*
X66266D2*
X67488D1*
X72130D2*
X83988D1*
X11016Y73309D2*
X46494D1*
X49776D2*
X62071D1*
X66266D2*
X66863D1*
X71505D2*
X83988D1*
X11016Y72677D2*
X46881D1*
X49389D2*
X62071D1*
X70870D2*
X83988D1*
X11016Y72046D2*
X46563D1*
X49706D2*
X61783D1*
X70235D2*
X83988D1*
X11016Y71414D2*
X46404D1*
X49865D2*
X54124D1*
X57396D2*
X61158D1*
X69610D2*
X83988D1*
X11016Y70782D2*
X46484D1*
X57396D2*
X59819D1*
X68975D2*
X83988D1*
X11016Y70151D2*
X12531D1*
X14642D2*
X15071D1*
X17182D2*
X17611D1*
X19722D2*
X46871D1*
X57396D2*
X59551D1*
X68340D2*
X83988D1*
X11016Y69519D2*
X12015D1*
X20238D2*
X48210D1*
X57396D2*
X59263D1*
X67715D2*
X83988D1*
X11016Y68887D2*
X11856D1*
X20397D2*
X49143D1*
X57396D2*
X58628D1*
X67080D2*
X83988D1*
X11016Y68256D2*
X11946D1*
X20308D2*
X27434D1*
X29674D2*
X57993D1*
X66445D2*
X83988D1*
X11016Y67624D2*
X12333D1*
X19911D2*
X27096D1*
X30011D2*
X57368D1*
X65819D2*
X83988D1*
X11016Y66992D2*
X12372D1*
X17311D2*
X27086D1*
X30021D2*
X56733D1*
X65184D2*
X83988D1*
X11016Y66361D2*
X12739D1*
X17946D2*
X27394D1*
X29714D2*
X31254D1*
X33474D2*
X41414D1*
X43634D2*
X56098D1*
X64549D2*
X83988D1*
X11016Y65729D2*
X13374D1*
X18572D2*
X20965D1*
X26122D2*
X30906D1*
X33812D2*
X41066D1*
X43972D2*
X55473D1*
X63924D2*
X83988D1*
X11016Y65097D2*
X14009D1*
X26122D2*
X30887D1*
X33831D2*
X40590D1*
X43991D2*
X52615D1*
X63289D2*
X70257D1*
X75543D2*
X83988D1*
X11016Y64466D2*
X14635D1*
X26122D2*
X31194D1*
X33534D2*
X39955D1*
X43694D2*
X51980D1*
X62654D2*
X65315D1*
X66772D2*
X70257D1*
X75543D2*
X83988D1*
X11016Y63834D2*
X15270D1*
X26122D2*
X39320D1*
X42771D2*
X51355D1*
X62029D2*
X64571D1*
X75543D2*
X83988D1*
X11016Y63202D2*
X15905D1*
X42136D2*
X50720D1*
X61394D2*
X64323D1*
X75543D2*
X83988D1*
X11016Y62571D2*
X16530D1*
X41501D2*
X50333D1*
X60759D2*
X64343D1*
X75543D2*
X83988D1*
X11016Y61939D2*
X17165D1*
X40876D2*
X50323D1*
X60134D2*
X64631D1*
X75543D2*
X83988D1*
X11016Y61307D2*
X30936D1*
X33405D2*
X50323D1*
X59499D2*
X64581D1*
X67506D2*
X70257D1*
X75543D2*
X83988D1*
X11016Y60676D2*
X30936D1*
X33405D2*
X43071D1*
X44507D2*
X45611D1*
X47047D2*
X48151D1*
X49587D2*
X50323D1*
X58864D2*
X64333D1*
X67754D2*
X70257D1*
X75543D2*
X83988D1*
X11016Y60044D2*
X30936D1*
X33405D2*
X42277D1*
X58239D2*
X64343D1*
X67744D2*
X83988D1*
X11016Y59412D2*
X30936D1*
X33405D2*
X41999D1*
X57604D2*
X64621D1*
X67457D2*
X83988D1*
X11016Y58781D2*
X30936D1*
X33405D2*
X41969D1*
X57376D2*
X65524D1*
X66554D2*
X70257D1*
X75543D2*
X83988D1*
X11016Y58149D2*
X21014D1*
X23195D2*
X23548D1*
X25735D2*
X27483D1*
X29615D2*
X30936D1*
X33405D2*
X42188D1*
X57376D2*
X66149D1*
X66951D2*
X70257D1*
X75543D2*
X83988D1*
X11016Y57517D2*
X20598D1*
X26142D2*
X27106D1*
X29992D2*
X30936D1*
X33494D2*
X42555D1*
X57376D2*
X65425D1*
X67675D2*
X70257D1*
X75543D2*
X83988D1*
X11016Y56886D2*
X20518D1*
X26221D2*
X27077D1*
X30031D2*
X30956D1*
X62764D2*
X65325D1*
X67774D2*
X70257D1*
X75543D2*
X83988D1*
X11016Y56254D2*
X20727D1*
X26013D2*
X27344D1*
X29753D2*
X31313D1*
X63131D2*
X65563D1*
X67536D2*
X70257D1*
X75543D2*
X83988D1*
X11016Y55622D2*
X21441D1*
X22759D2*
X23981D1*
X25299D2*
X31799D1*
X63200D2*
X65563D1*
X67536D2*
X70257D1*
X75841D2*
X83988D1*
X11016Y54991D2*
X31978D1*
X63022D2*
X65563D1*
X67536D2*
X70257D1*
X76476D2*
X83988D1*
X11016Y54359D2*
X32543D1*
X34516D2*
X35083D1*
X37056D2*
X37623D1*
X42136D2*
X42703D1*
X44676D2*
X45243D1*
X47216D2*
X47783D1*
X49756D2*
X50323D1*
X52296D2*
X52863D1*
X54836D2*
X55403D1*
X57376D2*
X57943D1*
X59916D2*
X60483D1*
X62456D2*
X65057D1*
X67526D2*
X73660D1*
X77537D2*
X83988D1*
X11016Y53727D2*
X16966D1*
X19058D2*
X37752D1*
X40489D2*
X64422D1*
X67159D2*
X74295D1*
X78232D2*
X83988D1*
X11016Y53096D2*
X16579D1*
X39864D2*
X63797D1*
X66534D2*
X74930D1*
X78440D2*
X83988D1*
X11016Y52464D2*
X16530D1*
X39229D2*
X63162D1*
X65899D2*
X75247D1*
X78371D2*
X83988D1*
X11016Y51832D2*
X16788D1*
X38505D2*
X62527D1*
X65264D2*
X75624D1*
X77994D2*
X83988D1*
X11016Y51201D2*
X22711D1*
X27293D2*
X61902D1*
X64639D2*
X67707D1*
X72289D2*
X83988D1*
X11016Y50569D2*
X21897D1*
X28106D2*
X61267D1*
X64004D2*
X66893D1*
X73102D2*
X83988D1*
X11016Y49937D2*
X21371D1*
X28632D2*
X60632D1*
X63369D2*
X66367D1*
X73628D2*
X83988D1*
X11016Y49306D2*
X21014D1*
X28989D2*
X60007D1*
X62744D2*
X66010D1*
X73985D2*
X83988D1*
X11016Y48674D2*
X20776D1*
X29218D2*
X59372D1*
X62109D2*
X65782D1*
X74223D2*
X83988D1*
X11016Y48042D2*
X20647D1*
X29347D2*
X58737D1*
X61474D2*
X65653D1*
X74352D2*
X83988D1*
X11016Y47411D2*
X20617D1*
X29386D2*
X58112D1*
X60849D2*
X65613D1*
X74382D2*
X83988D1*
X11016Y46779D2*
X20677D1*
X29327D2*
X57477D1*
X60214D2*
X65673D1*
X74323D2*
X83988D1*
X11016Y46147D2*
X20836D1*
X29168D2*
X56842D1*
X59579D2*
X65831D1*
X74164D2*
X83988D1*
X11016Y45516D2*
X21094D1*
X28900D2*
X56217D1*
X58954D2*
X66099D1*
X73906D2*
X83988D1*
X11016Y44884D2*
X21500D1*
X28503D2*
X55582D1*
X58319D2*
X66496D1*
X73499D2*
X83988D1*
X11016Y44252D2*
X22086D1*
X27918D2*
X54947D1*
X57684D2*
X67091D1*
X72914D2*
X83988D1*
X11016Y43621D2*
X17026D1*
X18998D2*
X23038D1*
X26965D2*
X54322D1*
X57058D2*
X68034D1*
X71961D2*
X83988D1*
X11016Y42989D2*
X16589D1*
X19435D2*
X44797D1*
X56423D2*
X75178D1*
X78450D2*
X83988D1*
X11016Y42357D2*
X16520D1*
X19504D2*
X44162D1*
X55788D2*
X75178D1*
X78450D2*
X83988D1*
X11016Y41726D2*
X16758D1*
X19276D2*
X32315D1*
X62684D2*
X75178D1*
X78450D2*
X83988D1*
X11016Y41094D2*
X15428D1*
X63101D2*
X75178D1*
X78450D2*
X83988D1*
X11016Y40462D2*
X14793D1*
X63210D2*
X75178D1*
X78450D2*
X83988D1*
X11016Y39831D2*
X14158D1*
X63061D2*
X75575D1*
X78043D2*
X83988D1*
X11016Y39199D2*
X13533D1*
X16270D2*
X32434D1*
X34625D2*
X34978D1*
X37165D2*
X37518D1*
X39705D2*
X40058D1*
X42245D2*
X42598D1*
X47325D2*
X47678D1*
X49865D2*
X50218D1*
X62565D2*
X75575D1*
X78043D2*
X83988D1*
X11016Y38567D2*
X12978D1*
X15635D2*
X42912D1*
X45648D2*
X51494D1*
X60888D2*
X75575D1*
X78043D2*
X83988D1*
X11016Y37936D2*
X12898D1*
X15000D2*
X33397D1*
X45023D2*
X50859D1*
X60263D2*
X75575D1*
X78043D2*
X83988D1*
X11016Y37304D2*
X12898D1*
X14871D2*
X32762D1*
X44388D2*
X50234D1*
X52971D2*
X75575D1*
X78043D2*
X83988D1*
X11016Y36672D2*
X12898D1*
X14871D2*
X17740D1*
X25189D2*
X32127D1*
X43753D2*
X49599D1*
X52336D2*
X75575D1*
X78043D2*
X83988D1*
X11016Y36041D2*
X12898D1*
X14871D2*
X16262D1*
X25626D2*
X31502D1*
X34238D2*
X48964D1*
X51701D2*
X75575D1*
X78043D2*
X83988D1*
X11016Y35409D2*
X12898D1*
X14871D2*
X15627D1*
X25745D2*
X30867D1*
X33603D2*
X36324D1*
X38276D2*
X48339D1*
X51076D2*
X71378D1*
X74025D2*
X75575D1*
X78043D2*
X83988D1*
X11016Y34777D2*
X12898D1*
X26320D2*
X30232D1*
X32968D2*
X34974D1*
X39626D2*
X47704D1*
X50441D2*
X52238D1*
X54518D2*
X62795D1*
X66068D2*
X70971D1*
X74422D2*
X75575D1*
X78043D2*
X83988D1*
X11016Y34146D2*
X12898D1*
X26797D2*
X29607D1*
X32343D2*
X34300D1*
X40300D2*
X47089D1*
X49806D2*
X51832D1*
X54925D2*
X62795D1*
X66068D2*
X70862D1*
X74541D2*
X75575D1*
X78043D2*
X83988D1*
X11016Y33514D2*
X12898D1*
X26886D2*
X28972D1*
X31708D2*
X33873D1*
X40727D2*
X46910D1*
X49180D2*
X51742D1*
X55005D2*
X62795D1*
X66068D2*
X70981D1*
X74412D2*
X75575D1*
X78043D2*
X83988D1*
X11016Y32882D2*
X12898D1*
X26678D2*
X28337D1*
X31073D2*
X33605D1*
X40995D2*
X46910D1*
X48883D2*
X51931D1*
X54826D2*
X62795D1*
X66068D2*
X71407D1*
X73995D2*
X75575D1*
X78043D2*
X83988D1*
X11016Y32251D2*
X12898D1*
X24346D2*
X25023D1*
X25805D2*
X27712D1*
X30448D2*
X33456D1*
X41144D2*
X46910D1*
X48883D2*
X52328D1*
X54300D2*
X62795D1*
X66068D2*
X75575D1*
X78043D2*
X83988D1*
X11016Y31619D2*
X12898D1*
X16101D2*
X16515D1*
X18800D2*
X19048D1*
X29813D2*
X33417D1*
X41183D2*
X46910D1*
X48883D2*
X52328D1*
X54300D2*
X75575D1*
X78043D2*
X83988D1*
X11016Y30987D2*
X12898D1*
X16101D2*
X20736D1*
X29178D2*
X33486D1*
X41114D2*
X46910D1*
X48883D2*
X52328D1*
X54300D2*
X75575D1*
X78043D2*
X83988D1*
X11016Y30356D2*
X12898D1*
X16101D2*
X21362D1*
X28553D2*
X33665D1*
X40935D2*
X46910D1*
X48883D2*
X52328D1*
X54300D2*
X71407D1*
X73995D2*
X75575D1*
X78043D2*
X83988D1*
X11016Y29724D2*
X12898D1*
X16101D2*
X33962D1*
X40638D2*
X46910D1*
X48883D2*
X52328D1*
X54300D2*
X70981D1*
X74412D2*
X75575D1*
X78043D2*
X83988D1*
X11016Y29092D2*
X12898D1*
X16101D2*
X34448D1*
X40152D2*
X46910D1*
X48883D2*
X52328D1*
X54300D2*
X70862D1*
X74541D2*
X75575D1*
X78043D2*
X83988D1*
X11016Y28461D2*
X12898D1*
X16101D2*
X35212D1*
X39388D2*
X46910D1*
X48883D2*
X52328D1*
X54300D2*
X59749D1*
X61464D2*
X62627D1*
X65591D2*
X70971D1*
X74422D2*
X75575D1*
X78043D2*
X83988D1*
X11016Y27829D2*
X12898D1*
X16101D2*
X46910D1*
X48883D2*
X52328D1*
X54300D2*
X59233D1*
X61990D2*
X62627D1*
X68092D2*
X71378D1*
X74015D2*
X74999D1*
X78043D2*
X83988D1*
X11016Y27197D2*
X12898D1*
X16101D2*
X46910D1*
X48883D2*
X52328D1*
X54300D2*
X59124D1*
X62089D2*
X62627D1*
X68727D2*
X74374D1*
X77805D2*
X83988D1*
X11016Y26566D2*
X12898D1*
X16101D2*
X40779D1*
X45450D2*
X46910D1*
X48883D2*
X50978D1*
X55650D2*
X59313D1*
X61900D2*
X62627D1*
X69352D2*
X73739D1*
X77180D2*
X83988D1*
X11016Y25934D2*
X12898D1*
X16101D2*
X40779D1*
X45450D2*
X46910D1*
X48883D2*
X50978D1*
X55650D2*
X60087D1*
X61136D2*
X62627D1*
X65591D2*
X66546D1*
X69987D2*
X73104D1*
X76555D2*
X83988D1*
X11016Y25302D2*
X12898D1*
X16101D2*
X17085D1*
X22183D2*
X40779D1*
X45450D2*
X46910D1*
X48883D2*
X50978D1*
X55650D2*
X62081D1*
X65304D2*
X67171D1*
X70622D2*
X71437D1*
X75920D2*
X83988D1*
X11016Y24671D2*
X12898D1*
X16101D2*
X16708D1*
X22560D2*
X40779D1*
X45450D2*
X46910D1*
X48883D2*
X50978D1*
X55650D2*
X61446D1*
X64897D2*
X67806D1*
X75285D2*
X83988D1*
X11016Y24039D2*
X12898D1*
X16101D2*
X16629D1*
X22630D2*
X40779D1*
X45450D2*
X46910D1*
X48883D2*
X50978D1*
X55650D2*
X60821D1*
X64262D2*
X68441D1*
X74660D2*
X83988D1*
X11016Y23407D2*
X12898D1*
X16101D2*
X16797D1*
X22461D2*
X40541D1*
X45450D2*
X46910D1*
X48883D2*
X50978D1*
X55650D2*
X60186D1*
X63627D2*
X69066D1*
X74432D2*
X83988D1*
X11016Y22776D2*
X12898D1*
X16101D2*
X17095D1*
X22163D2*
X39906D1*
X45450D2*
X46910D1*
X48883D2*
X50978D1*
X55987D2*
X59551D1*
X63002D2*
X71358D1*
X74045D2*
X83988D1*
X11016Y22144D2*
X12898D1*
X16101D2*
X16718D1*
X22550D2*
X39280D1*
X45450D2*
X46910D1*
X48883D2*
X50978D1*
X56632D2*
X58995D1*
X62367D2*
X83988D1*
X11016Y21512D2*
X12898D1*
X16101D2*
X16629D1*
X22639D2*
X33397D1*
X45450D2*
X46910D1*
X48883D2*
X50978D1*
X57257D2*
X58866D1*
X68290D2*
X83988D1*
X11016Y20881D2*
X12898D1*
X16101D2*
X16797D1*
X22471D2*
X32514D1*
X45450D2*
X46910D1*
X49141D2*
X50978D1*
X57971D2*
X58608D1*
X68290D2*
X83988D1*
X11016Y20249D2*
X12898D1*
X16101D2*
X17115D1*
X22153D2*
X31879D1*
X45450D2*
X47059D1*
X49776D2*
X50978D1*
X68290D2*
X71904D1*
X73499D2*
X83988D1*
X11016Y19617D2*
X12898D1*
X16101D2*
X16718D1*
X22550D2*
X31254D1*
X40687D2*
X47664D1*
X50401D2*
X55007D1*
X68290D2*
X70425D1*
X74967D2*
X83988D1*
X11016Y18986D2*
X12898D1*
X16101D2*
X16629D1*
X22639D2*
X30698D1*
X40687D2*
X48299D1*
X51036D2*
X55007D1*
X68290D2*
X69731D1*
X75662D2*
X83988D1*
X11016Y18354D2*
X12898D1*
X16418D2*
X16794D1*
X22481D2*
X30619D1*
X40687D2*
X48934D1*
X51671D2*
X55007D1*
X68290D2*
X69294D1*
X76108D2*
X83988D1*
X11016Y17722D2*
X12898D1*
X22143D2*
X30619D1*
X40687D2*
X49560D1*
X68290D2*
X69016D1*
X76386D2*
X83988D1*
X11016Y17091D2*
X13245D1*
X22540D2*
X30619D1*
X40687D2*
X50195D1*
X68290D2*
X68858D1*
X76535D2*
X83988D1*
X11016Y16459D2*
X13871D1*
X22639D2*
X30619D1*
X40687D2*
X50830D1*
X57971D2*
X58608D1*
X68290D2*
X68818D1*
X76585D2*
X83988D1*
X11016Y15827D2*
X14506D1*
X22481D2*
X30658D1*
X40687D2*
X58102D1*
X61295D2*
X68877D1*
X76525D2*
X83988D1*
X11016Y15196D2*
X15141D1*
X21975D2*
X31135D1*
X60918D2*
X69046D1*
X76357D2*
X83988D1*
X11016Y14564D2*
X15766D1*
X21647D2*
X31770D1*
X35260D2*
X38417D1*
X60283D2*
X69344D1*
X76059D2*
X83988D1*
X11016Y13932D2*
X16401D1*
X21012D2*
X32305D1*
X34903D2*
X39042D1*
X59658D2*
X69810D1*
X75593D2*
X83988D1*
X11016Y13301D2*
X39677D1*
X59023D2*
X70544D1*
X74848D2*
X83988D1*
X11016Y12669D2*
X83988D1*
X11016Y12037D2*
X83988D1*
X11016Y11406D2*
X83988D1*
X62031Y27217D2*
X61982Y26904D1*
X61865Y26609D1*
X61685Y26348D1*
X61452Y26133D1*
X61178Y25975D1*
X60875Y25882D1*
X60559Y25858D1*
X60246Y25905D1*
X59950Y26019D1*
X59688Y26196D1*
X59471Y26427D1*
X59310Y26701D1*
X59214Y27003D1*
X59188Y27318D1*
X59231Y27632D1*
X59343Y27928D1*
X59518Y28193D1*
X59747Y28412D1*
X60019Y28574D1*
X60320Y28673D1*
X60636Y28703D1*
X60950Y28662D1*
X61247Y28552D1*
X61513Y28380D1*
X61734Y28153D1*
X61899Y27882D1*
X62000Y27582D1*
X62033Y27280D1*
X62031Y27217D1*
X38410Y14627D2*
X36577D1*
Y14935D1*
X35600Y14927D1*
X35277Y14974D1*
X35243Y14744D1*
X35154Y14440D1*
X35009Y14158D1*
X34814Y13909D1*
X34575Y13700D1*
X34301Y13541D1*
X34001Y13436D1*
X33688Y13389D1*
X33371Y13403D1*
X33062Y13476D1*
X32773Y13606D1*
X32514Y13788D1*
X32293Y14015D1*
X32108Y14308D1*
X31987Y14407D1*
X30947Y15447D1*
X30766Y15706D1*
X30678Y16058D1*
X30677Y18600D1*
X30731Y18911D1*
X30918Y19222D1*
X32947Y21253D1*
X33206Y21434D1*
X33558Y21522D1*
X38709Y21523D1*
X40840Y23645D1*
X40842Y26843D1*
X45388D1*
Y20097D1*
X40842D1*
X40827Y21021D1*
X40174Y20369D1*
X40623Y20373D1*
X40616Y17573D1*
X40623Y16303D1*
Y15737D1*
X41092Y15267D1*
X44727Y15273D1*
X57616D1*
X58667Y16326D1*
Y17025D1*
X57913Y17022D1*
Y16122D1*
X55067D1*
Y16192D1*
X51533Y16197D1*
X51221Y16251D1*
X50910Y16438D1*
X47240Y20108D1*
X47058Y20366D1*
X46970Y20718D1*
X46969Y33596D1*
X47023Y33907D1*
X47211Y34218D1*
X51971Y38980D1*
X51711Y38891D1*
X51398Y38844D1*
X51081Y38858D1*
X50772Y38931D1*
X50483Y39061D1*
X50224Y39243D1*
X50038Y39435D1*
X49745Y39155D1*
X49471Y38996D1*
X49171Y38891D1*
X48858Y38844D1*
X48541Y38858D1*
X48232Y38931D1*
X47943Y39061D1*
X47684Y39243D1*
X47498Y39435D1*
X47205Y39155D1*
X46931Y38996D1*
X46631Y38891D1*
X46318Y38844D1*
X45895Y38883D1*
X43708Y36687D1*
X43449Y36506D1*
X43097Y36418D1*
X34552Y36417D1*
X28468Y30337D1*
X28209Y30156D1*
X27857Y30068D1*
X22100Y30067D1*
X21789Y30121D1*
X21478Y30308D1*
X20528Y31256D1*
X20283Y31224D1*
X19966Y31238D1*
X19657Y31311D1*
X19368Y31441D1*
X19109Y31623D1*
X18923Y31815D1*
X18778Y31655D1*
X18524Y31465D1*
X18238Y31327D1*
X17932Y31245D1*
X17616Y31223D1*
X17301Y31260D1*
X16999Y31356D1*
X16720Y31508D1*
X16475Y31709D1*
X16273Y31953D1*
X16120Y32230D1*
X16037Y32468D1*
X16038Y18677D1*
X17094Y17617D1*
X17274Y17798D1*
X17055Y18026D1*
X16882Y18291D1*
X16761Y18585D1*
X16698Y18895D1*
X16695Y19212D1*
X16752Y19524D1*
X16866Y19820D1*
X17035Y20089D1*
X17274Y20338D1*
X17055Y20566D1*
X16882Y20831D1*
X16761Y21125D1*
X16698Y21435D1*
X16695Y21752D1*
X16752Y22064D1*
X16866Y22360D1*
X17035Y22629D1*
X17274Y22878D1*
X17055Y23106D1*
X16882Y23371D1*
X16761Y23665D1*
X16698Y23975D1*
X16695Y24292D1*
X16752Y24604D1*
X16866Y24900D1*
X17035Y25169D1*
X17250Y25401D1*
X17506Y25588D1*
X17793Y25724D1*
X18100Y25803D1*
X18416Y25823D1*
X18731Y25782D1*
X19032Y25683D1*
X19309Y25530D1*
X19552Y25326D1*
X19634Y25226D1*
X19744Y25358D1*
X19992Y25554D1*
X20274Y25701D1*
X20577Y25792D1*
X20893Y25823D1*
X21209Y25795D1*
X21513Y25708D1*
X21796Y25565D1*
X22047Y25370D1*
X22256Y25133D1*
X22417Y24860D1*
X22524Y24561D1*
X22572Y24248D1*
X22556Y23898D1*
X22478Y23590D1*
X22344Y23303D1*
X22158Y23046D1*
X21990Y22880D1*
X22293Y22541D1*
X22443Y22262D1*
X22538Y21959D1*
X22575Y21611D1*
X22545Y21295D1*
X22456Y20991D1*
X22311Y20709D1*
X22116Y20459D1*
X21989Y20348D1*
X22293Y20001D1*
X22443Y19722D1*
X22538Y19419D1*
X22575Y19071D1*
X22545Y18755D1*
X22456Y18451D1*
X22311Y18169D1*
X22116Y17919D1*
X21989Y17808D1*
X22293Y17461D1*
X22443Y17182D1*
X22538Y16879D1*
X22575Y16531D1*
X22545Y16215D1*
X22456Y15911D1*
X22311Y15629D1*
X22116Y15379D1*
X21817Y15136D1*
X21771Y14876D1*
X21584Y14565D1*
X20948Y13927D1*
X20689Y13746D1*
X20337Y13658D1*
X17120Y13657D1*
X16809Y13711D1*
X16498Y13898D1*
X13231Y17163D1*
X13050Y17422D1*
X12962Y17774D1*
X12961Y38184D1*
X13015Y38495D1*
X13203Y38806D1*
X15562Y41168D1*
X15821Y41349D1*
X16173Y41437D1*
X17078Y41438D1*
X16923Y41587D1*
X16745Y41849D1*
X16628Y42144D1*
X16580Y42457D1*
X16601Y42773D1*
X16691Y43077D1*
X16845Y43354D1*
X17057Y43590D1*
X17315Y43774D1*
X17607Y43896D1*
X17919Y43952D1*
X18235Y43938D1*
X18541Y43854D1*
X18821Y43706D1*
X19062Y43500D1*
X19251Y43246D1*
X19380Y42956D1*
X19448Y42520D1*
X19413Y42205D1*
X19310Y41906D1*
X19143Y41636D1*
X18942Y41431D1*
X21295Y41438D1*
X32140D1*
X32418Y41765D1*
X32674Y41952D1*
X32961Y42088D1*
X33268Y42167D1*
X33584Y42187D1*
X33899Y42147D1*
X34200Y42048D1*
X34477Y41894D1*
X34720Y41691D1*
X34802Y41591D1*
X34958Y41765D1*
X35214Y41952D1*
X35501Y42088D1*
X35808Y42167D1*
X36124Y42187D1*
X36439Y42147D1*
X36740Y42048D1*
X37017Y41894D1*
X37260Y41691D1*
X37342Y41591D1*
X37498Y41765D1*
X37754Y41952D1*
X38041Y42088D1*
X38348Y42167D1*
X38664Y42187D1*
X38979Y42147D1*
X39280Y42048D1*
X39557Y41894D1*
X39800Y41691D1*
X39882Y41591D1*
X39992Y41722D1*
X40240Y41919D1*
X40521Y42065D1*
X40825Y42156D1*
X41141Y42188D1*
X41456Y42160D1*
X41761Y42072D1*
X42044Y41929D1*
X42295Y41735D1*
X42419Y41604D1*
X42578Y41765D1*
X42834Y41952D1*
X43121Y42088D1*
X43428Y42167D1*
X43744Y42187D1*
X44029Y42151D1*
X44942Y43073D1*
X45201Y43254D1*
X45553Y43342D1*
X54098Y43343D1*
X65626Y54866D1*
X65627Y56301D1*
X65486Y56531D1*
X65393Y56834D1*
X65384Y57150D1*
X65460Y57457D1*
X65615Y57733D1*
X65838Y57957D1*
X66114Y58114D1*
X66421Y58191D1*
X66737Y58183D1*
X67040Y58091D1*
X67307Y57921D1*
X67519Y57686D1*
X67660Y57403D1*
X67723Y57025D1*
X67680Y56711D1*
X67555Y56421D1*
X67475Y56320D1*
X67473Y54485D1*
X67419Y54174D1*
X67232Y53863D1*
X55094Y41729D1*
X55278Y41765D1*
X55534Y41952D1*
X55821Y42088D1*
X56128Y42167D1*
X56444Y42187D1*
X56759Y42147D1*
X57060Y42048D1*
X57337Y41894D1*
X57580Y41691D1*
X57662Y41591D1*
X57818Y41765D1*
X58074Y41952D1*
X58361Y42088D1*
X58668Y42167D1*
X58984Y42187D1*
X59299Y42147D1*
X59600Y42048D1*
X59877Y41894D1*
X60120Y41691D1*
X60202Y41591D1*
X60358Y41765D1*
X60614Y41952D1*
X60901Y42088D1*
X61208Y42167D1*
X61524Y42187D1*
X61839Y42147D1*
X62140Y42048D1*
X62417Y41894D1*
X62660Y41691D1*
X62861Y41445D1*
X63011Y41166D1*
X63106Y40864D1*
X63143Y40515D1*
X63113Y40199D1*
X63024Y39895D1*
X62879Y39613D1*
X62684Y39364D1*
X62445Y39155D1*
X62171Y38996D1*
X61871Y38891D1*
X61558Y38844D1*
X61135Y38883D1*
X60101Y37841D1*
X59842Y37659D1*
X59490Y37571D1*
X53168Y37570D1*
X48819Y33217D1*
X48815Y21144D1*
X51919Y18038D1*
X55075Y18043D1*
X55067Y20104D1*
X52730Y20097D1*
X51042D1*
Y26843D1*
X52401D1*
X52392Y28233D1*
Y32410D1*
X52194Y32594D1*
X52011Y32852D1*
X51882Y33142D1*
X51815Y33451D1*
X51811Y33768D1*
X51870Y34080D1*
X51991Y34373D1*
X52168Y34636D1*
X52394Y34858D1*
X52660Y35030D1*
X52956Y35145D1*
X53268Y35199D1*
X53585Y35189D1*
X53893Y35116D1*
X54181Y34982D1*
X54435Y34794D1*
X54647Y34558D1*
X54808Y34285D1*
X54910Y33985D1*
X54950Y33630D1*
X54918Y33315D1*
X54824Y33012D1*
X54671Y32735D1*
X54465Y32494D1*
X54238Y32317D1*
Y26834D1*
X55588Y26843D1*
Y22944D1*
X55652Y22933D1*
X55963Y22745D1*
X57181Y21524D1*
X57290Y21468D1*
X57913D1*
Y20565D1*
X58667Y20568D1*
Y21468D1*
X58935D1*
X58927Y21600D1*
X58970Y21914D1*
X59146Y22283D1*
X59720Y22878D1*
X62687Y25857D1*
Y28703D1*
X65533D1*
Y28455D1*
X66920Y28453D1*
X67234Y28410D1*
X67603Y28234D1*
X68198Y27660D1*
X70689Y25170D1*
X71381Y25173D1*
X71463Y25270D1*
X71709Y25470D1*
X71986Y25623D1*
X72287Y25724D1*
X72600Y25770D1*
X72985Y25745D1*
X75637Y28400D1*
Y40307D1*
X75237Y40312D1*
Y43458D1*
X78383D1*
Y40312D1*
X77983Y40297D1*
Y27915D1*
X77940Y27601D1*
X77764Y27232D1*
X77190Y26637D1*
X74475Y23921D1*
X74445Y23684D1*
X74360Y23378D1*
X74223Y23093D1*
X74037Y22836D1*
X73808Y22616D1*
X73544Y22441D1*
X73253Y22316D1*
X72944Y22244D1*
X72627Y22229D1*
X72313Y22270D1*
X72011Y22366D1*
X71731Y22515D1*
X71482Y22712D1*
X71384Y22823D1*
X70200Y22827D1*
X69886Y22870D1*
X69517Y23046D1*
X68922Y23620D1*
X66431Y26110D1*
X65541Y26107D1*
X65533Y25857D1*
X65285D1*
X65283Y25610D1*
X65240Y25296D1*
X65064Y24927D1*
X64490Y24332D1*
X61621Y21462D1*
X61906Y21468D1*
X61902Y21743D1*
X61932Y21768D1*
X65048D1*
X65062Y21468D1*
X65077Y21768D1*
X68223D1*
X68213Y18822D1*
X68223Y18968D1*
Y16022D1*
X65077D1*
X65062Y16322D1*
X65048Y16022D1*
X61902D1*
Y16131D1*
X61261Y16122D1*
X61220Y15776D1*
X61044Y15407D1*
X60470Y14812D1*
X58929Y13271D1*
X58677Y13079D1*
X58291Y12943D1*
X57465Y12927D1*
X40600D1*
X40286Y12970D1*
X39917Y13146D1*
X39322Y13720D1*
X38417Y14625D1*
X63172Y35203D2*
X66000D1*
Y32057D1*
X62855D1*
Y35203D1*
X63172D1*
X54500Y71615D2*
X57328D1*
Y68470D1*
X54182D1*
X54167Y68870D1*
X49405D1*
X49092Y68912D1*
X48723Y69089D1*
X48148Y69641D1*
X47906Y69656D1*
X47597Y69729D1*
X47308Y69859D1*
X47049Y70041D1*
X46828Y70268D1*
X46655Y70534D1*
X46534Y70827D1*
X46471Y71138D1*
X46468Y71455D1*
X46525Y71767D1*
X46639Y72062D1*
X46808Y72331D1*
X47047Y72581D1*
X46828Y72808D1*
X46655Y73074D1*
X46534Y73367D1*
X46471Y73678D1*
X46468Y73995D1*
X46525Y74307D1*
X46639Y74602D1*
X46808Y74871D1*
X47023Y75103D1*
X47279Y75290D1*
X47566Y75426D1*
X47873Y75505D1*
X48189Y75525D1*
X48504Y75485D1*
X48805Y75386D1*
X49082Y75232D1*
X49325Y75029D1*
X49526Y74783D1*
X49676Y74504D1*
X49771Y74202D1*
X49808Y73853D1*
X49778Y73537D1*
X49689Y73233D1*
X49544Y72951D1*
X49349Y72702D1*
X49222Y72591D1*
X49526Y72243D1*
X49676Y71964D1*
X49771Y71662D1*
X49807Y71303D1*
X49897Y71209D1*
X53851Y71215D1*
X54178D1*
X54182Y71615D1*
X54500D1*
X57296Y80777D2*
X57201Y80475D1*
X57048Y80197D1*
X56842Y79956D1*
X56593Y79761D1*
X56309Y79620D1*
X56002Y79539D1*
X55686Y79521D1*
X55372Y79567D1*
X55074Y79675D1*
X54804Y79840D1*
X54572Y80056D1*
X54486Y80177D1*
X50992Y80170D1*
X49395D1*
X49403Y79870D1*
X49323Y79557D1*
X49211Y79399D1*
X48965Y79149D1*
X48776Y79013D1*
X48485Y78947D1*
X47985D1*
X47705Y79008D1*
X47472Y79066D1*
X47171Y78966D1*
X46855Y78952D1*
X46547Y79026D1*
X46332Y79147D1*
X46144Y79039D1*
X45901Y78966D1*
X45649Y78948D1*
X45398Y78986D1*
X45162Y79079D1*
X44952Y79221D1*
X44779Y79406D1*
X44651Y79625D1*
X44574Y79867D1*
X44552Y80153D1*
X44563Y81306D1*
X44625Y81552D1*
X44740Y81778D1*
X44902Y81973D1*
X45103Y82127D1*
X45333Y82234D1*
X45580Y82287D1*
X45834Y82284D1*
X46080Y82226D1*
X46330Y82100D1*
X46663Y82252D1*
X46977Y82293D1*
X47290Y82246D1*
X47551Y82127D1*
X47694Y82227D1*
X47985Y82293D1*
X48485D1*
X48765Y82232D1*
X48965Y82091D1*
X49042Y82013D1*
X54472Y82015D1*
X54772Y82320D1*
X55038Y82492D1*
X55333Y82608D1*
X55645Y82662D1*
X55962Y82652D1*
X56271Y82578D1*
X56558Y82445D1*
X56813Y82256D1*
X57025Y82021D1*
X57185Y81747D1*
X57287Y81447D1*
X57328Y81092D1*
X57296Y80777D1*
X78351Y52620D2*
X78256Y52317D1*
X78103Y52040D1*
X77897Y51799D1*
X77648Y51604D1*
X77364Y51463D1*
X77057Y51382D1*
X76741Y51364D1*
X76427Y51409D1*
X76129Y51517D1*
X75859Y51682D1*
X75627Y51899D1*
X75443Y52157D1*
X75315Y52447D1*
X75246Y52846D1*
X73406Y54680D1*
X70322Y54687D1*
Y59363D1*
X75478D1*
Y55920D1*
X76894Y54510D1*
X77326Y54421D1*
X77613Y54287D1*
X77868Y54099D1*
X78080Y53863D1*
X78240Y53590D1*
X78342Y53290D1*
X78383Y52935D1*
X78351Y52620D1*
X70640Y65183D2*
X75478D1*
Y60507D1*
X70322D1*
Y61668D1*
X67135Y61672D1*
X67274Y61521D1*
X67465Y61268D1*
X67605Y60983D1*
X67688Y60677D1*
X67712Y60328D1*
X67670Y60013D1*
X67569Y59713D1*
X67414Y59436D1*
X67209Y59194D1*
X66962Y58995D1*
X66682Y58846D1*
X66379Y58753D1*
X66064Y58718D1*
X65748Y58744D1*
X65443Y58828D1*
X65159Y58969D1*
X64906Y59161D1*
X64695Y59397D1*
X64531Y59669D1*
X64422Y59966D1*
X64371Y60279D1*
X64380Y60596D1*
X64448Y60905D1*
X64574Y61197D1*
X64752Y61459D1*
X64951Y61661D1*
X64733Y61886D1*
X64560Y62152D1*
X64439Y62445D1*
X64376Y62756D1*
X64373Y63073D1*
X64430Y63385D1*
X64544Y63680D1*
X64713Y63949D1*
X64928Y64181D1*
X65184Y64368D1*
X65471Y64504D1*
X65778Y64583D1*
X66094Y64603D1*
X66409Y64563D1*
X66710Y64464D1*
X66987Y64310D1*
X67299Y64022D1*
X70323Y64018D1*
X70322Y65183D1*
X70640D1*
X29309Y47183D2*
X29216Y46555D1*
X29032Y45948D1*
X28762Y45374D1*
X28410Y44846D1*
X27985Y44376D1*
X27495Y43972D1*
X26951Y43645D1*
X26366Y43401D1*
X25751Y43245D1*
X25120Y43181D1*
X24486Y43210D1*
X23863Y43331D1*
X23265Y43543D1*
X22704Y43840D1*
X22193Y44215D1*
X21742Y44662D1*
X21362Y45169D1*
X21060Y45727D1*
X20842Y46323D1*
X20715Y46945D1*
X20680Y47578D1*
X20738Y48210D1*
X20888Y48826D1*
X21126Y49414D1*
X21448Y49961D1*
X21847Y50454D1*
X22314Y50884D1*
X22838Y51241D1*
X23409Y51517D1*
X24015Y51707D1*
X24278Y51758D1*
X19114Y51757D1*
X18922Y51569D1*
X18656Y51397D1*
X18359Y51287D1*
X18044Y51245D1*
X17729Y51274D1*
X17427Y51370D1*
X17154Y51531D1*
X16923Y51747D1*
X16745Y52009D1*
X16628Y52304D1*
X16580Y52617D1*
X16601Y52933D1*
X16691Y53237D1*
X16845Y53514D1*
X17057Y53750D1*
X17315Y53934D1*
X17607Y54056D1*
X17919Y54112D1*
X18235Y54098D1*
X18541Y54014D1*
X18821Y53866D1*
X19103Y53604D1*
X37688Y53603D1*
X38215Y54125D1*
X37783Y54301D1*
X37524Y54483D1*
X37338Y54675D1*
X37193Y54515D1*
X36939Y54325D1*
X36653Y54187D1*
X36347Y54105D1*
X36031Y54083D1*
X35716Y54120D1*
X35414Y54216D1*
X35135Y54368D1*
X34890Y54569D1*
X34800Y54666D1*
X34505Y54395D1*
X34231Y54236D1*
X33931Y54131D1*
X33618Y54084D1*
X33301Y54098D1*
X32992Y54171D1*
X32703Y54301D1*
X32444Y54483D1*
X32223Y54710D1*
X32050Y54976D1*
X31929Y55269D1*
X31866Y55580D1*
X31864Y55768D1*
X31342Y56284D1*
X31151Y56536D1*
X31015Y56922D1*
X30999Y57748D1*
Y61409D1*
X29632Y61419D1*
X18233D1*
X17919Y61461D1*
X17550Y61638D1*
X16955Y62211D1*
X12757Y66409D1*
X12565Y66661D1*
X12429Y67047D1*
X12413Y67606D1*
X12279Y67759D1*
X12106Y68025D1*
X11985Y68318D1*
X11922Y68629D1*
X11919Y68946D1*
X11976Y69258D1*
X12090Y69553D1*
X12259Y69822D1*
X12474Y70054D1*
X12730Y70241D1*
X13017Y70377D1*
X13324Y70456D1*
X13640Y70476D1*
X13955Y70436D1*
X14256Y70337D1*
X14533Y70183D1*
X14776Y69980D1*
X14858Y69880D1*
X15014Y70054D1*
X15270Y70241D1*
X15557Y70377D1*
X15864Y70456D1*
X16180Y70476D1*
X16495Y70436D1*
X16796Y70337D1*
X17073Y70183D1*
X17316Y69980D1*
X17398Y69880D1*
X17508Y70011D1*
X17756Y70208D1*
X18037Y70354D1*
X18341Y70445D1*
X18657Y70477D1*
X18972Y70449D1*
X19277Y70361D1*
X19560Y70218D1*
X19811Y70024D1*
X20020Y69786D1*
X20181Y69513D1*
X20288Y69214D1*
X20336Y68901D1*
X20320Y68551D1*
X20242Y68244D1*
X20108Y67956D1*
X19922Y67699D1*
X19691Y67482D1*
X19424Y67313D1*
X19129Y67196D1*
X18817Y67138D1*
X18500Y67139D1*
X18189Y67201D1*
X17895Y67319D1*
X17629Y67491D1*
X17396Y67715D1*
X17101Y67444D1*
X17041Y67409D1*
X17049Y67187D1*
X18666Y65574D1*
X20880Y65568D1*
X21061Y65758D1*
X21313Y65949D1*
X21600Y66084D1*
X21909Y66156D1*
X22226Y66163D1*
X22537Y66104D1*
X22830Y65982D1*
X23091Y65802D1*
X23220Y65665D1*
X23217Y66068D1*
X26063D1*
Y63756D1*
X27758Y63764D1*
X39325D1*
X41099Y65547D1*
X41198Y65937D1*
X41352Y66214D1*
X41564Y66450D1*
X41822Y66634D1*
X42114Y66756D1*
X42426Y66812D1*
X42742Y66798D1*
X43048Y66714D1*
X43328Y66566D1*
X43568Y66360D1*
X43758Y66106D1*
X43887Y65816D1*
X43955Y65380D1*
X43920Y65065D1*
X43817Y64766D1*
X43650Y64496D1*
X43429Y64269D1*
X43163Y64097D1*
X42856Y63986D1*
X40632Y61762D1*
X40380Y61570D1*
X39994Y61434D1*
X39167Y61419D1*
X33343D1*
X33345Y57601D1*
X33513Y57431D1*
X33899Y57387D1*
X34200Y57288D1*
X34477Y57134D1*
X34720Y56931D1*
X34802Y56831D1*
X34912Y56962D1*
X35160Y57159D1*
X35441Y57305D1*
X35745Y57396D1*
X36061Y57428D1*
X36376Y57400D1*
X36681Y57312D1*
X36964Y57169D1*
X37215Y56975D1*
X37339Y56844D1*
X37498Y57005D1*
X37754Y57192D1*
X38041Y57328D1*
X38348Y57407D1*
X38664Y57427D1*
X38979Y57387D1*
X39280Y57288D1*
X39557Y57134D1*
X39800Y56931D1*
X39882Y56831D1*
X40038Y57005D1*
X40294Y57192D1*
X40581Y57328D1*
X40888Y57407D1*
X41204Y57427D1*
X41519Y57387D1*
X41820Y57288D1*
X42097Y57134D1*
X42340Y56931D1*
X42422Y56831D1*
X42618Y57034D1*
X42617Y57710D1*
X42362Y57979D1*
X42198Y58250D1*
X42084Y58546D1*
X42025Y58858D1*
X42023Y59175D1*
X42077Y59488D1*
X42186Y59785D1*
X42346Y60059D1*
X42553Y60300D1*
X42799Y60500D1*
X43076Y60653D1*
X43377Y60754D1*
X43690Y60800D1*
X44007Y60790D1*
X44317Y60723D1*
X44610Y60602D1*
X44877Y60430D1*
X45059Y60262D1*
X45339Y60500D1*
X45616Y60653D1*
X45917Y60754D1*
X46230Y60800D1*
X46547Y60790D1*
X46857Y60723D1*
X47150Y60602D1*
X47417Y60430D1*
X47599Y60262D1*
X47879Y60500D1*
X48156Y60653D1*
X48457Y60754D1*
X48770Y60800D1*
X49087Y60790D1*
X49397Y60723D1*
X49690Y60602D1*
X49957Y60430D1*
X50139Y60262D1*
X50380Y60469D1*
X50387Y62422D1*
X50441Y62734D1*
X50628Y63045D1*
X52880Y65298D1*
X53138Y65479D1*
X53491Y65567D1*
X55368Y65568D1*
X59600Y69795D1*
X59622Y70177D1*
X59712Y70481D1*
X59866Y70758D1*
X60078Y70994D1*
X60336Y71178D1*
X60628Y71300D1*
X60940Y71356D1*
X61148Y71347D1*
X62129Y72324D1*
X62135Y73406D1*
X61971Y73533D1*
X61751Y73760D1*
X61577Y74026D1*
X61457Y74319D1*
X61394Y74630D1*
X61391Y74947D1*
X61447Y75259D1*
X61562Y75554D1*
X61730Y75823D1*
X61970Y76073D1*
X61751Y76300D1*
X61577Y76566D1*
X61457Y76859D1*
X61394Y77170D1*
X61391Y77487D1*
X61447Y77799D1*
X61562Y78094D1*
X61730Y78363D1*
X61970Y78613D1*
X61751Y78840D1*
X61577Y79106D1*
X61457Y79399D1*
X61394Y79710D1*
X61391Y80027D1*
X61447Y80339D1*
X61562Y80634D1*
X61730Y80903D1*
X61946Y81135D1*
X62202Y81322D1*
X62488Y81458D1*
X62795Y81537D1*
X63112Y81557D1*
X63426Y81517D1*
X63727Y81418D1*
X64004Y81264D1*
X64248Y81061D1*
X64448Y80815D1*
X64599Y80536D1*
X64694Y80234D1*
X64730Y79885D1*
X64700Y79569D1*
X64611Y79265D1*
X64466Y78983D1*
X64271Y78734D1*
X64146Y78615D1*
X64453Y78266D1*
X64645Y78268D1*
X64956Y78214D1*
X65267Y78027D1*
X65933Y77363D1*
X66114Y77104D1*
X66202Y76752D1*
X66203Y72592D1*
X71979Y78364D1*
X71977Y80431D1*
X71844Y80387D1*
X71528Y80372D1*
X71219Y80443D1*
X71003Y80563D1*
X70874Y80488D1*
X70574Y80387D1*
X70258Y80372D1*
X69949Y80443D1*
X69733Y80563D1*
X69487Y80438D1*
X69241Y80377D1*
X68988Y80372D1*
X68739Y80422D1*
X68508Y80526D1*
X68444Y80551D1*
X68217Y80438D1*
X67971Y80377D1*
X67718Y80372D1*
X67469Y80422D1*
X67238Y80526D1*
X67035Y80678D1*
X66870Y80870D1*
X66752Y81095D1*
X66686Y81339D1*
X66672Y81642D1*
X66681Y82207D1*
X66740Y82453D1*
X66851Y82681D1*
X67010Y82878D1*
X67208Y83036D1*
X67437Y83147D1*
X67683Y83205D1*
X67937Y83207D1*
X68185Y83153D1*
X68415Y83047D1*
X68456Y83020D1*
X68647Y83124D1*
X68891Y83195D1*
X69144Y83212D1*
X69394Y83172D1*
X69629Y83078D1*
X69726Y83020D1*
X70037Y83166D1*
X70350Y83213D1*
X70664Y83172D1*
X70993Y83016D1*
X71307Y83166D1*
X71620Y83213D1*
X71934Y83172D1*
X72263Y83016D1*
X72577Y83166D1*
X72890Y83213D1*
X73204Y83172D1*
X73533Y83016D1*
X73847Y83166D1*
X74160Y83213D1*
X74474Y83172D1*
X74803Y83016D1*
X75117Y83166D1*
X75430Y83213D1*
X75744Y83172D1*
X76073Y83016D1*
X76387Y83166D1*
X76700Y83213D1*
X77014Y83172D1*
X77343Y83016D1*
X77657Y83167D1*
X77970Y83213D1*
X78284Y83172D1*
X78613Y83016D1*
X78927Y83166D1*
X79240Y83213D1*
X79554Y83172D1*
X79883Y83016D1*
X80197Y83166D1*
X80510Y83213D1*
X80824Y83172D1*
X81153Y83016D1*
X81467Y83166D1*
X81780Y83213D1*
X82094Y83172D1*
X82385Y83047D1*
X82630Y82847D1*
X82812Y82588D1*
X82916Y82289D1*
X82937Y82065D1*
X82928Y81515D1*
X82894Y81201D1*
X82766Y80912D1*
X82564Y80668D1*
X82304Y80488D1*
X82004Y80387D1*
X81688Y80372D1*
X81379Y80443D1*
X81163Y80563D1*
X81034Y80488D1*
X80734Y80387D1*
X80418Y80372D1*
X80109Y80443D1*
X79893Y80563D1*
X79764Y80488D1*
X79464Y80387D1*
X79148Y80372D1*
X78839Y80443D1*
X78623Y80563D1*
X78494Y80489D1*
X78194Y80387D1*
X77878Y80372D1*
X77569Y80443D1*
X77353Y80563D1*
X77224Y80488D1*
X76924Y80387D1*
X76608Y80372D1*
X76367Y80427D1*
X76363Y78615D1*
X76309Y78304D1*
X76122Y77993D1*
X57311Y59181D1*
X57313Y57154D1*
X57580Y56931D1*
X57662Y56831D1*
X57818Y57005D1*
X58074Y57192D1*
X58361Y57328D1*
X58668Y57407D1*
X58984Y57427D1*
X59299Y57387D1*
X59600Y57288D1*
X59877Y57134D1*
X60120Y56931D1*
X60202Y56831D1*
X60358Y57005D1*
X60614Y57192D1*
X60901Y57328D1*
X61208Y57407D1*
X61524Y57427D1*
X61839Y57387D1*
X62140Y57288D1*
X62417Y57134D1*
X62660Y56931D1*
X62861Y56685D1*
X63011Y56406D1*
X63106Y56104D1*
X63143Y55755D1*
X63113Y55439D1*
X63024Y55135D1*
X62879Y54853D1*
X62684Y54604D1*
X62445Y54395D1*
X62171Y54236D1*
X61871Y54131D1*
X61558Y54084D1*
X61241Y54098D1*
X60932Y54171D1*
X60643Y54301D1*
X60384Y54483D1*
X60198Y54675D1*
X59905Y54395D1*
X59631Y54236D1*
X59331Y54131D1*
X59018Y54084D1*
X58701Y54098D1*
X58392Y54171D1*
X58103Y54301D1*
X57844Y54483D1*
X57658Y54675D1*
X57365Y54395D1*
X57091Y54236D1*
X56791Y54131D1*
X56478Y54084D1*
X56161Y54098D1*
X55852Y54171D1*
X55563Y54301D1*
X55304Y54483D1*
X55118Y54675D1*
X54825Y54395D1*
X54551Y54236D1*
X54251Y54131D1*
X53938Y54084D1*
X53621Y54098D1*
X53312Y54171D1*
X53023Y54301D1*
X52764Y54483D1*
X52578Y54675D1*
X52285Y54395D1*
X52011Y54236D1*
X51711Y54131D1*
X51398Y54084D1*
X51081Y54098D1*
X50772Y54171D1*
X50483Y54301D1*
X50224Y54483D1*
X50038Y54675D1*
X49745Y54395D1*
X49471Y54236D1*
X49171Y54131D1*
X48858Y54084D1*
X48541Y54098D1*
X48232Y54171D1*
X47943Y54301D1*
X47684Y54483D1*
X47498Y54675D1*
X47205Y54395D1*
X46931Y54236D1*
X46631Y54131D1*
X46318Y54084D1*
X46001Y54098D1*
X45692Y54171D1*
X45403Y54301D1*
X45144Y54483D1*
X44958Y54675D1*
X44665Y54395D1*
X44391Y54236D1*
X44091Y54131D1*
X43778Y54084D1*
X43461Y54098D1*
X43152Y54171D1*
X42863Y54301D1*
X42604Y54483D1*
X42418Y54675D1*
X42125Y54395D1*
X41851Y54236D1*
X41551Y54131D1*
X41238Y54084D1*
X40815Y54123D1*
X38728Y52027D1*
X38469Y51846D1*
X38117Y51758D1*
X25742Y51757D1*
X26212Y51647D1*
X26806Y51425D1*
X27362Y51118D1*
X27866Y50734D1*
X28309Y50279D1*
X28680Y49765D1*
X28972Y49201D1*
X29178Y48601D1*
X29294Y47978D1*
X29321Y47500D1*
X29309Y47183D1*
X74309D2*
X74216Y46555D1*
X74032Y45948D1*
X73762Y45374D1*
X73410Y44846D1*
X72985Y44376D1*
X72495Y43972D1*
X71951Y43645D1*
X71366Y43401D1*
X70751Y43245D1*
X70120Y43181D1*
X69486Y43210D1*
X68863Y43331D1*
X68265Y43543D1*
X67704Y43840D1*
X67193Y44215D1*
X66742Y44662D1*
X66362Y45169D1*
X66060Y45727D1*
X65842Y46323D1*
X65715Y46945D1*
X65680Y47578D1*
X65738Y48210D1*
X65888Y48826D1*
X66126Y49414D1*
X66448Y49961D1*
X66847Y50454D1*
X67314Y50884D1*
X67838Y51241D1*
X68409Y51517D1*
X69015Y51707D1*
X69641Y51806D1*
X70276Y51812D1*
X70904Y51725D1*
X71513Y51547D1*
X72090Y51282D1*
X72621Y50935D1*
X73096Y50514D1*
X73504Y50029D1*
X73836Y49488D1*
X74086Y48905D1*
X74248Y48292D1*
X74318Y47661D1*
X74309Y47183D1*
X25648Y35119D2*
X25623Y35034D1*
X25990Y34934D1*
X26263Y34774D1*
X26494Y34557D1*
X26671Y34294D1*
X26786Y33999D1*
X26833Y33635D1*
X26798Y33320D1*
X26694Y33021D1*
X26526Y32752D1*
X26303Y32527D1*
X26035Y32357D1*
X25737Y32250D1*
X25423Y32212D1*
X25107Y32245D1*
X24807Y32346D1*
X24537Y32511D1*
X24388Y32656D1*
X24289Y32275D1*
X24077Y31907D1*
X27428Y31913D1*
X33512Y37993D1*
X33771Y38174D1*
X34123Y38262D1*
X42668Y38263D1*
X43293Y38884D1*
X42863Y39061D1*
X42604Y39243D1*
X42418Y39435D1*
X42273Y39275D1*
X42019Y39085D1*
X41733Y38947D1*
X41427Y38865D1*
X41111Y38843D1*
X40796Y38880D1*
X40494Y38976D1*
X40215Y39128D1*
X39970Y39329D1*
X39880Y39426D1*
X39585Y39155D1*
X39311Y38996D1*
X39011Y38891D1*
X38698Y38844D1*
X38381Y38858D1*
X38072Y38931D1*
X37783Y39061D1*
X37524Y39243D1*
X37338Y39435D1*
X37045Y39155D1*
X36771Y38996D1*
X36471Y38891D1*
X36158Y38844D1*
X35841Y38858D1*
X35532Y38931D1*
X35243Y39061D1*
X34984Y39243D1*
X34798Y39435D1*
X34505Y39155D1*
X34231Y38996D1*
X33931Y38891D1*
X33618Y38844D1*
X33301Y38858D1*
X32992Y38931D1*
X32703Y39061D1*
X32444Y39243D1*
X32223Y39470D1*
X32142Y39595D1*
X16593Y39592D1*
X14812Y37807D1*
X14807Y34523D1*
X16367Y36088D1*
X16626Y36269D1*
X16978Y36357D1*
X17526Y36358D1*
X17813Y36685D1*
X18069Y36872D1*
X18356Y37008D1*
X18663Y37087D1*
X18979Y37107D1*
X19294Y37067D1*
X19595Y36968D1*
X19872Y36814D1*
X20115Y36611D1*
X20197Y36511D1*
X20353Y36685D1*
X20609Y36872D1*
X20896Y37008D1*
X21203Y37087D1*
X21519Y37107D1*
X21834Y37067D1*
X22135Y36968D1*
X22412Y36814D1*
X22655Y36611D1*
X22737Y36511D1*
X22893Y36685D1*
X23149Y36872D1*
X23436Y37008D1*
X23743Y37087D1*
X24059Y37107D1*
X24374Y37067D1*
X24675Y36968D1*
X24952Y36814D1*
X25195Y36611D1*
X25396Y36365D1*
X25546Y36086D1*
X25641Y35784D1*
X25678Y35435D1*
X25648Y35119D1*
X29950Y66970D2*
X29847Y66671D1*
X29680Y66401D1*
X29459Y66174D1*
X29193Y66002D1*
X28896Y65892D1*
X28581Y65850D1*
X28266Y65879D1*
X27964Y65975D1*
X27691Y66136D1*
X27460Y66352D1*
X27281Y66614D1*
X27165Y66909D1*
X27116Y67222D1*
X27138Y67538D1*
X27228Y67842D1*
X27382Y68119D1*
X27594Y68355D1*
X27852Y68539D1*
X28144Y68661D1*
X28456Y68717D1*
X28772Y68703D1*
X29078Y68619D1*
X29358Y68471D1*
X29598Y68265D1*
X29788Y68011D1*
X29917Y67721D1*
X29985Y67285D1*
X29950Y66970D1*
Y56810D2*
X29847Y56511D1*
X29680Y56241D1*
X29459Y56014D1*
X29193Y55842D1*
X28896Y55732D1*
X28581Y55690D1*
X28266Y55719D1*
X27964Y55815D1*
X27691Y55976D1*
X27460Y56192D1*
X27281Y56454D1*
X27165Y56749D1*
X27116Y57062D1*
X27138Y57378D1*
X27228Y57682D1*
X27382Y57959D1*
X27594Y58195D1*
X27852Y58379D1*
X28144Y58501D1*
X28456Y58557D1*
X28772Y58543D1*
X29078Y58459D1*
X29358Y58311D1*
X29598Y58105D1*
X29788Y57851D1*
X29917Y57561D1*
X29985Y57125D1*
X29950Y56810D1*
X33760Y65065D2*
X33657Y64766D1*
X33490Y64496D1*
X33269Y64269D1*
X33003Y64097D1*
X32706Y63987D1*
X32391Y63945D1*
X32076Y63974D1*
X31774Y64070D1*
X31501Y64231D1*
X31270Y64447D1*
X31091Y64709D1*
X30975Y65004D1*
X30926Y65317D1*
X30948Y65633D1*
X31038Y65937D1*
X31192Y66214D1*
X31404Y66450D1*
X31662Y66634D1*
X31954Y66756D1*
X32266Y66812D1*
X32582Y66798D1*
X32888Y66714D1*
X33168Y66566D1*
X33408Y66360D1*
X33598Y66106D1*
X33727Y65816D1*
X33795Y65380D1*
X33760Y65065D1*
X74445Y28764D2*
X74360Y28458D1*
X74223Y28173D1*
X74037Y27916D1*
X73808Y27696D1*
X73544Y27521D1*
X73253Y27396D1*
X72944Y27324D1*
X72627Y27309D1*
X72313Y27350D1*
X72011Y27446D1*
X71731Y27595D1*
X71482Y27792D1*
X71272Y28029D1*
X71108Y28300D1*
X70994Y28596D1*
X70935Y28908D1*
X70933Y29225D1*
X70987Y29538D1*
X71096Y29835D1*
X71256Y30109D1*
X71463Y30350D1*
X71709Y30550D1*
X71986Y30703D1*
X72287Y30804D1*
X72600Y30850D1*
X72917Y30840D1*
X73227Y30773D1*
X73520Y30652D1*
X73787Y30480D1*
X74019Y30264D1*
X74209Y30010D1*
X74351Y29727D1*
X74440Y29422D1*
X74473Y29080D1*
X74445Y28764D1*
X74472Y34097D2*
X74432Y33782D1*
X74337Y33479D1*
X74190Y33199D1*
X73995Y32949D1*
X73758Y32737D1*
X73488Y32572D1*
X73192Y32457D1*
X72881Y32396D1*
X72564Y32392D1*
X72251Y32445D1*
X71953Y32552D1*
X71678Y32711D1*
X71437Y32916D1*
X71235Y33161D1*
X71081Y33438D1*
X70978Y33738D1*
X70930Y34051D1*
X70939Y34368D1*
X71005Y34679D1*
X71124Y34972D1*
X71294Y35240D1*
X71509Y35473D1*
X71762Y35664D1*
X72045Y35807D1*
X72349Y35898D1*
X72664Y35933D1*
X72980Y35911D1*
X73288Y35833D1*
X73576Y35701D1*
X73837Y35521D1*
X74061Y35296D1*
X74242Y35036D1*
X74373Y34747D1*
X74451Y34440D1*
X74472Y34097D1*
X41108Y31383D2*
X41003Y30757D1*
X40796Y30158D1*
X40492Y29601D1*
X40101Y29102D1*
X39633Y28674D1*
X39100Y28330D1*
X38518Y28078D1*
X37902Y27927D1*
X37269Y27879D1*
X36638Y27937D1*
X36024Y28098D1*
X35446Y28359D1*
X34919Y28712D1*
X34457Y29147D1*
X34074Y29652D1*
X33780Y30214D1*
X33583Y30817D1*
X33488Y31444D1*
X33498Y32078D1*
X33613Y32702D1*
X33830Y33298D1*
X34142Y33850D1*
X34541Y34343D1*
X35016Y34763D1*
X35554Y35099D1*
X36141Y35341D1*
X36759Y35482D1*
X37392Y35520D1*
X38023Y35452D1*
X38634Y35281D1*
X39208Y35011D1*
X39729Y34649D1*
X40183Y34207D1*
X40558Y33695D1*
X40844Y33129D1*
X41031Y32523D1*
X41116Y31894D1*
X41108Y31383D1*
X76508Y16183D2*
X76403Y15557D1*
X76196Y14958D1*
X75892Y14401D1*
X75501Y13902D1*
X75033Y13474D1*
X74500Y13130D1*
X73918Y12878D1*
X73302Y12727D1*
X72669Y12679D1*
X72038Y12737D1*
X71424Y12898D1*
X70846Y13159D1*
X70319Y13512D1*
X69857Y13947D1*
X69474Y14452D1*
X69180Y15014D1*
X68983Y15617D1*
X68888Y16244D1*
X68898Y16878D1*
X69013Y17502D1*
X69230Y18098D1*
X69542Y18650D1*
X69941Y19143D1*
X70416Y19563D1*
X70954Y19899D1*
X71541Y20141D1*
X72159Y20282D1*
X72792Y20320D1*
X73423Y20252D1*
X74034Y20081D1*
X74608Y19811D1*
X75129Y19449D1*
X75583Y19007D1*
X75958Y18495D1*
X76244Y17929D1*
X76431Y17323D1*
X76516Y16694D1*
X76508Y16183D1*
X23370Y56184D2*
X23169Y55941D1*
X22922Y55743D1*
X22639Y55601D1*
X22332Y55520D1*
X22016Y55504D1*
X21703Y55555D1*
X21407Y55669D1*
X21141Y55842D1*
X20917Y56066D1*
X20744Y56331D1*
X20630Y56627D1*
X20579Y56940D1*
X20595Y57256D1*
X20675Y57563D1*
X20817Y57846D1*
X21015Y58094D1*
X21260Y58295D1*
X21541Y58442D1*
X21846Y58527D1*
X22162Y58547D1*
X22476Y58501D1*
X22773Y58391D1*
X23042Y58222D1*
X23269Y58001D1*
X23369Y57866D1*
X23601Y58138D1*
X23853Y58329D1*
X24140Y58464D1*
X24449Y58536D1*
X24766Y58543D1*
X25077Y58484D1*
X25370Y58362D1*
X25631Y58182D1*
X25849Y57952D1*
X26014Y57681D1*
X26120Y57383D1*
X26163Y57025D1*
X26130Y56710D1*
X26032Y56408D1*
X25875Y56133D1*
X25663Y55897D1*
X25408Y55710D1*
X25119Y55579D1*
X24809Y55512D1*
X24492Y55509D1*
X24182Y55573D1*
X23891Y55699D1*
X23633Y55883D1*
X23373Y56192D1*
X10953Y83730D2*
Y10953D1*
X84047D1*
Y84047D1*
X10953D1*
Y83730D1*
X59605Y28285D2*
D18*
X61615Y26275D1*
Y28285D2*
X59605Y26275D1*
X17484Y69986D2*
X19848Y67622D1*
Y69986D2*
X17484Y67622D1*
X17655Y32895D2*
X18837Y31713D1*
X17655Y32895D2*
X16473Y31713D1*
X64858Y61573D2*
X67222Y59209D1*
Y61573D2*
X64858Y59209D1*
X61875Y81067D2*
X64240Y78703D1*
Y81067D2*
X61875Y78703D1*
X45695Y82292D2*
Y78948D1*
X44553Y80620D2*
X45695D1*
X58290Y20567D2*
Y17023D1*
X55068Y18795D2*
X58290D1*
X71447Y35413D2*
X73953Y32907D1*
Y35413D2*
X71447Y32907D1*
X67820Y83212D2*
Y80368D1*
X66674Y81790D2*
X67820D1*
X69090Y83212D2*
Y80368D1*
X34888Y56937D2*
X37252Y54573D1*
Y56937D2*
X34888Y54573D1*
X39968Y41697D2*
X42332Y39333D1*
Y41697D2*
X39968Y39333D1*
X21024Y58101D2*
X23176Y55949D1*
Y58101D2*
X21024Y55949D1*
X19720Y25333D2*
X22084Y22968D1*
Y25333D2*
X20902Y24151D1*
D20*
X64110Y27280D3*
D21*
X60610D3*
D22*
X38600Y16100D3*
Y18900D3*
D23*
X64427Y33630D3*
D24*
X53377D3*
D23*
X55755Y70043D3*
D24*
Y81092D3*
D23*
X76810Y41885D3*
D24*
Y52935D3*
D25*
X72900Y62845D3*
Y57025D3*
D26*
X33600Y17600D3*
Y15060D3*
X13586Y68804D3*
X16126D3*
X18666D3*
D27*
X24005Y35435D3*
X22735Y32895D3*
X21465Y35435D3*
X20195Y32895D3*
X18925Y35435D3*
X17655Y32895D3*
D26*
X66040Y62931D3*
Y60391D3*
X63058Y74805D3*
Y77345D3*
Y79885D3*
X48135Y73853D3*
Y71313D3*
D28*
X53315Y23470D3*
X43115D3*
D29*
X51410Y59030D3*
X48870D3*
X46330D3*
X43790D3*
G36*
X48730Y81370D2*
X48485Y81620D1*
X47985D1*
X47740Y81370D1*
Y79870D1*
X47985Y79620D1*
X48485D1*
X48730Y79870D1*
Y81370D1*
G37*
D30*
X46965Y80620D3*
X45695D3*
D31*
X63475Y20295D3*
Y17495D3*
X66650Y20295D3*
Y17495D3*
D32*
X28550Y67285D3*
D33*
Y57125D3*
D32*
X42520Y65380D3*
D33*
X32360D3*
D32*
X18013Y42520D3*
D33*
Y52680D3*
D32*
X53850Y62740D3*
D33*
X61034Y69924D3*
D35*
X56490Y20295D3*
G36*
X57890Y19895D2*
X57440Y19295D1*
X55740D1*
Y18295D1*
X57440D1*
X57890Y17695D1*
X58690D1*
X59140Y18295D1*
X60840D1*
Y19295D1*
X59140D1*
X58690Y19895D1*
X57890D1*
G37*
D35*
X56490Y17295D3*
X60090Y20295D3*
Y17295D3*
D36*
X72700Y24000D3*
Y29080D3*
Y34160D3*
D37*
X67820Y81790D3*
X69090D3*
X70360D3*
X71630D3*
X72900D3*
X74170D3*
X75440D3*
X76710D3*
X77980D3*
X79250D3*
X80520D3*
X81790D3*
D27*
X61470Y55755D3*
X58930D3*
X56390D3*
X53850D3*
X51310D3*
X48770D3*
X46230D3*
X43690D3*
X41150D3*
X38610D3*
X36070D3*
X33530D3*
Y40515D3*
X36070D3*
X38610D3*
X41150D3*
X43690D3*
X46230D3*
X48770D3*
X51310D3*
X53850D3*
X56390D3*
X58930D3*
X61470D3*
D20*
X24640Y64645D3*
D38*
X22100D3*
Y57025D3*
X24640D3*
D26*
X18362Y24151D3*
Y21611D3*
Y19071D3*
Y16531D3*
X20902D3*
Y19071D3*
Y21611D3*
Y24151D3*
M02*
