G04 DipTrace 2.4.0.2*
%INTopSilk.gto*%
%MOMM*%
%ADD10C,0.25*%
%ADD34C,0.391*%
%ADD75C,0.152*%
%ADD76C,0.196*%
%ADD77C,0.314*%
%ADD78C,0.157*%
%FSLAX53Y53*%
G04*
G71*
G90*
G75*
G01*
%LNTopSilk*%
%LPD*%
X58360Y27280D2*
D10*
G02X58360Y27280I4000J0D01*
G01*
X65560Y27580D2*
Y26980D1*
X65860Y27280D2*
X65260D1*
X39850Y17390D2*
X37350D1*
X39850Y17201D2*
X37350D1*
X39850D2*
Y17799D1*
X37350Y17201D2*
Y17799D1*
X61305Y35030D2*
Y32230D1*
X61254D2*
X56551D1*
X60547Y35030D2*
Y32230D1*
X56551Y35030D2*
Y32230D1*
X61254Y35030D2*
X56551D1*
X57155Y73165D2*
X54355D1*
Y73216D2*
Y77919D1*
X57155Y73923D2*
X54355D1*
X57155Y77919D2*
X54355D1*
X57155Y73216D2*
Y77919D1*
X78210Y45007D2*
X75410D1*
Y45058D2*
Y49762D1*
X78210Y45765D2*
X75410D1*
X78210Y49762D2*
X75410D1*
X78210Y45058D2*
Y49762D1*
X36700Y18830D2*
Y13830D1*
X30300D1*
X36700Y18830D2*
X30300D1*
Y13830D1*
G36*
X36775Y17600D2*
X35505D1*
Y15060D1*
X36775D1*
Y17600D1*
G37*
X12326Y71904D2*
D10*
X19926D1*
Y65604D1*
X12326D1*
Y71904D1*
G36*
X13586Y71979D2*
X18665D1*
Y70708D1*
X13586D1*
Y71979D1*
G37*
X25630Y34665D2*
D10*
Y36765D1*
X15930Y31565D2*
Y36765D1*
Y31565D2*
X25630D1*
Y36765D2*
X15930D1*
X25630Y31565D2*
Y32665D1*
X69140Y64161D2*
Y59161D1*
X62740D1*
X69140Y64161D2*
X62740D1*
Y59161D1*
G36*
X69215Y62931D2*
X67945D1*
Y60391D1*
X69215D1*
Y62931D1*
G37*
X51235Y75083D2*
D10*
Y70083D1*
X44835D1*
X51235Y75083D2*
X44835D1*
Y70083D1*
G36*
X51310Y73853D2*
X50040D1*
Y71313D1*
X51310D1*
Y73853D1*
G37*
X55215Y16970D2*
D10*
X41215D1*
Y29970D1*
X55215D1*
Y16970D1*
X50214Y23470D2*
G03X49215Y23470I-500J1D01*
G01*
G03X48215Y23470I-500J1D01*
G01*
G03X47215Y23470I-500J1D01*
G01*
G03X46216Y23470I-500J1D01*
G01*
X45215D1*
X50214D2*
X51215D1*
X48886Y81970D2*
G02X45044Y81970I-1921J-1691D01*
G01*
X48886D1*
X62676Y19194D2*
Y18596D1*
X64274Y19194D2*
Y18596D1*
X65851Y19194D2*
Y18596D1*
X67449Y19194D2*
Y18596D1*
X27280Y59670D2*
Y64740D1*
X29820D2*
X27280D1*
X29820Y59670D2*
Y64740D1*
Y59670D2*
X27280D1*
X34905Y66650D2*
X39975D1*
Y64110D2*
Y66650D1*
X34905Y64110D2*
X39975D1*
X34905D2*
Y66650D1*
X19283Y50135D2*
Y45065D1*
X16743D2*
X19283D1*
X16743Y50135D2*
Y45065D1*
Y50135D2*
X19283D1*
X60133Y67227D2*
X56547Y63641D1*
X54751Y65437D2*
X56547Y63641D1*
X58337Y69023D2*
X54751Y65437D1*
X58337Y69023D2*
X60133Y67227D1*
X57041Y21045D2*
X59539D1*
X61465Y19430D2*
Y18160D1*
Y18795D2*
X62100D1*
X59539Y16545D2*
X57041D1*
D34*
X56001Y21276D3*
X32000Y37100D2*
D10*
X79000D1*
Y11100D1*
X32000D1*
Y37100D1*
X83298Y83060D2*
Y80563D1*
Y66560D2*
X66300D1*
Y80563D2*
Y83060D1*
X83298D1*
Y80563D2*
X66300D1*
X83298D2*
Y66560D1*
X66300Y80563D2*
Y66560D1*
X64500Y39135D2*
X30500D1*
Y57135D1*
X64500D1*
Y39135D1*
X25910Y63375D2*
X20830D1*
Y58295D1*
X25910D1*
Y63375D1*
G36*
D2*
X20830D1*
Y62740D1*
X25910D1*
Y63375D1*
G37*
X24570Y62018D2*
D10*
X24571Y62046D1*
X24574Y62073D1*
X24579Y62101D1*
X24585Y62128D1*
X24594Y62154D1*
X24604Y62180D1*
X24617Y62205D1*
X24631Y62230D1*
X24646Y62253D1*
X24663Y62275D1*
X24682Y62295D1*
X24702Y62315D1*
X24724Y62333D1*
X24746Y62349D1*
X24770Y62364D1*
X24795Y62377D1*
X24820Y62388D1*
X24846Y62398D1*
X24873Y62406D1*
X24900Y62411D1*
X24928Y62415D1*
X24956Y62417D1*
X24984D1*
X25012Y62415D1*
X25039Y62411D1*
X25067Y62406D1*
X25094Y62398D1*
X25120Y62388D1*
X25145Y62377D1*
X25170Y62364D1*
X25194Y62349D1*
X25216Y62333D1*
X25238Y62315D1*
X25258Y62295D1*
X25276Y62275D1*
X25294Y62253D1*
X25309Y62230D1*
X25323Y62205D1*
X25335Y62180D1*
X25346Y62154D1*
X25354Y62128D1*
X25361Y62101D1*
X25366Y62073D1*
X25369Y62046D1*
X25370Y62018D1*
X25369Y61990D1*
X25366Y61962D1*
X25361Y61935D1*
X25354Y61908D1*
X25346Y61881D1*
X25335Y61855D1*
X25323Y61830D1*
X25309Y61806D1*
X25294Y61783D1*
X25276Y61761D1*
X25258Y61740D1*
X25238Y61721D1*
X25216Y61703D1*
X25194Y61686D1*
X25170Y61671D1*
X25145Y61658D1*
X25120Y61647D1*
X25094Y61637D1*
X25067Y61630D1*
X25039Y61624D1*
X25012Y61620D1*
X24984Y61618D1*
X24956D1*
X24928Y61620D1*
X24900Y61624D1*
X24873Y61630D1*
X24846Y61637D1*
X24820Y61647D1*
X24795Y61658D1*
X24770Y61671D1*
X24746Y61686D1*
X24724Y61703D1*
X24702Y61721D1*
X24682Y61740D1*
X24663Y61761D1*
X24646Y61783D1*
X24631Y61806D1*
X24617Y61830D1*
X24604Y61855D1*
X24594Y61881D1*
X24585Y61908D1*
X24579Y61935D1*
X24574Y61962D1*
X24571Y61990D1*
X24570Y62018D1*
X15822Y27541D2*
X13282D1*
Y12721D1*
X15822D1*
Y27541D1*
X66411Y30749D2*
D75*
X66368Y30821D1*
X66280Y30895D1*
X66193Y30931D1*
X66018D1*
X65930Y30895D1*
X65843Y30821D1*
X65799Y30749D1*
X65755Y30639D1*
Y30457D1*
X65799Y30348D1*
X65843Y30275D1*
X65930Y30202D1*
X66018Y30165D1*
X66193D1*
X66280Y30202D1*
X66368Y30275D1*
X66411Y30348D1*
X66776Y30784D2*
X66864Y30821D1*
X66995Y30930D1*
Y30165D1*
X66525Y29525D2*
X66613Y29562D1*
X66745Y29671D1*
Y28906D1*
X67372Y29671D2*
X67241Y29635D1*
X67153Y29525D1*
X67109Y29343D1*
Y29234D1*
X67153Y29052D1*
X67241Y28942D1*
X67372Y28906D1*
X67459D1*
X67591Y28942D1*
X67677Y29052D1*
X67722Y29234D1*
Y29343D1*
X67677Y29525D1*
X67591Y29635D1*
X67459Y29671D1*
X67372D1*
X67677Y29525D2*
X67153Y29052D1*
X68350Y29671D2*
X68218Y29635D1*
X68130Y29525D1*
X68087Y29343D1*
Y29234D1*
X68130Y29052D1*
X68218Y28942D1*
X68350Y28906D1*
X68436D1*
X68568Y28942D1*
X68655Y29052D1*
X68699Y29234D1*
Y29343D1*
X68655Y29525D1*
X68568Y29635D1*
X68436Y29671D1*
X68350D1*
X68655Y29525D2*
X68130Y29052D1*
X69064Y29417D2*
Y29052D1*
X69108Y28943D1*
X69195Y28906D1*
X69327D1*
X69414Y28943D1*
X69545Y29052D1*
Y29417D2*
Y28906D1*
X70260Y29672D2*
X70173D1*
X70085Y29636D1*
X70041Y29526D1*
Y28906D1*
X69910Y29417D2*
X70216D1*
X38122Y14214D2*
X38078Y14286D1*
X37990Y14359D1*
X37904Y14396D1*
X37729D1*
X37641Y14359D1*
X37554Y14286D1*
X37509Y14214D1*
X37466Y14104D1*
Y13921D1*
X37509Y13813D1*
X37554Y13739D1*
X37641Y13667D1*
X37729Y13630D1*
X37904D1*
X37990Y13667D1*
X38078Y13739D1*
X38122Y13813D1*
X38531Y14213D2*
Y14249D1*
X38575Y14322D1*
X38618Y14359D1*
X38706Y14395D1*
X38881D1*
X38968Y14359D1*
X39011Y14322D1*
X39056Y14249D1*
Y14177D1*
X39011Y14103D1*
X38924Y13995D1*
X38487Y13630D1*
X39099D1*
X58235Y36469D2*
Y35704D1*
X58541D1*
X58673Y35741D1*
X58761Y35813D1*
X58804Y35887D1*
X58848Y35995D1*
Y36178D1*
X58804Y36287D1*
X58761Y36360D1*
X58673Y36433D1*
X58541Y36469D1*
X58235D1*
X59213Y36323D2*
X59300Y36360D1*
X59432Y36469D1*
Y35704D1*
X54971Y83731D2*
Y82965D1*
X55277D1*
X55409Y83002D1*
X55497Y83075D1*
X55540Y83148D1*
X55583Y83257D1*
Y83440D1*
X55540Y83549D1*
X55497Y83622D1*
X55409Y83695D1*
X55277Y83731D1*
X54971D1*
X55993Y83548D2*
Y83584D1*
X56036Y83658D1*
X56080Y83694D1*
X56168Y83730D1*
X56342D1*
X56429Y83694D1*
X56473Y83658D1*
X56517Y83584D1*
Y83512D1*
X56473Y83439D1*
X56386Y83330D1*
X55948Y82965D1*
X56561D1*
X73398Y51406D2*
Y50640D1*
X73705D1*
X73836Y50677D1*
X73924Y50750D1*
X73967Y50823D1*
X74011Y50932D1*
Y51114D1*
X73967Y51224D1*
X73924Y51296D1*
X73836Y51370D1*
X73705Y51406D1*
X73398D1*
X74464Y51405D2*
X74944D1*
X74682Y51114D1*
X74813D1*
X74900Y51077D1*
X74944Y51041D1*
X74988Y50932D1*
Y50859D1*
X74944Y50750D1*
X74857Y50676D1*
X74725Y50640D1*
X74594D1*
X74464Y50676D1*
X74420Y50714D1*
X74376Y50786D1*
X72892Y65961D2*
X72323D1*
Y65195D1*
Y65596D2*
X72673D1*
X73257Y65814D2*
X73345Y65851D1*
X73477Y65960D1*
Y65195D1*
X75578Y55781D2*
X75614Y55650D1*
X75723Y55562D1*
X75905Y55518D1*
X76015D1*
X76197Y55562D1*
X76306Y55650D1*
X76343Y55781D1*
Y55868D1*
X76306Y55999D1*
X76197Y56086D1*
X76015Y56131D1*
X75905D1*
X75723Y56086D1*
X75614Y55999D1*
X75578Y55868D1*
Y55781D1*
X75723Y56086D2*
X76197Y55562D1*
X75686Y57020D2*
X75614Y56977D1*
X75578Y56845D1*
Y56758D1*
X75614Y56627D1*
X75723Y56539D1*
X75905Y56496D1*
X76087D1*
X76233Y56539D1*
X76306Y56627D1*
X76343Y56758D1*
Y56802D1*
X76306Y56932D1*
X76233Y57020D1*
X76124Y57064D1*
X76087D1*
X75978Y57020D1*
X75905Y56932D1*
X75869Y56802D1*
Y56758D1*
X75905Y56627D1*
X75978Y56539D1*
X76087Y56496D1*
X76343Y57603D2*
X75578Y58041D1*
Y57428D1*
X75832Y58975D2*
X75942Y58930D1*
X76015Y58843D1*
X76051Y58712D1*
Y58669D1*
X76015Y58537D1*
X75942Y58450D1*
X75832Y58406D1*
X75796D1*
X75686Y58450D1*
X75614Y58537D1*
X75578Y58669D1*
Y58712D1*
X75614Y58843D1*
X75686Y58930D1*
X75832Y58975D1*
X76015D1*
X76197Y58930D1*
X76306Y58843D1*
X76343Y58712D1*
Y58625D1*
X76306Y58494D1*
X76233Y58450D1*
X75960Y59340D2*
Y59845D1*
X75832Y60210D2*
X76343Y60691D1*
X75832D2*
X76343Y60210D1*
X75832Y61056D2*
X76343Y61537D1*
X75832D2*
X76343Y61056D1*
X75832Y61902D2*
X76343Y62383D1*
X75832D2*
X76343Y61902D1*
X75832Y62748D2*
X76343Y63229D1*
X75832D2*
X76343Y62748D1*
X75960Y63594D2*
Y64099D1*
X75723Y64464D2*
X75686Y64552D1*
X75578Y64683D1*
X76343D1*
X75760Y65092D2*
X75723D1*
X75650Y65136D1*
X75614Y65179D1*
X75578Y65267D1*
Y65442D1*
X75614Y65529D1*
X75650Y65572D1*
X75723Y65617D1*
X75796D1*
X75869Y65572D1*
X75978Y65486D1*
X76343Y65048D1*
Y65660D1*
X33429Y12986D2*
Y12403D1*
X33386Y12294D1*
X33341Y12258D1*
X33254Y12221D1*
X33166D1*
X33080Y12258D1*
X33036Y12294D1*
X32992Y12403D1*
Y12476D1*
X33794Y12840D2*
X33882Y12877D1*
X34013Y12986D1*
Y12221D1*
X25637Y12482D2*
X26402D1*
X26111Y12847D2*
Y13372D1*
X26038D1*
X25964Y13328D1*
X25928Y13285D1*
X25892Y13197D1*
Y13066D1*
X25928Y12979D1*
X26002Y12891D1*
X26111Y12847D1*
X26183D1*
X26293Y12891D1*
X26365Y12979D1*
X26402Y13066D1*
Y13197D1*
X26365Y13285D1*
X26293Y13372D1*
X25637Y14261D2*
X26402D1*
X26002D2*
X25928Y14174D1*
X25892Y14086D1*
Y13955D1*
X25928Y13868D1*
X26002Y13780D1*
X26111Y13737D1*
X26183D1*
X26293Y13780D1*
X26365Y13868D1*
X26402Y13955D1*
Y14086D1*
X26365Y14174D1*
X26293Y14261D1*
X25892Y15816D2*
X25928Y15729D1*
X26002Y15641D1*
X26111Y15597D1*
X26183D1*
X26293Y15641D1*
X26365Y15729D1*
X26402Y15816D1*
Y15947D1*
X26365Y16035D1*
X26293Y16122D1*
X26183Y16166D1*
X26111D1*
X26002Y16122D1*
X25928Y16035D1*
X25892Y15947D1*
Y15816D1*
Y16531D2*
X26257D1*
X26365Y16575D1*
X26402Y16662D1*
Y16794D1*
X26365Y16881D1*
X26257Y17012D1*
X25892D2*
X26402D1*
X25637Y17508D2*
X26257D1*
X26365Y17552D1*
X26402Y17640D1*
Y17727D1*
X25892Y17377D2*
Y17683D1*
Y18092D2*
X26658D1*
X26002D2*
X25929Y18179D1*
X25892Y18266D1*
Y18398D1*
X25929Y18486D1*
X26002Y18573D1*
X26111Y18617D1*
X26184D1*
X26293Y18573D1*
X26366Y18486D1*
X26402Y18398D1*
Y18266D1*
X26366Y18179D1*
X26293Y18092D1*
X25892Y18982D2*
X26257D1*
X26365Y19025D1*
X26402Y19113D1*
Y19245D1*
X26365Y19332D1*
X26257Y19463D1*
X25892D2*
X26402D1*
X25637Y19959D2*
X26257D1*
X26365Y20003D1*
X26402Y20091D1*
Y20178D1*
X25892Y19828D2*
Y20134D1*
X11147Y68243D2*
X11730D1*
X11840Y68200D1*
X11876Y68155D1*
X11913Y68068D1*
Y67980D1*
X11876Y67893D1*
X11840Y67850D1*
X11730Y67805D1*
X11658D1*
X11330Y68652D2*
X11294D1*
X11221Y68696D1*
X11184Y68739D1*
X11148Y68827D1*
Y69002D1*
X11184Y69089D1*
X11221Y69132D1*
X11294Y69177D1*
X11366D1*
X11440Y69132D1*
X11548Y69045D1*
X11913Y68608D1*
Y69220D1*
X11287Y73430D2*
X11330Y73393D1*
X11374Y73430D1*
X11330Y73467D1*
X11287Y73430D1*
X11330Y73174D2*
Y72664D1*
X11739Y73174D2*
Y72664D1*
Y73029D2*
X11871Y73138D1*
X11959Y73174D1*
X12089D1*
X12177Y73138D1*
X12220Y73029D1*
Y72664D1*
X12585Y73174D2*
Y72409D1*
Y73065D2*
X12673Y73137D1*
X12760Y73174D1*
X12891D1*
X12979Y73137D1*
X13066Y73065D1*
X13111Y72955D1*
Y72882D1*
X13066Y72774D1*
X12979Y72700D1*
X12891Y72664D1*
X12760D1*
X12673Y72700D1*
X12585Y72774D1*
X13476Y73174D2*
Y72810D1*
X13519Y72701D1*
X13607Y72664D1*
X13738D1*
X13825Y72701D1*
X13957Y72810D1*
Y73174D2*
Y72664D1*
X14453Y73430D2*
Y72810D1*
X14496Y72701D1*
X14584Y72664D1*
X14671D1*
X14322Y73174D2*
X14628D1*
X16007Y73283D2*
X16095Y73320D1*
X16227Y73429D1*
Y72664D1*
X16636Y73247D2*
Y73283D1*
X16679Y73356D1*
X16723Y73393D1*
X16811Y73429D1*
X16986D1*
X17073Y73393D1*
X17116Y73356D1*
X17161Y73283D1*
Y73211D1*
X17116Y73137D1*
X17029Y73029D1*
X16591Y72664D1*
X17204D1*
X17569Y73174D2*
X17832Y72664D1*
X18093Y73174D1*
X19911Y73065D2*
X19867Y73138D1*
X19736Y73174D1*
X19604D1*
X19473Y73138D1*
X19429Y73065D1*
X19473Y72993D1*
X19561Y72955D1*
X19779Y72919D1*
X19867Y72883D1*
X19911Y72810D1*
Y72774D1*
X19867Y72701D1*
X19736Y72664D1*
X19604D1*
X19473Y72701D1*
X19429Y72774D1*
X20275Y72955D2*
X20800D1*
Y73029D1*
X20756Y73102D1*
X20713Y73138D1*
X20625Y73174D1*
X20494D1*
X20407Y73138D1*
X20319Y73065D1*
X20275Y72955D1*
Y72883D1*
X20319Y72774D1*
X20407Y72701D1*
X20494Y72664D1*
X20625D1*
X20713Y72701D1*
X20800Y72774D1*
X21165Y73174D2*
Y72664D1*
Y73029D2*
X21296Y73138D1*
X21384Y73174D1*
X21514D1*
X21602Y73138D1*
X21646Y73029D1*
Y72664D1*
X22492Y73065D2*
X22448Y73138D1*
X22317Y73174D1*
X22186D1*
X22054Y73138D1*
X22011Y73065D1*
X22054Y72993D1*
X22142Y72955D1*
X22360Y72919D1*
X22448Y72883D1*
X22492Y72810D1*
Y72774D1*
X22448Y72701D1*
X22317Y72664D1*
X22186D1*
X22054Y72701D1*
X22011Y72774D1*
X23075Y73174D2*
X22988Y73138D1*
X22900Y73065D1*
X22857Y72955D1*
Y72883D1*
X22900Y72774D1*
X22988Y72701D1*
X23075Y72664D1*
X23206D1*
X23294Y72701D1*
X23381Y72774D1*
X23426Y72883D1*
Y72955D1*
X23381Y73065D1*
X23294Y73138D1*
X23206Y73174D1*
X23075D1*
X23790D2*
Y72664D1*
Y72955D2*
X23835Y73065D1*
X23922Y73138D1*
X24010Y73174D1*
X24141D1*
X27125Y35358D2*
Y34775D1*
X27081Y34666D1*
X27037Y34630D1*
X26950Y34592D1*
X26862D1*
X26775Y34630D1*
X26732Y34666D1*
X26687Y34775D1*
Y34848D1*
X27578Y35357D2*
X28058D1*
X27796Y35066D1*
X27927D1*
X28014Y35030D1*
X28058Y34993D1*
X28102Y34884D1*
Y34811D1*
X28058Y34702D1*
X27971Y34629D1*
X27839Y34592D1*
X27708D1*
X27578Y34629D1*
X27534Y34666D1*
X27490Y34738D1*
X15718Y37509D2*
Y38274D1*
X15368Y37509D1*
X15018Y38274D1*
Y37509D1*
X16083Y38274D2*
X16126Y38238D1*
X16171Y38274D1*
X16126Y38311D1*
X16083Y38274D1*
X16126Y38019D2*
Y37509D1*
X17061Y37910D2*
X16973Y37983D1*
X16885Y38019D1*
X16755D1*
X16667Y37983D1*
X16580Y37910D1*
X16535Y37800D1*
Y37728D1*
X16580Y37618D1*
X16667Y37546D1*
X16755Y37509D1*
X16885D1*
X16973Y37546D1*
X17061Y37618D1*
X17426Y38019D2*
Y37509D1*
Y37800D2*
X17470Y37910D1*
X17557Y37983D1*
X17645Y38019D1*
X17777D1*
X18360D2*
X18273Y37983D1*
X18185Y37910D1*
X18141Y37800D1*
Y37728D1*
X18185Y37618D1*
X18273Y37546D1*
X18360Y37509D1*
X18491D1*
X18579Y37546D1*
X18666Y37618D1*
X18710Y37728D1*
Y37800D1*
X18666Y37910D1*
X18579Y37983D1*
X18491Y38019D1*
X18360D1*
X19075Y37891D2*
X19581D1*
X20645Y37509D2*
Y38274D1*
X20295Y37509D1*
X19945Y38274D1*
Y37509D1*
X21534Y38019D2*
Y37509D1*
Y37910D2*
X21447Y37983D1*
X21359Y38019D1*
X21229D1*
X21141Y37983D1*
X21054Y37910D1*
X21010Y37800D1*
Y37728D1*
X21054Y37618D1*
X21141Y37546D1*
X21229Y37509D1*
X21359D1*
X21447Y37546D1*
X21534Y37618D1*
X22205Y38274D2*
Y37509D1*
X21899Y38274D2*
X22512D1*
X23402Y37910D2*
X23314Y37983D1*
X23226Y38019D1*
X23096D1*
X23008Y37983D1*
X22921Y37910D1*
X22876Y37800D1*
Y37728D1*
X22921Y37618D1*
X23008Y37546D1*
X23096Y37509D1*
X23226D1*
X23314Y37546D1*
X23402Y37618D1*
X23767Y38274D2*
Y37509D1*
Y37873D2*
X23898Y37983D1*
X23986Y38019D1*
X24118D1*
X24204Y37983D1*
X24248Y37873D1*
Y37509D1*
X26109Y38165D2*
X26065Y38237D1*
X25934Y38274D1*
X25847D1*
X25715Y38237D1*
X25627Y38128D1*
X25584Y37946D1*
Y37764D1*
X25627Y37618D1*
X25715Y37545D1*
X25847Y37509D1*
X25890D1*
X26021Y37545D1*
X26109Y37618D1*
X26152Y37728D1*
Y37764D1*
X26109Y37873D1*
X26021Y37946D1*
X25890Y37982D1*
X25847D1*
X25715Y37946D1*
X25627Y37873D1*
X25584Y37764D1*
X26517Y38019D2*
Y37253D1*
Y37910D2*
X26605Y37982D1*
X26692Y38019D1*
X26823D1*
X26911Y37982D1*
X26998Y37910D1*
X27042Y37800D1*
Y37727D1*
X26998Y37618D1*
X26911Y37545D1*
X26823Y37509D1*
X26692D1*
X26605Y37545D1*
X26517Y37618D1*
X27407Y38274D2*
X27451Y38238D1*
X27495Y38274D1*
X27451Y38311D1*
X27407Y38274D1*
X27451Y38019D2*
Y37509D1*
X27860Y38019D2*
Y37509D1*
Y37873D2*
X27991Y37983D1*
X28079Y38019D1*
X28210D1*
X28298Y37983D1*
X28341Y37873D1*
Y37509D1*
X67697Y58581D2*
Y57998D1*
X67654Y57888D1*
X67609Y57852D1*
X67522Y57815D1*
X67434D1*
X67347Y57852D1*
X67304Y57888D1*
X67259Y57998D1*
Y58070D1*
X68499Y57815D2*
Y58580D1*
X68062Y58070D1*
X68718D1*
X63177Y65484D2*
X63221Y65448D1*
X63265Y65484D1*
X63221Y65521D1*
X63177Y65484D1*
X63221Y65229D2*
Y64719D1*
X63630Y65229D2*
Y64719D1*
Y65083D2*
X63761Y65193D1*
X63849Y65229D1*
X63980D1*
X64067Y65193D1*
X64111Y65083D1*
Y64719D1*
X64476Y65229D2*
Y64463D1*
Y65120D2*
X64564Y65192D1*
X64651Y65229D1*
X64782D1*
X64870Y65192D1*
X64957Y65120D1*
X65001Y65010D1*
Y64937D1*
X64957Y64828D1*
X64870Y64755D1*
X64782Y64719D1*
X64651D1*
X64564Y64755D1*
X64476Y64828D1*
X65366Y65229D2*
Y64864D1*
X65410Y64756D1*
X65498Y64719D1*
X65629D1*
X65716Y64756D1*
X65847Y64864D1*
Y65229D2*
Y64719D1*
X66343Y65484D2*
Y64864D1*
X66387Y64756D1*
X66475Y64719D1*
X66562D1*
X66212Y65229D2*
X66518D1*
X67898Y65338D2*
X67986Y65375D1*
X68117Y65484D1*
Y64719D1*
X68526Y65302D2*
Y65338D1*
X68570Y65411D1*
X68613Y65447D1*
X68701Y65484D1*
X68876D1*
X68963Y65447D1*
X69007Y65411D1*
X69051Y65338D1*
Y65265D1*
X69007Y65192D1*
X68920Y65083D1*
X68482Y64719D1*
X69095D1*
X69459Y65229D2*
X69722Y64719D1*
X69984Y65229D1*
X62788Y82018D2*
Y81435D1*
X62744Y81326D1*
X62700Y81290D1*
X62613Y81252D1*
X62525D1*
X62438Y81290D1*
X62394Y81326D1*
X62350Y81435D1*
Y81508D1*
X63677Y82017D2*
X63240D1*
X63197Y81690D1*
X63240Y81726D1*
X63372Y81763D1*
X63502D1*
X63634Y81726D1*
X63722Y81653D1*
X63765Y81544D1*
Y81471D1*
X63722Y81362D1*
X63634Y81289D1*
X63502Y81252D1*
X63372D1*
X63240Y81289D1*
X63197Y81326D1*
X63152Y81398D1*
X47825Y69490D2*
Y68907D1*
X47781Y68797D1*
X47737Y68761D1*
X47650Y68724D1*
X47562D1*
X47475Y68761D1*
X47432Y68797D1*
X47387Y68907D1*
Y68979D1*
X48714Y69380D2*
X48671Y69453D1*
X48539Y69489D1*
X48453D1*
X48321Y69453D1*
X48233Y69343D1*
X48190Y69161D1*
Y68979D1*
X48233Y68834D1*
X48321Y68760D1*
X48453Y68724D1*
X48496D1*
X48626Y68760D1*
X48714Y68834D1*
X48758Y68943D1*
Y68979D1*
X48714Y69089D1*
X48626Y69161D1*
X48496Y69198D1*
X48453D1*
X48321Y69161D1*
X48233Y69089D1*
X48190Y68979D1*
X44647Y76070D2*
X44735Y76107D1*
X44867Y76215D1*
Y75450D1*
X45276Y76033D2*
Y76070D1*
X45319Y76143D1*
X45363Y76179D1*
X45451Y76215D1*
X45626D1*
X45713Y76179D1*
X45756Y76143D1*
X45801Y76070D1*
Y75997D1*
X45756Y75924D1*
X45669Y75815D1*
X45231Y75450D1*
X45844D1*
X46209Y75961D2*
X46472Y75450D1*
X46733Y75961D1*
X48069D2*
Y75450D1*
Y75742D2*
X48114Y75851D1*
X48201Y75925D1*
X48289Y75961D1*
X48420D1*
X48785Y75742D2*
X49310D1*
Y75815D1*
X49266Y75888D1*
X49223Y75925D1*
X49135Y75961D1*
X49003D1*
X48916Y75925D1*
X48828Y75851D1*
X48785Y75742D1*
Y75669D1*
X48828Y75560D1*
X48916Y75487D1*
X49003Y75450D1*
X49135D1*
X49223Y75487D1*
X49310Y75560D1*
X49674Y76216D2*
Y75450D1*
X50564Y75961D2*
Y75450D1*
Y75851D2*
X50477Y75925D1*
X50389Y75961D1*
X50259D1*
X50171Y75925D1*
X50084Y75851D1*
X50039Y75742D1*
Y75669D1*
X50084Y75560D1*
X50171Y75487D1*
X50259Y75450D1*
X50389D1*
X50477Y75487D1*
X50564Y75560D1*
X50973Y75961D2*
X51235Y75450D1*
X51148Y75305D1*
X51060Y75231D1*
X50973Y75195D1*
X50929D1*
X51498Y75961D2*
X51235Y75450D1*
X45755Y31257D2*
Y30492D1*
X46279D1*
X46644Y31111D2*
X46732Y31148D1*
X46863Y31256D1*
Y30492D1*
X43977Y16377D2*
Y15611D1*
X44283D1*
X44415Y15648D1*
X44503Y15721D1*
X44546Y15794D1*
X44590Y15903D1*
Y16085D1*
X44546Y16195D1*
X44503Y16267D1*
X44415Y16341D1*
X44283Y16377D1*
X43977D1*
X45522D2*
X44954D1*
Y15611D1*
X45522D1*
X44954Y16012D2*
X45304D1*
X45887Y16230D2*
X45975Y16267D1*
X46107Y16376D1*
Y15611D1*
X46516Y16194D2*
Y16230D1*
X46559Y16304D1*
X46603Y16340D1*
X46691Y16376D1*
X46866D1*
X46953Y16340D1*
X46996Y16304D1*
X47040Y16230D1*
Y16158D1*
X46996Y16085D1*
X46909Y15976D1*
X46471Y15611D1*
X47084D1*
X47712Y16376D2*
X47580Y16340D1*
X47492Y16230D1*
X47449Y16048D1*
Y15939D1*
X47492Y15757D1*
X47580Y15647D1*
X47712Y15611D1*
X47798D1*
X47930Y15647D1*
X48017Y15757D1*
X48061Y15939D1*
Y16048D1*
X48017Y16230D1*
X47930Y16340D1*
X47798Y16376D1*
X47712D1*
X48017Y16230D2*
X47492Y15757D1*
X48951Y16376D2*
X48514D1*
X48471Y16048D1*
X48514Y16085D1*
X48645Y16122D1*
X48776D1*
X48907Y16085D1*
X48995Y16012D1*
X49039Y15903D1*
Y15830D1*
X48995Y15721D1*
X48907Y15647D1*
X48776Y15611D1*
X48645D1*
X48514Y15647D1*
X48471Y15684D1*
X48426Y15757D1*
X49403Y15994D2*
X49909D1*
X50798Y16267D2*
X50755Y16340D1*
X50623Y16376D1*
X50536D1*
X50405Y16340D1*
X50317Y16230D1*
X50274Y16048D1*
Y15866D1*
X50317Y15721D1*
X50405Y15647D1*
X50536Y15611D1*
X50580D1*
X50710Y15647D1*
X50798Y15721D1*
X50842Y15830D1*
Y15866D1*
X50798Y15976D1*
X50710Y16048D1*
X50580Y16085D1*
X50536D1*
X50405Y16048D1*
X50317Y15976D1*
X50274Y15866D1*
X51425Y16376D2*
X51294Y16340D1*
X51250Y16267D1*
Y16194D1*
X51294Y16122D1*
X51381Y16085D1*
X51556Y16048D1*
X51688Y16012D1*
X51774Y15939D1*
X51818Y15866D1*
Y15757D1*
X51774Y15684D1*
X51731Y15647D1*
X51600Y15611D1*
X51425D1*
X51294Y15647D1*
X51250Y15684D1*
X51206Y15757D1*
Y15866D1*
X51250Y15939D1*
X51338Y16012D1*
X51468Y16048D1*
X51643Y16085D1*
X51731Y16122D1*
X51774Y16194D1*
Y16267D1*
X51731Y16340D1*
X51600Y16376D1*
X51425D1*
X42778Y80699D2*
X42691Y80664D1*
X42603Y80590D1*
X42560Y80517D1*
X42515Y80408D1*
Y80226D1*
X42560Y80116D1*
X42603Y80044D1*
X42691Y79970D1*
X42778Y79934D1*
X42953D1*
X43041Y79970D1*
X43128Y80044D1*
X43171Y80116D1*
X43216Y80226D1*
Y80408D1*
X43171Y80517D1*
X43128Y80590D1*
X43041Y80664D1*
X42953Y80699D1*
X42778D1*
X42910Y80080D2*
X43171Y79861D1*
X43581Y80553D2*
X43669Y80590D1*
X43800Y80698D1*
Y79933D1*
X44124Y83159D2*
Y82394D1*
X44518D1*
X44649Y82431D1*
X44693Y82467D1*
X44736Y82539D1*
Y82649D1*
X44693Y82722D1*
X44649Y82758D1*
X44518Y82795D1*
X44649Y82832D1*
X44693Y82868D1*
X44736Y82940D1*
Y83014D1*
X44693Y83086D1*
X44649Y83123D1*
X44518Y83159D1*
X44124D1*
Y82795D2*
X44518D1*
X45757Y82977D2*
X45714Y83050D1*
X45626Y83123D1*
X45539Y83159D1*
X45364D1*
X45276Y83123D1*
X45189Y83050D1*
X45145Y82977D1*
X45101Y82868D1*
Y82685D1*
X45145Y82576D1*
X45189Y82503D1*
X45276Y82431D1*
X45364Y82394D1*
X45539D1*
X45626Y82431D1*
X45714Y82503D1*
X45757Y82576D1*
X46210Y83159D2*
X46690D1*
X46428Y82867D1*
X46560D1*
X46646Y82831D1*
X46690Y82795D1*
X46734Y82685D1*
Y82613D1*
X46690Y82503D1*
X46603Y82430D1*
X46472Y82394D1*
X46340D1*
X46210Y82430D1*
X46166Y82467D1*
X46122Y82539D1*
X47187Y83159D2*
X47667D1*
X47405Y82867D1*
X47537D1*
X47624Y82831D1*
X47667Y82795D1*
X47712Y82685D1*
Y82613D1*
X47667Y82503D1*
X47580Y82430D1*
X47449Y82394D1*
X47318D1*
X47187Y82430D1*
X47144Y82467D1*
X47099Y82539D1*
X48251Y82394D2*
X48689Y83159D1*
X48077D1*
X49054Y82776D2*
X49559D1*
X49924Y83013D2*
X50012Y83050D1*
X50143Y83159D1*
Y82394D1*
X51033Y83050D2*
X50989Y83122D1*
X50858Y83159D1*
X50771D1*
X50640Y83122D1*
X50552Y83013D1*
X50508Y82831D1*
Y82649D1*
X50552Y82503D1*
X50640Y82430D1*
X50771Y82394D1*
X50814D1*
X50945Y82430D1*
X51033Y82503D1*
X51076Y82613D1*
Y82649D1*
X51033Y82758D1*
X50945Y82831D1*
X50814Y82867D1*
X50771D1*
X50640Y82831D1*
X50552Y82758D1*
X50508Y82649D1*
X62634Y15583D2*
X63027D1*
X63158Y15620D1*
X63203Y15656D1*
X63246Y15728D1*
Y15802D1*
X63203Y15874D1*
X63158Y15911D1*
X63027Y15947D1*
X62634D1*
Y15182D1*
X62940Y15583D2*
X63246Y15182D1*
X63611Y15801D2*
X63699Y15838D1*
X63830Y15946D1*
Y15182D1*
X65726Y15566D2*
X66119D1*
X66251Y15603D1*
X66295Y15639D1*
X66339Y15712D1*
Y15785D1*
X66295Y15857D1*
X66251Y15894D1*
X66119Y15931D1*
X65726D1*
Y15165D1*
X66032Y15566D2*
X66339Y15165D1*
X66748Y15748D2*
Y15784D1*
X66791Y15857D1*
X66835Y15894D1*
X66923Y15930D1*
X67098D1*
X67185Y15894D1*
X67228Y15857D1*
X67273Y15784D1*
Y15712D1*
X67228Y15638D1*
X67141Y15530D1*
X66703Y15165D1*
X67316D1*
X27887Y69320D2*
X28280D1*
X28411Y69357D1*
X28456Y69393D1*
X28499Y69465D1*
Y69539D1*
X28456Y69611D1*
X28411Y69648D1*
X28280Y69684D1*
X27887D1*
Y68919D1*
X28193Y69320D2*
X28499Y68919D1*
X28952Y69684D2*
X29432D1*
X29170Y69392D1*
X29302D1*
X29389Y69356D1*
X29432Y69320D1*
X29477Y69210D1*
Y69138D1*
X29432Y69028D1*
X29345Y68955D1*
X29214Y68919D1*
X29083D1*
X28952Y68955D1*
X28909Y68992D1*
X28864Y69065D1*
X36327Y67972D2*
X36720D1*
X36851Y68009D1*
X36896Y68045D1*
X36939Y68117D1*
Y68191D1*
X36896Y68263D1*
X36851Y68300D1*
X36720Y68336D1*
X36327D1*
Y67571D1*
X36633Y67972D2*
X36939Y67571D1*
X37742D2*
Y68335D1*
X37304Y67826D1*
X37960D1*
X14570Y47210D2*
X14964D1*
X15095Y47247D1*
X15139Y47283D1*
X15183Y47356D1*
Y47429D1*
X15139Y47502D1*
X15095Y47539D1*
X14964Y47575D1*
X14570D1*
Y46809D1*
X14877Y47210D2*
X15183Y46809D1*
X16072Y47574D2*
X15636D1*
X15592Y47246D1*
X15636Y47283D1*
X15767Y47320D1*
X15897D1*
X16029Y47283D1*
X16117Y47210D1*
X16160Y47101D1*
Y47028D1*
X16117Y46919D1*
X16029Y46845D1*
X15897Y46809D1*
X15767D1*
X15636Y46845D1*
X15592Y46882D1*
X15548Y46955D1*
X52542Y66375D2*
X52935D1*
X53066Y66412D1*
X53111Y66448D1*
X53154Y66520D1*
Y66594D1*
X53111Y66666D1*
X53066Y66703D1*
X52935Y66739D1*
X52542D1*
Y65974D1*
X52848Y66375D2*
X53154Y65974D1*
X54044Y66630D2*
X54000Y66702D1*
X53869Y66738D1*
X53782D1*
X53651Y66702D1*
X53563Y66593D1*
X53519Y66411D1*
Y66229D1*
X53563Y66083D1*
X53651Y66010D1*
X53782Y65974D1*
X53826D1*
X53956Y66010D1*
X54044Y66083D1*
X54087Y66193D1*
Y66229D1*
X54044Y66338D1*
X53956Y66411D1*
X53826Y66447D1*
X53782D1*
X53651Y66411D1*
X53563Y66338D1*
X53519Y66229D1*
X55656Y22385D2*
X56050D1*
X56181Y22421D1*
X56225Y22458D1*
X56269Y22531D1*
Y22640D1*
X56225Y22713D1*
X56181Y22750D1*
X56050Y22786D1*
X55656D1*
Y22020D1*
X56940Y22786D2*
Y22020D1*
X56633Y22786D2*
X57246D1*
X58048Y22020D2*
Y22785D1*
X57611Y22276D1*
X58267D1*
X58631Y22639D2*
X58719Y22677D1*
X58851Y22785D1*
Y22020D1*
X59216Y22639D2*
X59304Y22677D1*
X59435Y22785D1*
Y22020D1*
X60324Y22785D2*
X59888D1*
X59844Y22458D1*
X59888Y22494D1*
X60019Y22531D1*
X60149D1*
X60281Y22494D1*
X60369Y22421D1*
X60412Y22312D1*
Y22239D1*
X60369Y22130D1*
X60281Y22057D1*
X60149Y22020D1*
X60019D1*
X59888Y22057D1*
X59844Y22094D1*
X59800Y22166D1*
X61345Y22786D2*
X60777D1*
Y22020D1*
X61345D1*
X60777Y22421D2*
X61127D1*
X38452Y36264D2*
X38540Y36301D1*
X38672Y36409D1*
Y35644D1*
X39037Y36264D2*
X39125Y36301D1*
X39256Y36409D1*
Y35644D1*
X39621Y36264D2*
X39709Y36301D1*
X39840Y36409D1*
Y35644D1*
X40729Y36301D2*
X40686Y36373D1*
X40555Y36409D1*
X40468D1*
X40336Y36373D1*
X40248Y36264D1*
X40205Y36082D1*
Y35900D1*
X40248Y35754D1*
X40336Y35681D1*
X40468Y35644D1*
X40511D1*
X40641Y35681D1*
X40729Y35754D1*
X40773Y35863D1*
Y35900D1*
X40729Y36009D1*
X40641Y36082D1*
X40511Y36118D1*
X40468D1*
X40336Y36082D1*
X40248Y36009D1*
X40205Y35900D1*
X41182Y36227D2*
Y36264D1*
X41226Y36337D1*
X41269Y36373D1*
X41357Y36409D1*
X41532D1*
X41619Y36373D1*
X41662Y36337D1*
X41707Y36264D1*
Y36191D1*
X41662Y36118D1*
X41575Y36009D1*
X41138Y35644D1*
X41750D1*
X42115Y36027D2*
X42620D1*
X42985Y36264D2*
X43073Y36301D1*
X43205Y36409D1*
Y35644D1*
X43569Y36264D2*
X43657Y36301D1*
X43789Y36409D1*
Y35644D1*
X44198Y36227D2*
Y36264D1*
X44241Y36337D1*
X44285Y36373D1*
X44373Y36409D1*
X44548D1*
X44635Y36373D1*
X44678Y36337D1*
X44723Y36264D1*
Y36191D1*
X44678Y36118D1*
X44591Y36009D1*
X44153Y35644D1*
X44766D1*
X45131Y36155D2*
X45394Y35644D1*
X45655Y36155D1*
X46108Y36409D2*
X46588D1*
X46326Y36118D1*
X46458D1*
X46545Y36082D1*
X46588Y36045D1*
X46633Y35936D1*
Y35863D1*
X46588Y35754D1*
X46501Y35681D1*
X46370Y35644D1*
X46239D1*
X46108Y35681D1*
X46065Y35718D1*
X46020Y35790D1*
X47260Y36409D2*
X47129Y36373D1*
X47041Y36264D1*
X46998Y36082D1*
Y35972D1*
X47041Y35790D1*
X47129Y35681D1*
X47260Y35644D1*
X47347D1*
X47479Y35681D1*
X47566Y35790D1*
X47610Y35972D1*
Y36082D1*
X47566Y36264D1*
X47479Y36373D1*
X47347Y36409D1*
X47260D1*
X47566Y36264D2*
X47041Y35790D1*
X48238Y36409D2*
X48106Y36373D1*
X48018Y36264D1*
X47975Y36082D1*
Y35972D1*
X48018Y35790D1*
X48106Y35681D1*
X48238Y35644D1*
X48325D1*
X48456Y35681D1*
X48543Y35790D1*
X48587Y35972D1*
Y36082D1*
X48543Y36264D1*
X48456Y36373D1*
X48325Y36409D1*
X48238D1*
X48543Y36264D2*
X48018Y35790D1*
X40251Y34954D2*
Y34189D1*
X40616Y34480D2*
X41140D1*
Y34553D1*
X41097Y34627D1*
X41053Y34663D1*
X40965Y34699D1*
X40834D1*
X40747Y34663D1*
X40659Y34590D1*
X40616Y34480D1*
Y34408D1*
X40659Y34298D1*
X40747Y34226D1*
X40834Y34189D1*
X40965D1*
X41053Y34226D1*
X41140Y34298D1*
X42030Y34954D2*
Y34189D1*
Y34590D2*
X41943Y34663D1*
X41855Y34699D1*
X41723D1*
X41636Y34663D1*
X41549Y34590D1*
X41505Y34480D1*
Y34408D1*
X41549Y34298D1*
X41636Y34226D1*
X41723Y34189D1*
X41855D1*
X41943Y34226D1*
X42030Y34298D1*
X43890Y34954D2*
Y34189D1*
Y34590D2*
X43803Y34663D1*
X43715Y34699D1*
X43584D1*
X43497Y34663D1*
X43409Y34590D1*
X43366Y34480D1*
Y34408D1*
X43409Y34298D1*
X43497Y34226D1*
X43584Y34189D1*
X43715D1*
X43803Y34226D1*
X43890Y34298D1*
X44255Y34699D2*
Y34189D1*
Y34480D2*
X44300Y34590D1*
X44386Y34663D1*
X44474Y34699D1*
X44606D1*
X44971Y34954D2*
X45014Y34918D1*
X45059Y34954D1*
X45014Y34991D1*
X44971Y34954D1*
X45014Y34699D2*
Y34189D1*
X45423Y34699D2*
X45686Y34189D1*
X45948Y34699D1*
X46313Y34480D2*
X46837D1*
Y34553D1*
X46794Y34627D1*
X46750Y34663D1*
X46662Y34699D1*
X46531D1*
X46444Y34663D1*
X46356Y34590D1*
X46313Y34480D1*
Y34408D1*
X46356Y34298D1*
X46444Y34226D1*
X46531Y34189D1*
X46662D1*
X46750Y34226D1*
X46837Y34298D1*
X47202Y34699D2*
Y34189D1*
Y34480D2*
X47247Y34590D1*
X47334Y34663D1*
X47421Y34699D1*
X47553D1*
X68235Y84193D2*
Y83646D1*
X68279Y83537D1*
X68366Y83465D1*
X68498Y83427D1*
X68585D1*
X68716Y83465D1*
X68804Y83537D1*
X68848Y83646D1*
Y84193D1*
X69300Y84192D2*
X69780D1*
X69519Y83901D1*
X69650D1*
X69737Y83865D1*
X69780Y83828D1*
X69825Y83719D1*
Y83646D1*
X69780Y83537D1*
X69694Y83464D1*
X69562Y83427D1*
X69431D1*
X69300Y83464D1*
X69257Y83501D1*
X69212Y83573D1*
X75936Y83741D2*
X75893Y83814D1*
X75761Y83850D1*
X75630D1*
X75498Y83814D1*
X75455Y83741D1*
X75498Y83668D1*
X75586Y83631D1*
X75805Y83595D1*
X75893Y83559D1*
X75936Y83486D1*
Y83449D1*
X75893Y83377D1*
X75761Y83340D1*
X75630D1*
X75498Y83377D1*
X75455Y83449D1*
X76301Y84106D2*
X76344Y84069D1*
X76389Y84106D1*
X76344Y84143D1*
X76301Y84106D1*
X76344Y83850D2*
Y83340D1*
X77191D2*
Y84105D1*
X76754Y83595D1*
X77410D1*
X78212Y83340D2*
Y84105D1*
X77774Y83595D1*
X78430D1*
X78883Y84105D2*
X79363D1*
X79101Y83813D1*
X79233D1*
X79320Y83777D1*
X79363Y83741D1*
X79408Y83631D1*
Y83559D1*
X79363Y83449D1*
X79276Y83376D1*
X79145Y83340D1*
X79014D1*
X78883Y83376D1*
X78840Y83413D1*
X78795Y83486D1*
X79817Y83923D2*
Y83959D1*
X79860Y84032D1*
X79904Y84069D1*
X79992Y84105D1*
X80167D1*
X80254Y84069D1*
X80297Y84032D1*
X80342Y83959D1*
Y83887D1*
X80297Y83813D1*
X80210Y83705D1*
X79773Y83340D1*
X80385D1*
X42153Y48295D2*
Y47529D1*
Y48186D2*
X42241Y48258D1*
X42328Y48295D1*
X42459D1*
X42547Y48258D1*
X42634Y48186D1*
X42679Y48076D1*
Y48003D1*
X42634Y47894D1*
X42547Y47821D1*
X42459Y47785D1*
X42328D1*
X42241Y47821D1*
X42153Y47894D1*
X43043Y48295D2*
Y47785D1*
Y48076D2*
X43088Y48186D1*
X43175Y48259D1*
X43263Y48295D1*
X43394D1*
X43977D2*
X43890Y48259D1*
X43802Y48186D1*
X43759Y48076D1*
Y48004D1*
X43802Y47894D1*
X43890Y47822D1*
X43977Y47785D1*
X44109D1*
X44197Y47822D1*
X44283Y47894D1*
X44328Y48004D1*
Y48076D1*
X44283Y48186D1*
X44197Y48259D1*
X44109Y48295D1*
X43977D1*
X45664D2*
Y47785D1*
Y48149D2*
X45795Y48259D1*
X45883Y48295D1*
X46014D1*
X46102Y48259D1*
X46145Y48149D1*
Y47785D1*
Y48149D2*
X46277Y48259D1*
X46364Y48295D1*
X46495D1*
X46583Y48259D1*
X46627Y48149D1*
Y47785D1*
X46992Y48550D2*
X47036Y48514D1*
X47080Y48550D1*
X47036Y48587D1*
X46992Y48550D1*
X47036Y48295D2*
Y47785D1*
X47445Y48295D2*
Y47785D1*
Y48149D2*
X47576Y48259D1*
X47664Y48295D1*
X47795D1*
X47882Y48259D1*
X47926Y48149D1*
Y47785D1*
X48291Y48550D2*
X48334Y48514D1*
X48379Y48550D1*
X48334Y48587D1*
X48291Y48550D1*
X48334Y48295D2*
Y47785D1*
X49803Y48549D2*
X50283D1*
X50021Y48258D1*
X50152D1*
X50239Y48222D1*
X50283Y48186D1*
X50327Y48076D1*
Y48004D1*
X50283Y47894D1*
X50196Y47821D1*
X50064Y47785D1*
X49933D1*
X49803Y47821D1*
X49759Y47858D1*
X49715Y47930D1*
X50735Y47858D2*
X50692Y47821D1*
X50735Y47785D1*
X50780Y47821D1*
X50735Y47858D1*
X51233Y48549D2*
X51713D1*
X51451Y48258D1*
X51582D1*
X51669Y48222D1*
X51713Y48186D1*
X51757Y48076D1*
Y48004D1*
X51713Y47894D1*
X51626Y47821D1*
X51494Y47785D1*
X51363D1*
X51233Y47821D1*
X51189Y47858D1*
X51145Y47930D1*
X52122Y48295D2*
X52385Y47785D1*
X52647Y48295D1*
X44994Y49816D2*
X44643Y50581D1*
X44293Y49816D1*
X44424Y50071D2*
X44862D1*
X45358Y50326D2*
Y49816D1*
Y50107D2*
X45403Y50217D1*
X45490Y50290D1*
X45578Y50326D1*
X45709D1*
X46598Y50581D2*
Y49816D1*
Y50217D2*
X46512Y50290D1*
X46424Y50326D1*
X46292D1*
X46205Y50290D1*
X46117Y50217D1*
X46074Y50107D1*
Y50035D1*
X46117Y49925D1*
X46205Y49853D1*
X46292Y49816D1*
X46424D1*
X46512Y49853D1*
X46598Y49925D1*
X46963Y50326D2*
Y49961D1*
X47007Y49853D1*
X47095Y49816D1*
X47226D1*
X47313Y49853D1*
X47444Y49961D1*
Y50326D2*
Y49816D1*
X47809Y50581D2*
X47853Y50545D1*
X47897Y50581D1*
X47853Y50618D1*
X47809Y50581D1*
X47853Y50326D2*
Y49816D1*
X48262Y50326D2*
Y49816D1*
Y50180D2*
X48393Y50290D1*
X48481Y50326D1*
X48612D1*
X48700Y50290D1*
X48743Y50180D1*
Y49816D1*
X49326Y50326D2*
X49239Y50290D1*
X49151Y50217D1*
X49108Y50107D1*
Y50035D1*
X49151Y49925D1*
X49239Y49853D1*
X49326Y49816D1*
X49458D1*
X49546Y49853D1*
X49632Y49925D1*
X49677Y50035D1*
Y50107D1*
X49632Y50217D1*
X49546Y50290D1*
X49458Y50326D1*
X49326D1*
X22575Y67263D2*
Y66716D1*
X22619Y66607D1*
X22706Y66534D1*
X22838Y66497D1*
X22925D1*
X23056Y66534D1*
X23144Y66607D1*
X23188Y66716D1*
Y67263D1*
X24077Y67262D2*
X23640D1*
X23597Y66935D1*
X23640Y66971D1*
X23772Y67008D1*
X23902D1*
X24034Y66971D1*
X24121Y66898D1*
X24165Y66789D1*
Y66716D1*
X24121Y66607D1*
X24034Y66534D1*
X23902Y66497D1*
X23772D1*
X23640Y66534D1*
X23597Y66571D1*
X23552Y66643D1*
X21339Y54790D2*
X21864D1*
Y54863D1*
X21820Y54937D1*
X21777Y54973D1*
X21689Y55009D1*
X21557D1*
X21470Y54973D1*
X21382Y54900D1*
X21339Y54790D1*
Y54718D1*
X21382Y54608D1*
X21470Y54536D1*
X21557Y54499D1*
X21689D1*
X21777Y54536D1*
X21864Y54608D1*
X22228Y55264D2*
Y54499D1*
X22811Y55264D2*
X22681Y55227D1*
X22637Y55155D1*
Y55082D1*
X22681Y55009D1*
X22768Y54972D1*
X22943Y54936D1*
X23074Y54900D1*
X23161Y54826D1*
X23205Y54754D1*
Y54644D1*
X23161Y54572D1*
X23118Y54535D1*
X22986Y54499D1*
X22811D1*
X22681Y54535D1*
X22637Y54572D1*
X22593Y54644D1*
Y54754D1*
X22637Y54826D1*
X22725Y54900D1*
X22855Y54936D1*
X23030Y54972D1*
X23118Y55009D1*
X23161Y55082D1*
Y55155D1*
X23118Y55227D1*
X22986Y55264D1*
X22811D1*
X23569Y55118D2*
X23657Y55155D1*
X23789Y55264D1*
Y54499D1*
X24328D2*
X24766Y55264D1*
X24154D1*
X12416Y14845D2*
Y15370D1*
X12343D1*
X12269Y15326D1*
X12233Y15283D1*
X12197Y15195D1*
Y15063D1*
X12233Y14976D1*
X12306Y14888D1*
X12416Y14845D1*
X12488D1*
X12598Y14888D1*
X12670Y14976D1*
X12707Y15063D1*
Y15195D1*
X12670Y15283D1*
X12598Y15370D1*
X12306Y16216D2*
X12233Y16172D1*
X12197Y16041D1*
Y15909D1*
X12233Y15778D1*
X12306Y15734D1*
X12379Y15778D1*
X12416Y15866D1*
X12452Y16084D1*
X12488Y16172D1*
X12562Y16216D1*
X12598D1*
X12670Y16172D1*
X12707Y16041D1*
Y15909D1*
X12670Y15778D1*
X12598Y15734D1*
X12197Y16580D2*
X12963D1*
X12306D2*
X12234Y16668D1*
X12197Y16755D1*
Y16887D1*
X12234Y16975D1*
X12306Y17061D1*
X12416Y17106D1*
X12489D1*
X12598Y17061D1*
X12671Y16975D1*
X12707Y16887D1*
Y16755D1*
X12671Y16668D1*
X12598Y16580D1*
X11943Y17689D2*
X11979Y17559D1*
X12051Y17514D1*
X12124D1*
X12197Y17559D1*
X12234Y17646D1*
X12270Y17820D1*
X12306Y17952D1*
X12380Y18039D1*
X12452Y18082D1*
X12562D1*
X12634Y18039D1*
X12671Y17995D1*
X12707Y17864D1*
Y17689D1*
X12671Y17559D1*
X12634Y17514D1*
X12562Y17471D1*
X12452D1*
X12380Y17514D1*
X12306Y17602D1*
X12270Y17733D1*
X12234Y17907D1*
X12197Y17995D1*
X12124Y18039D1*
X12051D1*
X11979Y17995D1*
X11943Y17864D1*
Y17689D1*
X12124Y18492D2*
X12088D1*
X12015Y18535D1*
X11979Y18578D1*
X11943Y18666D1*
Y18841D1*
X11979Y18928D1*
X12015Y18972D1*
X12088Y19016D1*
X12161D1*
X12234Y18972D1*
X12343Y18885D1*
X12707Y18447D1*
Y19060D1*
X12051Y19949D2*
X11979Y19906D1*
X11943Y19774D1*
Y19687D1*
X11979Y19556D1*
X12088Y19468D1*
X12270Y19424D1*
X12452D1*
X12598Y19468D1*
X12671Y19556D1*
X12707Y19687D1*
Y19731D1*
X12671Y19861D1*
X12598Y19949D1*
X12488Y19992D1*
X12452D1*
X12343Y19949D1*
X12270Y19861D1*
X12234Y19731D1*
Y19687D1*
X12270Y19556D1*
X12343Y19468D1*
X12452Y19424D1*
X12051Y20882D2*
X11979Y20838D1*
X11943Y20707D1*
Y20620D1*
X11979Y20489D1*
X12088Y20401D1*
X12270Y20357D1*
X12452D1*
X12598Y20401D1*
X12671Y20489D1*
X12707Y20620D1*
Y20663D1*
X12671Y20794D1*
X12598Y20882D1*
X12488Y20925D1*
X12452D1*
X12343Y20882D1*
X12270Y20794D1*
X12234Y20663D1*
Y20620D1*
X12270Y20489D1*
X12343Y20401D1*
X12452Y20357D1*
X12834Y21290D2*
Y22121D1*
X12197Y23055D2*
X12306Y23010D1*
X12380Y22923D1*
X12416Y22792D1*
Y22749D1*
X12380Y22617D1*
X12306Y22530D1*
X12197Y22486D1*
X12161D1*
X12051Y22530D1*
X11979Y22617D1*
X11943Y22749D1*
Y22792D1*
X11979Y22923D1*
X12051Y23010D1*
X12197Y23055D1*
X12380D1*
X12562Y23010D1*
X12671Y22923D1*
X12707Y22792D1*
Y22705D1*
X12671Y22574D1*
X12598Y22530D1*
X11943Y23682D2*
X11979Y23551D1*
X12088Y23463D1*
X12270Y23420D1*
X12380D1*
X12562Y23463D1*
X12671Y23551D1*
X12707Y23682D1*
Y23769D1*
X12671Y23901D1*
X12562Y23988D1*
X12380Y24032D1*
X12270D1*
X12088Y23988D1*
X11979Y23901D1*
X11943Y23769D1*
Y23682D1*
X12088Y23988D2*
X12562Y23463D1*
X12233Y24922D2*
X12817D1*
X12926Y24878D1*
X12963Y24835D1*
X12999Y24747D1*
Y24615D1*
X12963Y24528D1*
X12343Y24922D2*
X12270Y24835D1*
X12233Y24747D1*
Y24615D1*
X12270Y24528D1*
X12343Y24440D1*
X12452Y24397D1*
X12525D1*
X12634Y24440D1*
X12707Y24528D1*
X12744Y24615D1*
Y24747D1*
X12707Y24835D1*
X12634Y24922D1*
X12197Y25286D2*
X12707D1*
X12416D2*
X12306Y25331D1*
X12233Y25418D1*
X12197Y25506D1*
Y25637D1*
X36430Y59504D2*
X36502Y59547D1*
X36576Y59635D1*
X36612Y59722D1*
Y59897D1*
X36576Y59985D1*
X36502Y60072D1*
X36430Y60116D1*
X36320Y60160D1*
X36138D1*
X36029Y60116D1*
X35956Y60072D1*
X35883Y59985D1*
X35846Y59897D1*
Y59722D1*
X35883Y59635D1*
X35956Y59547D1*
X36029Y59504D1*
X36138D1*
Y59722D1*
X36612Y58525D2*
X35846D1*
X36612Y59138D1*
X35846D1*
X36612Y58160D2*
X35846D1*
Y57853D1*
X35883Y57722D1*
X35956Y57634D1*
X36029Y57590D1*
X36138Y57547D1*
X36320D1*
X36430Y57590D1*
X36502Y57634D1*
X36576Y57722D1*
X36612Y57853D1*
Y58160D1*
X41589Y60367D2*
X40824Y60017D1*
X41589Y59667D1*
X41407Y58646D2*
X41480Y58689D1*
X41553Y58777D1*
X41589Y58864D1*
Y59039D1*
X41553Y59127D1*
X41480Y59214D1*
X41407Y59258D1*
X41298Y59302D1*
X41115D1*
X41006Y59258D1*
X40933Y59214D1*
X40861Y59127D1*
X40824Y59039D1*
Y58864D1*
X40861Y58777D1*
X40933Y58689D1*
X41006Y58646D1*
X41407Y57624D2*
X41480Y57667D1*
X41553Y57755D1*
X41589Y57842D1*
Y58017D1*
X41553Y58105D1*
X41480Y58192D1*
X41407Y58236D1*
X41298Y58280D1*
X41115D1*
X41006Y58236D1*
X40933Y58192D1*
X40861Y58105D1*
X40824Y58017D1*
Y57842D1*
X40861Y57755D1*
X40933Y57667D1*
X41006Y57624D1*
X43699Y60784D2*
X43348Y61550D1*
X42998Y60784D1*
X43130Y61039D2*
X43567D1*
X44152Y61549D2*
X44632D1*
X44371Y61257D1*
X44502D1*
X44589Y61221D1*
X44632Y61185D1*
X44677Y61075D1*
Y61003D1*
X44632Y60893D1*
X44545Y60820D1*
X44414Y60784D1*
X44283D1*
X44152Y60820D1*
X44109Y60857D1*
X44064Y60930D1*
X46252Y60891D2*
X45901Y61657D1*
X45551Y60891D1*
X45683Y61146D2*
X46120D1*
X46662Y61474D2*
Y61510D1*
X46706Y61583D1*
X46749Y61620D1*
X46837Y61656D1*
X47012D1*
X47099Y61620D1*
X47142Y61583D1*
X47187Y61510D1*
Y61438D1*
X47142Y61364D1*
X47055Y61256D1*
X46618Y60891D1*
X47230D1*
X48816Y60935D2*
X48466Y61701D1*
X48116Y60935D1*
X48247Y61190D2*
X48685D1*
X49182Y61554D2*
X49270Y61591D1*
X49401Y61700D1*
Y60935D1*
X51311Y60905D2*
X50960Y61670D1*
X50610Y60905D1*
X50742Y61160D2*
X51179D1*
X51939Y61670D2*
X51808Y61633D1*
X51720Y61524D1*
X51677Y61342D1*
Y61232D1*
X51720Y61050D1*
X51808Y60941D1*
X51939Y60905D1*
X52026D1*
X52158Y60941D1*
X52245Y61050D1*
X52289Y61232D1*
Y61342D1*
X52245Y61524D1*
X52158Y61633D1*
X52026Y61670D1*
X51939D1*
X52245Y61524D2*
X51720Y61050D1*
X33595Y60515D2*
Y60122D1*
X33632Y59991D1*
X33668Y59946D1*
X33741Y59903D1*
X33814D1*
X33886Y59946D1*
X33923Y59991D1*
X33960Y60122D1*
Y60515D1*
X33194D1*
X33595Y60209D2*
X33194Y59903D1*
Y58837D2*
X33960Y59187D1*
X33194Y59537D1*
X33449Y59406D2*
Y58968D1*
X33960Y58471D2*
X33194Y58251D1*
X33960Y58033D1*
X33194Y57815D1*
X33960Y57595D1*
X33087Y38824D2*
Y38058D1*
X32781Y38824D2*
X33393D1*
X33759D2*
X34372Y38058D1*
Y38824D2*
X33759Y38058D1*
X35397Y38499D2*
X35791D1*
X35922Y38536D1*
X35966Y38572D1*
X36010Y38645D1*
Y38718D1*
X35966Y38790D1*
X35922Y38828D1*
X35791Y38864D1*
X35397D1*
Y38098D1*
X35704Y38499D2*
X36010Y38098D1*
X36376Y38864D2*
X36988Y38098D1*
Y38864D2*
X36376Y38098D1*
X40741Y38663D2*
X40697Y38735D1*
X40609Y38808D1*
X40522Y38845D1*
X40347D1*
X40259Y38808D1*
X40173Y38735D1*
X40128Y38663D1*
X40085Y38553D1*
Y38370D1*
X40128Y38262D1*
X40173Y38189D1*
X40259Y38116D1*
X40347Y38079D1*
X40522D1*
X40609Y38116D1*
X40697Y38189D1*
X40741Y38262D1*
Y38370D1*
X40522D1*
X41719Y38845D2*
Y38079D1*
X41106Y38845D1*
Y38079D1*
X42085Y38845D2*
Y38079D1*
X42391D1*
X42522Y38116D1*
X42610Y38189D1*
X42654Y38262D1*
X42697Y38370D1*
Y38553D1*
X42654Y38663D1*
X42610Y38735D1*
X42522Y38808D1*
X42391Y38845D1*
X42085D1*
X12317Y82436D2*
D76*
X12196Y82558D1*
X12013Y82618D1*
X11770D1*
X11588Y82558D1*
X11466Y82436D1*
Y82315D1*
X11528Y82193D1*
X11588Y82132D1*
X11709Y82072D1*
X12074Y81950D1*
X12196Y81889D1*
X12256Y81828D1*
X12317Y81707D1*
Y81524D1*
X12196Y81404D1*
X12013Y81342D1*
X11770D1*
X11588Y81404D1*
X11466Y81524D1*
X12709Y82618D2*
X12769Y82558D1*
X12831Y82618D1*
X12769Y82680D1*
X12709Y82618D1*
X12769Y82193D2*
Y81342D1*
X13223Y82193D2*
Y81342D1*
Y81950D2*
X13406Y82132D1*
X13528Y82193D1*
X13709D1*
X13831Y82132D1*
X13891Y81950D1*
Y81342D1*
Y81950D2*
X14074Y82132D1*
X14196Y82193D1*
X14377D1*
X14499Y82132D1*
X14561Y81950D1*
Y81342D1*
X15256Y82193D2*
X15136Y82132D1*
X15013Y82010D1*
X14953Y81828D1*
Y81707D1*
X15013Y81524D1*
X15136Y81404D1*
X15256Y81342D1*
X15439D1*
X15561Y81404D1*
X15682Y81524D1*
X15743Y81707D1*
Y81828D1*
X15682Y82010D1*
X15561Y82132D1*
X15439Y82193D1*
X15256D1*
X16136D2*
Y81342D1*
Y81950D2*
X16318Y82132D1*
X16440Y82193D1*
X16621D1*
X16743Y82132D1*
X16804Y81950D1*
Y81342D1*
X19342Y82315D2*
X19281Y82436D1*
X19159Y82558D1*
X19038Y82618D1*
X18795D1*
X18673Y82558D1*
X18553Y82436D1*
X18491Y82315D1*
X18430Y82132D1*
Y81828D1*
X18491Y81647D1*
X18553Y81524D1*
X18673Y81404D1*
X18795Y81342D1*
X19038D1*
X19159Y81404D1*
X19281Y81524D1*
X19342Y81647D1*
Y81828D1*
X19038D1*
X19734Y82193D2*
Y81585D1*
X19794Y81404D1*
X19916Y81342D1*
X20099D1*
X20219Y81404D1*
X20402Y81585D1*
Y82193D2*
Y81342D1*
X21462Y82010D2*
X21402Y82132D1*
X21219Y82193D1*
X21037D1*
X20854Y82132D1*
X20794Y82010D1*
X20854Y81889D1*
X20977Y81828D1*
X21280Y81767D1*
X21402Y81707D1*
X21462Y81585D1*
Y81524D1*
X21402Y81404D1*
X21219Y81342D1*
X21037D1*
X20854Y81404D1*
X20794Y81524D1*
X22037Y82618D2*
Y81585D1*
X22097Y81404D1*
X22219Y81342D1*
X22340D1*
X21854Y82193D2*
X22280D1*
X23461D2*
Y81342D1*
Y82010D2*
X23340Y82132D1*
X23218Y82193D1*
X23037D1*
X22915Y82132D1*
X22794Y82010D1*
X22732Y81828D1*
Y81707D1*
X22794Y81524D1*
X22915Y81404D1*
X23037Y81342D1*
X23218D1*
X23340Y81404D1*
X23461Y81524D1*
X24339Y82618D2*
X24218D1*
X24096Y82558D1*
X24036Y82375D1*
Y81342D1*
X23853Y82193D2*
X24278D1*
X25399Y82010D2*
X25339Y82132D1*
X25156Y82193D1*
X24974D1*
X24791Y82132D1*
X24731Y82010D1*
X24791Y81889D1*
X24913Y81828D1*
X25217Y81767D1*
X25339Y81707D1*
X25399Y81585D1*
Y81524D1*
X25339Y81404D1*
X25156Y81342D1*
X24974D1*
X24791Y81404D1*
X24731Y81524D1*
X26460Y82010D2*
X26399Y82132D1*
X26217Y82193D1*
X26034D1*
X25852Y82132D1*
X25791Y82010D1*
X25852Y81889D1*
X25974Y81828D1*
X26277Y81767D1*
X26399Y81707D1*
X26460Y81585D1*
Y81524D1*
X26399Y81404D1*
X26217Y81342D1*
X26034D1*
X25852Y81404D1*
X25791Y81524D1*
X27155Y82193D2*
X27034Y82132D1*
X26912Y82010D1*
X26852Y81828D1*
Y81707D1*
X26912Y81524D1*
X27034Y81404D1*
X27155Y81342D1*
X27337D1*
X27460Y81404D1*
X27580Y81524D1*
X27642Y81707D1*
Y81828D1*
X27580Y82010D1*
X27460Y82132D1*
X27337Y82193D1*
X27155D1*
X28034D2*
Y81342D1*
Y81950D2*
X28217Y82132D1*
X28339Y82193D1*
X28520D1*
X28642Y82132D1*
X28702Y81950D1*
Y81342D1*
X12215Y80541D2*
X11424D1*
Y79265D1*
Y79933D2*
X11910D1*
X13336Y80116D2*
Y79265D1*
Y79933D2*
X13215Y80055D1*
X13093Y80116D1*
X12912D1*
X12789Y80055D1*
X12669Y79933D1*
X12607Y79751D1*
Y79630D1*
X12669Y79447D1*
X12789Y79327D1*
X12912Y79265D1*
X13093D1*
X13215Y79327D1*
X13336Y79447D1*
X13728Y80116D2*
Y79265D1*
Y79873D2*
X13910Y80055D1*
X14032Y80116D1*
X14213D1*
X14336Y80055D1*
X14396Y79873D1*
Y79265D1*
X16753Y79933D2*
X16630Y80055D1*
X16508Y80116D1*
X16327D1*
X16205Y80055D1*
X16084Y79933D1*
X16023Y79751D1*
Y79630D1*
X16084Y79447D1*
X16205Y79327D1*
X16327Y79265D1*
X16508D1*
X16630Y79327D1*
X16753Y79447D1*
X17448Y80116D2*
X17327Y80055D1*
X17205Y79933D1*
X17145Y79751D1*
Y79630D1*
X17205Y79447D1*
X17327Y79327D1*
X17448Y79265D1*
X17630D1*
X17753Y79327D1*
X17873Y79447D1*
X17935Y79630D1*
Y79751D1*
X17873Y79933D1*
X17753Y80055D1*
X17630Y80116D1*
X17448D1*
X18327D2*
Y79265D1*
Y79873D2*
X18510Y80055D1*
X18632Y80116D1*
X18813D1*
X18935Y80055D1*
X18996Y79873D1*
Y79265D1*
X19570Y80541D2*
Y79508D1*
X19631Y79327D1*
X19753Y79265D1*
X19873D1*
X19388Y80116D2*
X19813D1*
X20266D2*
Y79265D1*
Y79751D2*
X20327Y79933D1*
X20448Y80055D1*
X20570Y80116D1*
X20753D1*
X21448D2*
X21327Y80055D1*
X21205Y79933D1*
X21145Y79751D1*
Y79630D1*
X21205Y79447D1*
X21327Y79327D1*
X21448Y79265D1*
X21631D1*
X21753Y79327D1*
X21873Y79447D1*
X21935Y79630D1*
Y79751D1*
X21873Y79933D1*
X21753Y80055D1*
X21631Y80116D1*
X21448D1*
X22327Y80541D2*
Y79265D1*
X22720Y80541D2*
Y79265D1*
X23112Y79751D2*
X23840D1*
Y79873D1*
X23780Y79995D1*
X23720Y80055D1*
X23597Y80116D1*
X23415D1*
X23294Y80055D1*
X23172Y79933D1*
X23112Y79751D1*
Y79630D1*
X23172Y79447D1*
X23294Y79327D1*
X23415Y79265D1*
X23597D1*
X23720Y79327D1*
X23840Y79447D1*
X24232Y80116D2*
Y79265D1*
Y79751D2*
X24294Y79933D1*
X24415Y80055D1*
X24537Y80116D1*
X24720D1*
X26589Y79265D2*
X27197Y80540D1*
X26346D1*
X28318D2*
X27711D1*
X27651Y79993D1*
X27711Y80054D1*
X27894Y80116D1*
X28075D1*
X28257Y80054D1*
X28379Y79933D1*
X28440Y79751D1*
Y79630D1*
X28379Y79447D1*
X28257Y79325D1*
X28075Y79265D1*
X27894D1*
X27711Y79325D1*
X27651Y79387D1*
X27589Y79508D1*
X28832Y80116D2*
X29500Y79265D1*
Y80116D2*
X28832Y79265D1*
X30135D2*
X30743Y80540D1*
X29892D1*
X31864D2*
X31257D1*
X31197Y79993D1*
X31257Y80054D1*
X31440Y80116D1*
X31621D1*
X31803Y80054D1*
X31926Y79933D1*
X31986Y79751D1*
Y79630D1*
X31926Y79447D1*
X31803Y79325D1*
X31621Y79265D1*
X31440D1*
X31257Y79325D1*
X31197Y79387D1*
X31135Y79508D1*
X32378Y80116D2*
Y79265D1*
Y79873D2*
X32561Y80055D1*
X32683Y80116D1*
X32864D1*
X32986Y80055D1*
X33046Y79873D1*
Y79265D1*
Y79873D2*
X33229Y80055D1*
X33351Y80116D1*
X33532D1*
X33654Y80055D1*
X33716Y79873D1*
Y79265D1*
X34108Y80116D2*
Y79265D1*
Y79873D2*
X34291Y80055D1*
X34413Y80116D1*
X34594D1*
X34716Y80055D1*
X34776Y79873D1*
Y79265D1*
Y79873D2*
X34959Y80055D1*
X35081Y80116D1*
X35262D1*
X35384Y80055D1*
X35446Y79873D1*
Y79265D1*
X11487Y77855D2*
X11852Y77005D1*
X12215Y77855D1*
X12608Y78036D2*
X12730Y78098D1*
X12912Y78279D1*
Y77005D1*
X13365Y77127D2*
X13304Y77065D1*
X13365Y77005D1*
X13426Y77065D1*
X13365Y77127D1*
X14184Y78279D2*
X14001Y78219D1*
X13879Y78036D1*
X13819Y77733D1*
Y77551D1*
X13879Y77247D1*
X14001Y77065D1*
X14184Y77005D1*
X14304D1*
X14487Y77065D1*
X14608Y77247D1*
X14669Y77551D1*
Y77733D1*
X14608Y78036D1*
X14487Y78219D1*
X14304Y78279D1*
X14184D1*
X14608Y78036D2*
X13879Y77247D1*
X16721Y78613D2*
X16599Y78493D1*
X16478Y78310D1*
X16356Y78067D1*
X16296Y77763D1*
Y77520D1*
X16356Y77217D1*
X16478Y76974D1*
X16599Y76791D1*
X16721Y76670D1*
X17175Y77976D2*
Y78036D1*
X17236Y78159D1*
X17296Y78219D1*
X17418Y78279D1*
X17661D1*
X17782Y78219D1*
X17842Y78159D1*
X17904Y78036D1*
Y77916D1*
X17842Y77794D1*
X17721Y77612D1*
X17113Y77005D1*
X17964D1*
X18721Y78279D2*
X18539Y78219D1*
X18417Y78036D1*
X18356Y77733D1*
Y77551D1*
X18417Y77247D1*
X18539Y77065D1*
X18721Y77005D1*
X18842D1*
X19025Y77065D1*
X19145Y77247D1*
X19207Y77551D1*
Y77733D1*
X19145Y78036D1*
X19025Y78219D1*
X18842Y78279D1*
X18721D1*
X19145Y78036D2*
X18417Y77247D1*
X19599Y78036D2*
X19721Y78098D1*
X19904Y78279D1*
Y77005D1*
X21025Y78279D2*
X20418D1*
X20358Y77733D1*
X20418Y77794D1*
X20601Y77855D1*
X20782D1*
X20964Y77794D1*
X21086Y77673D1*
X21147Y77490D1*
Y77370D1*
X21086Y77187D1*
X20964Y77065D1*
X20782Y77005D1*
X20601D1*
X20418Y77065D1*
X20358Y77127D1*
X20296Y77247D1*
X21539Y78613D2*
X21661Y78493D1*
X21782Y78310D1*
X21904Y78067D1*
X21964Y77763D1*
Y77520D1*
X21904Y77217D1*
X21782Y76974D1*
X21661Y76791D1*
X21539Y76670D1*
X59286Y80121D2*
D75*
X59242Y80194D1*
X59154Y80267D1*
X59067Y80303D1*
X58892D1*
X58805Y80267D1*
X58718Y80194D1*
X58673Y80121D1*
X58630Y80012D1*
Y79829D1*
X58673Y79720D1*
X58718Y79647D1*
X58805Y79575D1*
X58892Y79538D1*
X59067D1*
X59154Y79575D1*
X59242Y79647D1*
X59286Y79720D1*
Y79829D1*
X59067D1*
X60263Y80303D2*
Y79538D1*
X59650Y80303D1*
Y79538D1*
X60628Y80303D2*
Y79538D1*
X60934D1*
X61065Y79575D1*
X61153Y79647D1*
X61197Y79720D1*
X61240Y79829D1*
Y80012D1*
X61197Y80121D1*
X61153Y80194D1*
X61065Y80267D1*
X60934Y80303D1*
X60628D1*
X58522Y77522D2*
X58871Y76756D1*
X59221Y77522D1*
X60243Y77340D2*
X60199Y77412D1*
X60111Y77485D1*
X60024Y77522D1*
X59850D1*
X59762Y77485D1*
X59675Y77412D1*
X59630Y77340D1*
X59587Y77230D1*
Y77047D1*
X59630Y76939D1*
X59675Y76865D1*
X59762Y76793D1*
X59850Y76756D1*
X60024D1*
X60111Y76793D1*
X60199Y76865D1*
X60243Y76939D1*
X61265Y77340D2*
X61221Y77412D1*
X61133Y77485D1*
X61046Y77522D1*
X60871D1*
X60783Y77485D1*
X60696Y77412D1*
X60652Y77340D1*
X60609Y77230D1*
Y77047D1*
X60652Y76939D1*
X60696Y76865D1*
X60783Y76793D1*
X60871Y76756D1*
X61046D1*
X61133Y76793D1*
X61221Y76865D1*
X61265Y76939D1*
X59648Y74140D2*
X59297Y74906D1*
X58947Y74140D1*
X59079Y74395D2*
X59516D1*
X60275Y74905D2*
X60144Y74869D1*
X60056Y74759D1*
X60012Y74577D1*
Y74468D1*
X60056Y74286D1*
X60144Y74176D1*
X60275Y74140D1*
X60362D1*
X60494Y74176D1*
X60580Y74286D1*
X60625Y74468D1*
Y74577D1*
X60580Y74759D1*
X60494Y74869D1*
X60362Y74905D1*
X60275D1*
X60580Y74759D2*
X60056Y74286D1*
X58558Y14280D2*
X58426Y14243D1*
X58338Y14134D1*
X58295Y13952D1*
Y13842D1*
X58338Y13660D1*
X58426Y13551D1*
X58558Y13515D1*
X58645D1*
X58776Y13551D1*
X58863Y13660D1*
X58908Y13842D1*
Y13952D1*
X58863Y14134D1*
X58776Y14243D1*
X58645Y14280D1*
X58558D1*
X58863Y14134D2*
X58338Y13660D1*
X59316Y13588D2*
X59272Y13551D1*
X59316Y13515D1*
X59360Y13551D1*
X59316Y13588D1*
X59813Y14280D2*
X60293D1*
X60031Y13988D1*
X60163D1*
X60250Y13952D1*
X60293Y13916D1*
X60338Y13806D1*
Y13734D1*
X60293Y13624D1*
X60206Y13551D1*
X60075Y13515D1*
X59943D1*
X59813Y13551D1*
X59770Y13588D1*
X59725Y13660D1*
X60921Y14025D2*
X60834Y13989D1*
X60746Y13916D1*
X60702Y13806D1*
Y13734D1*
X60746Y13624D1*
X60834Y13552D1*
X60921Y13515D1*
X61052D1*
X61140Y13552D1*
X61227Y13624D1*
X61271Y13734D1*
Y13806D1*
X61227Y13916D1*
X61140Y13989D1*
X61052Y14025D1*
X60921D1*
X61636Y14280D2*
Y13515D1*
Y13879D2*
X61768Y13989D1*
X61856Y14025D1*
X61987D1*
X62074Y13989D1*
X62117Y13879D1*
Y13515D1*
X62482Y14025D2*
Y13515D1*
Y13879D2*
X62614Y13989D1*
X62702Y14025D1*
X62832D1*
X62920Y13989D1*
X62963Y13879D1*
Y13515D1*
Y13879D2*
X63095Y13989D1*
X63183Y14025D1*
X63313D1*
X63401Y13989D1*
X63445Y13879D1*
Y13515D1*
X63810Y14007D2*
X64598D1*
X63810Y13788D2*
X64598D1*
X65050Y14280D2*
X65530D1*
X65269Y13988D1*
X65400D1*
X65487Y13952D1*
X65530Y13916D1*
X65575Y13806D1*
Y13734D1*
X65530Y13624D1*
X65444Y13551D1*
X65312Y13515D1*
X65181D1*
X65050Y13551D1*
X65007Y13588D1*
X64962Y13660D1*
X66028Y14280D2*
X66508D1*
X66246Y13988D1*
X66377D1*
X66464Y13952D1*
X66508Y13916D1*
X66552Y13806D1*
Y13734D1*
X66508Y13624D1*
X66421Y13551D1*
X66289Y13515D1*
X66158D1*
X66028Y13551D1*
X65984Y13588D1*
X65940Y13660D1*
X67005Y14280D2*
X67485D1*
X67223Y13988D1*
X67355D1*
X67442Y13952D1*
X67485Y13916D1*
X67530Y13806D1*
Y13734D1*
X67485Y13624D1*
X67398Y13551D1*
X67267Y13515D1*
X67135D1*
X67005Y13551D1*
X66962Y13588D1*
X66917Y13660D1*
X67894Y14025D2*
Y13515D1*
Y13879D2*
X68026Y13989D1*
X68114Y14025D1*
X68244D1*
X68332Y13989D1*
X68376Y13879D1*
Y13515D1*
Y13879D2*
X68507Y13989D1*
X68595Y14025D1*
X68725D1*
X68813Y13989D1*
X68858Y13879D1*
Y13515D1*
X69923D2*
X69572Y14280D1*
X69222Y13515D1*
X69354Y13770D2*
X69792D1*
X58558Y12692D2*
X58426Y12656D1*
X58338Y12546D1*
X58295Y12364D1*
Y12255D1*
X58338Y12073D1*
X58426Y11963D1*
X58558Y11927D1*
X58645D1*
X58776Y11963D1*
X58863Y12073D1*
X58908Y12255D1*
Y12364D1*
X58863Y12546D1*
X58776Y12656D1*
X58645Y12692D1*
X58558D1*
X58863Y12546D2*
X58338Y12073D1*
X59316Y12000D2*
X59272Y11963D1*
X59316Y11927D1*
X59360Y11963D1*
X59316Y12000D1*
X59725Y12546D2*
X59813Y12583D1*
X59944Y12692D1*
Y11927D1*
X60834Y12692D2*
X60397D1*
X60354Y12364D1*
X60397Y12401D1*
X60529Y12438D1*
X60659D1*
X60790Y12401D1*
X60878Y12328D1*
X60922Y12219D1*
Y12146D1*
X60878Y12037D1*
X60790Y11963D1*
X60659Y11927D1*
X60529D1*
X60397Y11963D1*
X60354Y12000D1*
X60309Y12073D1*
X61505Y12438D2*
X61418Y12401D1*
X61330Y12328D1*
X61287Y12219D1*
Y12146D1*
X61330Y12037D1*
X61418Y11964D1*
X61505Y11927D1*
X61636D1*
X61724Y11964D1*
X61811Y12037D1*
X61856Y12146D1*
Y12219D1*
X61811Y12328D1*
X61724Y12401D1*
X61636Y12438D1*
X61505D1*
X62220Y12693D2*
Y11927D1*
Y12292D2*
X62352Y12401D1*
X62440Y12438D1*
X62571D1*
X62658Y12401D1*
X62702Y12292D1*
Y11927D1*
X63066Y12438D2*
Y11927D1*
Y12292D2*
X63198Y12401D1*
X63286Y12438D1*
X63416D1*
X63504Y12401D1*
X63547Y12292D1*
Y11927D1*
Y12292D2*
X63679Y12401D1*
X63767Y12438D1*
X63897D1*
X63985Y12401D1*
X64030Y12292D1*
Y11927D1*
X64394Y12419D2*
X65182D1*
X64394Y12200D2*
X65182D1*
X66071Y12583D2*
X66028Y12656D1*
X65896Y12692D1*
X65809D1*
X65678Y12656D1*
X65590Y12546D1*
X65547Y12364D1*
Y12182D1*
X65590Y12037D1*
X65678Y11963D1*
X65809Y11927D1*
X65853D1*
X65983Y11963D1*
X66071Y12037D1*
X66115Y12146D1*
Y12182D1*
X66071Y12292D1*
X65983Y12364D1*
X65853Y12401D1*
X65809D1*
X65678Y12364D1*
X65590Y12292D1*
X65547Y12182D1*
X67004Y12583D2*
X66961Y12656D1*
X66829Y12692D1*
X66742D1*
X66611Y12656D1*
X66523Y12546D1*
X66479Y12364D1*
Y12182D1*
X66523Y12037D1*
X66611Y11963D1*
X66742Y11927D1*
X66786D1*
X66916Y11963D1*
X67004Y12037D1*
X67047Y12146D1*
Y12182D1*
X67004Y12292D1*
X66916Y12364D1*
X66786Y12401D1*
X66742D1*
X66611Y12364D1*
X66523Y12292D1*
X66479Y12182D1*
X67937Y12583D2*
X67893Y12656D1*
X67762Y12692D1*
X67675D1*
X67544Y12656D1*
X67456Y12546D1*
X67412Y12364D1*
Y12182D1*
X67456Y12037D1*
X67544Y11963D1*
X67675Y11927D1*
X67719D1*
X67849Y11963D1*
X67937Y12037D1*
X67980Y12146D1*
Y12182D1*
X67937Y12292D1*
X67849Y12364D1*
X67719Y12401D1*
X67675D1*
X67544Y12364D1*
X67456Y12292D1*
X67412Y12182D1*
X68345Y12438D2*
Y11927D1*
Y12292D2*
X68477Y12401D1*
X68564Y12438D1*
X68695D1*
X68783Y12401D1*
X68826Y12292D1*
Y11927D1*
Y12292D2*
X68958Y12401D1*
X69046Y12438D1*
X69176D1*
X69264Y12401D1*
X69308Y12292D1*
Y11927D1*
X70374D2*
X70023Y12693D1*
X69673Y11927D1*
X69805Y12182D2*
X70242D1*
X29598Y17674D2*
D77*
X27849D1*
X28722Y18548D2*
Y16798D1*
X28772Y15598D2*
Y14475D1*
X14009Y64985D2*
D78*
X14059Y64858D1*
X14204Y64668D1*
X13184D1*
X13961Y64196D2*
X14009D1*
X14107Y64133D1*
X14155Y64071D1*
X14204Y63944D1*
Y63691D1*
X14155Y63566D1*
X14107Y63503D1*
X14009Y63438D1*
X13913D1*
X13815Y63503D1*
X13670Y63628D1*
X13184Y64260D1*
Y63376D1*
X13865Y62968D2*
X13184Y62588D1*
X13865Y62210D1*
X19046Y63920D2*
X19142Y63983D1*
X19240Y64110D1*
X19288Y64235D1*
Y64488D1*
X19240Y64615D1*
X19142Y64741D1*
X19046Y64805D1*
X18900Y64868D1*
X18656D1*
X18511Y64805D1*
X18413Y64741D1*
X18317Y64615D1*
X18267Y64488D1*
Y64235D1*
X18317Y64110D1*
X18413Y63983D1*
X18511Y63920D1*
X18656D1*
Y64235D1*
X19288Y62627D2*
X18267D1*
X19288Y63512D1*
X18267D1*
X19288Y62220D2*
X18267D1*
Y61777D1*
X18317Y61587D1*
X18413Y61460D1*
X18511Y61398D1*
X18656Y61335D1*
X18900D1*
X19046Y61398D1*
X19142Y61460D1*
X19240Y61587D1*
X19288Y61777D1*
Y62220D1*
X16868Y65147D2*
X15847D1*
X16527Y64740D2*
X15847D1*
X16333D2*
X16479Y64550D1*
X16527Y64423D1*
Y64234D1*
X16479Y64107D1*
X16333Y64045D1*
X15847D1*
X16527Y63637D2*
X15507D1*
X16381D2*
X16478Y63510D1*
X16527Y63384D1*
Y63194D1*
X16478Y63067D1*
X16381Y62942D1*
X16235Y62878D1*
X16138D1*
X15993Y62942D1*
X15895Y63067D1*
X15847Y63194D1*
Y63384D1*
X15895Y63510D1*
X15993Y63637D1*
X16527Y62470D2*
X16041D1*
X15896Y62407D1*
X15847Y62280D1*
Y62090D1*
X15896Y61965D1*
X16041Y61775D1*
X16527D2*
X15847D1*
X16868Y61177D2*
X16041D1*
X15896Y61114D1*
X15847Y60987D1*
Y60862D1*
X16527Y61367D2*
Y60925D1*
X62038Y63005D2*
D77*
X60289D1*
X61162Y63879D2*
Y62129D1*
X61212Y60929D2*
Y59806D1*
M02*
